%TF.GenerationSoftware,KiCad,Pcbnew,(6.0.7)*%
%TF.CreationDate,2023-01-15T17:04:05+01:00*%
%TF.ProjectId,I_CAN_has_carrot,495f4341-4e5f-4686-9173-5f636172726f,rev?*%
%TF.SameCoordinates,Original*%
%TF.FileFunction,Copper,L1,Top*%
%TF.FilePolarity,Positive*%
%FSLAX46Y46*%
G04 Gerber Fmt 4.6, Leading zero omitted, Abs format (unit mm)*
G04 Created by KiCad (PCBNEW (6.0.7)) date 2023-01-15 17:04:05*
%MOMM*%
%LPD*%
G01*
G04 APERTURE LIST*
G04 Aperture macros list*
%AMRoundRect*
0 Rectangle with rounded corners*
0 $1 Rounding radius*
0 $2 $3 $4 $5 $6 $7 $8 $9 X,Y pos of 4 corners*
0 Add a 4 corners polygon primitive as box body*
4,1,4,$2,$3,$4,$5,$6,$7,$8,$9,$2,$3,0*
0 Add four circle primitives for the rounded corners*
1,1,$1+$1,$2,$3*
1,1,$1+$1,$4,$5*
1,1,$1+$1,$6,$7*
1,1,$1+$1,$8,$9*
0 Add four rect primitives between the rounded corners*
20,1,$1+$1,$2,$3,$4,$5,0*
20,1,$1+$1,$4,$5,$6,$7,0*
20,1,$1+$1,$6,$7,$8,$9,0*
20,1,$1+$1,$8,$9,$2,$3,0*%
G04 Aperture macros list end*
%TA.AperFunction,SMDPad,CuDef*%
%ADD10RoundRect,0.200000X0.275000X-0.200000X0.275000X0.200000X-0.275000X0.200000X-0.275000X-0.200000X0*%
%TD*%
%TA.AperFunction,ComponentPad*%
%ADD11R,1.700000X1.700000*%
%TD*%
%TA.AperFunction,ComponentPad*%
%ADD12O,1.700000X1.700000*%
%TD*%
%TA.AperFunction,SMDPad,CuDef*%
%ADD13RoundRect,0.225000X-0.225000X-0.250000X0.225000X-0.250000X0.225000X0.250000X-0.225000X0.250000X0*%
%TD*%
%TA.AperFunction,SMDPad,CuDef*%
%ADD14RoundRect,0.225000X-0.250000X0.225000X-0.250000X-0.225000X0.250000X-0.225000X0.250000X0.225000X0*%
%TD*%
%TA.AperFunction,SMDPad,CuDef*%
%ADD15R,2.000000X1.500000*%
%TD*%
%TA.AperFunction,SMDPad,CuDef*%
%ADD16R,2.000000X3.800000*%
%TD*%
%TA.AperFunction,SMDPad,CuDef*%
%ADD17RoundRect,0.150000X0.150000X-0.825000X0.150000X0.825000X-0.150000X0.825000X-0.150000X-0.825000X0*%
%TD*%
%TA.AperFunction,ViaPad*%
%ADD18C,0.800000*%
%TD*%
%TA.AperFunction,Conductor*%
%ADD19C,0.250000*%
%TD*%
G04 APERTURE END LIST*
D10*
%TO.P,R1,1*%
%TO.N,/CANH*%
X110250000Y-57075000D03*
%TO.P,R1,2*%
%TO.N,Net-(J1-Pad2)*%
X110250000Y-55425000D03*
%TD*%
D11*
%TO.P,J4,1,Pin_1*%
%TO.N,/CANTX*%
X117560000Y-63000000D03*
D12*
%TO.P,J4,2,Pin_2*%
%TO.N,/CANRX*%
X115020000Y-63000000D03*
%TO.P,J4,3,Pin_3*%
%TO.N,GND*%
X112480000Y-63000000D03*
%TO.P,J4,4,Pin_4*%
%TO.N,+5V*%
X109940000Y-63000000D03*
%TO.P,J4,5,Pin_5*%
X107400000Y-63000000D03*
%TD*%
D13*
%TO.P,C3,1*%
%TO.N,+5V*%
X117975000Y-56250000D03*
%TO.P,C3,2*%
%TO.N,GND*%
X119525000Y-56250000D03*
%TD*%
D14*
%TO.P,C5,1*%
%TO.N,+3.3V*%
X118000000Y-52225000D03*
%TO.P,C5,2*%
%TO.N,GND*%
X118000000Y-53775000D03*
%TD*%
D15*
%TO.P,U1,1,GND*%
%TO.N,GND*%
X129740000Y-56950000D03*
D16*
%TO.P,U1,2,VO*%
%TO.N,+3.3V*%
X123440000Y-54650000D03*
D15*
X129740000Y-54650000D03*
%TO.P,U1,3,VI*%
%TO.N,+5V*%
X129740000Y-52350000D03*
%TD*%
D14*
%TO.P,C2,1*%
%TO.N,+3.3V*%
X119750000Y-52225000D03*
%TO.P,C2,2*%
%TO.N,GND*%
X119750000Y-53775000D03*
%TD*%
D11*
%TO.P,J2,1,Pin_1*%
%TO.N,/CANTX*%
X139000000Y-63000000D03*
D12*
%TO.P,J2,2,Pin_2*%
%TO.N,/CANRX*%
X139000000Y-60460000D03*
%TO.P,J2,3,Pin_3*%
%TO.N,unconnected-(J2-Pad3)*%
X136460000Y-63000000D03*
%TO.P,J2,4,Pin_4*%
%TO.N,unconnected-(J2-Pad4)*%
X136460000Y-60460000D03*
%TO.P,J2,5,Pin_5*%
%TO.N,unconnected-(J2-Pad5)*%
X133920000Y-63000000D03*
%TO.P,J2,6,Pin_6*%
%TO.N,unconnected-(J2-Pad6)*%
X133920000Y-60460000D03*
%TO.P,J2,7,Pin_7*%
%TO.N,unconnected-(J2-Pad7)*%
X131380000Y-63000000D03*
%TO.P,J2,8,Pin_8*%
%TO.N,unconnected-(J2-Pad8)*%
X131380000Y-60460000D03*
%TO.P,J2,9,Pin_9*%
%TO.N,unconnected-(J2-Pad9)*%
X128840000Y-63000000D03*
%TO.P,J2,10,Pin_10*%
%TO.N,unconnected-(J2-Pad10)*%
X128840000Y-60460000D03*
%TO.P,J2,11,Pin_11*%
%TO.N,unconnected-(J2-Pad11)*%
X126300000Y-63000000D03*
%TO.P,J2,12,Pin_12*%
%TO.N,unconnected-(J2-Pad12)*%
X126300000Y-60460000D03*
%TO.P,J2,13,Pin_13*%
%TO.N,GND*%
X123760000Y-63000000D03*
%TO.P,J2,14,Pin_14*%
%TO.N,+5V*%
X123760000Y-60460000D03*
%TD*%
D14*
%TO.P,C1,1*%
%TO.N,+5V*%
X132590000Y-53475000D03*
%TO.P,C1,2*%
%TO.N,GND*%
X132590000Y-55025000D03*
%TD*%
D17*
%TO.P,U2,1,TXD*%
%TO.N,/CANTX*%
X112190000Y-59700000D03*
%TO.P,U2,2,GND*%
%TO.N,GND*%
X113460000Y-59700000D03*
%TO.P,U2,3,VCC*%
%TO.N,+5V*%
X114730000Y-59700000D03*
%TO.P,U2,4,RXD*%
%TO.N,/CANRX*%
X116000000Y-59700000D03*
%TO.P,U2,5,VIO*%
%TO.N,+3.3V*%
X116000000Y-54750000D03*
%TO.P,U2,6,CANL*%
%TO.N,/CANL*%
X114730000Y-54750000D03*
%TO.P,U2,7,CANH*%
%TO.N,/CANH*%
X113460000Y-54750000D03*
%TO.P,U2,8,STB*%
%TO.N,GND*%
X112190000Y-54750000D03*
%TD*%
D11*
%TO.P,J1,1,Pin_1*%
%TO.N,/CANL*%
X107410000Y-58250000D03*
D12*
%TO.P,J1,2,Pin_2*%
%TO.N,Net-(J1-Pad2)*%
X107410000Y-55710000D03*
%TD*%
D11*
%TO.P,J3,1,Pin_1*%
%TO.N,/CANH*%
X102000000Y-63000000D03*
D12*
%TO.P,J3,2,Pin_2*%
%TO.N,/CANL*%
X102000000Y-60460000D03*
%TD*%
D13*
%TO.P,C4,1*%
%TO.N,+5V*%
X117975000Y-58000000D03*
%TO.P,C4,2*%
%TO.N,GND*%
X119525000Y-58000000D03*
%TD*%
D11*
%TO.P,J5,1,Pin_1*%
%TO.N,/CANH*%
X102000000Y-55275000D03*
D12*
%TO.P,J5,2,Pin_2*%
%TO.N,/CANL*%
X102000000Y-52735000D03*
%TD*%
D18*
%TO.N,+5V*%
X118000000Y-55000000D03*
X114750000Y-58000000D03*
X134000000Y-53500000D03*
%TO.N,GND*%
X120750000Y-57000000D03*
X131500000Y-57000000D03*
X132750000Y-56250000D03*
X119500000Y-55000000D03*
X112250000Y-52500000D03*
%TO.N,+3.3V*%
X131250000Y-54750000D03*
X121275000Y-52225000D03*
X118000000Y-51000000D03*
X123500000Y-53750000D03*
X119750000Y-51000000D03*
X123500000Y-55500000D03*
%TD*%
D19*
%TO.N,+5V*%
X132590000Y-53475000D02*
X133975000Y-53475000D01*
X117975000Y-56250000D02*
X117975000Y-55025000D01*
X117975000Y-55025000D02*
X118000000Y-55000000D01*
X133975000Y-53475000D02*
X134000000Y-53500000D01*
X114730000Y-59700000D02*
X114730000Y-59323249D01*
X116053249Y-58000000D02*
X117975000Y-58000000D01*
X117975000Y-58000000D02*
X117975000Y-56250000D01*
X114730000Y-59700000D02*
X114730000Y-58020000D01*
X114730000Y-58020000D02*
X114750000Y-58000000D01*
X114730000Y-59323249D02*
X116053249Y-58000000D01*
X132590000Y-53475000D02*
X131465000Y-52350000D01*
X131465000Y-52350000D02*
X129740000Y-52350000D01*
%TO.N,GND*%
X131450000Y-56950000D02*
X131500000Y-57000000D01*
X118000000Y-53775000D02*
X119750000Y-53775000D01*
X112190000Y-52560000D02*
X112250000Y-52500000D01*
X132590000Y-55025000D02*
X132590000Y-56090000D01*
X119750000Y-54750000D02*
X119500000Y-55000000D01*
X112190000Y-54750000D02*
X112190000Y-52560000D01*
X113460000Y-62020000D02*
X113460000Y-59700000D01*
X119525000Y-57025000D02*
X119525000Y-58000000D01*
X119750000Y-53775000D02*
X119750000Y-54750000D01*
X119525000Y-56250000D02*
X119525000Y-57025000D01*
X112480000Y-63000000D02*
X113460000Y-62020000D01*
X129740000Y-56950000D02*
X131450000Y-56950000D01*
X119525000Y-55025000D02*
X119500000Y-55000000D01*
X132590000Y-56090000D02*
X132750000Y-56250000D01*
X120725000Y-57025000D02*
X120750000Y-57000000D01*
X119525000Y-57025000D02*
X120725000Y-57025000D01*
X119525000Y-56250000D02*
X119525000Y-55025000D01*
%TO.N,+3.3V*%
X121275000Y-52225000D02*
X121975000Y-52225000D01*
X129740000Y-54650000D02*
X131150000Y-54650000D01*
X123440000Y-54650000D02*
X123440000Y-53810000D01*
X121975000Y-52225000D02*
X123500000Y-53750000D01*
X119750000Y-52225000D02*
X118000000Y-52225000D01*
X131150000Y-54650000D02*
X131250000Y-54750000D01*
X118000000Y-52225000D02*
X118000000Y-51000000D01*
X116000000Y-54225000D02*
X118000000Y-52225000D01*
X123440000Y-54650000D02*
X123440000Y-55440000D01*
X119750000Y-52225000D02*
X119750000Y-51000000D01*
X123440000Y-55440000D02*
X123500000Y-55500000D01*
X119750000Y-52225000D02*
X121275000Y-52225000D01*
X123440000Y-53810000D02*
X123500000Y-53750000D01*
X116000000Y-54750000D02*
X116000000Y-54225000D01*
%TO.N,/CANL*%
X107410000Y-58250000D02*
X104210000Y-58250000D01*
X114730000Y-55270000D02*
X111750000Y-58250000D01*
X114730000Y-54750000D02*
X114730000Y-55270000D01*
X111750000Y-58250000D02*
X107410000Y-58250000D01*
X104210000Y-58250000D02*
X102000000Y-60460000D01*
%TO.N,Net-(J1-Pad2)*%
X109965000Y-55710000D02*
X107410000Y-55710000D01*
X110250000Y-55425000D02*
X109965000Y-55710000D01*
%TO.N,/CANTX*%
X116385000Y-64175000D02*
X111993299Y-64175000D01*
X139000000Y-63000000D02*
X137363557Y-64636443D01*
X137363557Y-64636443D02*
X119196443Y-64636443D01*
X117560000Y-63000000D02*
X116385000Y-64175000D01*
X111250000Y-63431701D02*
X111250000Y-60640000D01*
X119196443Y-64636443D02*
X117560000Y-63000000D01*
X111250000Y-60640000D02*
X112190000Y-59700000D01*
X111993299Y-64175000D02*
X111250000Y-63431701D01*
%TO.N,/CANRX*%
X116000000Y-62020000D02*
X115020000Y-63000000D01*
X116000000Y-61500000D02*
X116000000Y-62020000D01*
X137825000Y-61635000D02*
X116135000Y-61635000D01*
X116135000Y-61635000D02*
X116000000Y-61500000D01*
X139000000Y-60460000D02*
X137825000Y-61635000D01*
X116000000Y-59700000D02*
X116000000Y-61500000D01*
%TO.N,/CANH*%
X113460000Y-54750000D02*
X113460000Y-55126751D01*
X113460000Y-55126751D02*
X111511751Y-57075000D01*
X103800000Y-57075000D02*
X110250000Y-57075000D01*
X111511751Y-57075000D02*
X110250000Y-57075000D01*
X102000000Y-55275000D02*
X103800000Y-57075000D01*
%TD*%
%TA.AperFunction,Conductor*%
%TO.N,GND*%
G36*
X133970018Y-50510000D02*
G01*
X133984851Y-50512310D01*
X133984855Y-50512310D01*
X133993724Y-50513691D01*
X134011720Y-50511338D01*
X134035116Y-50510472D01*
X134271898Y-50523769D01*
X134285930Y-50525350D01*
X134416685Y-50547567D01*
X134547435Y-50569782D01*
X134561210Y-50572926D01*
X134639356Y-50595439D01*
X134816100Y-50646359D01*
X134829421Y-50651020D01*
X135074488Y-50752530D01*
X135087211Y-50758657D01*
X135168880Y-50803794D01*
X135319362Y-50886963D01*
X135331325Y-50894480D01*
X135547655Y-51047974D01*
X135558702Y-51056784D01*
X135730081Y-51209937D01*
X135747862Y-51229558D01*
X135748350Y-51230226D01*
X135748353Y-51230229D01*
X135753648Y-51237477D01*
X135760765Y-51242948D01*
X135760769Y-51242952D01*
X135778894Y-51256885D01*
X135791198Y-51267685D01*
X140726848Y-56203336D01*
X140739491Y-56218098D01*
X140753648Y-56237477D01*
X140760765Y-56242948D01*
X140760767Y-56242950D01*
X140768039Y-56248540D01*
X140785193Y-56264471D01*
X140943222Y-56441305D01*
X140952020Y-56452337D01*
X141105525Y-56668682D01*
X141113032Y-56680631D01*
X141241340Y-56912785D01*
X141247469Y-56925512D01*
X141348979Y-57170579D01*
X141353640Y-57183900D01*
X141386462Y-57297827D01*
X141427073Y-57438790D01*
X141430217Y-57452565D01*
X141436143Y-57487443D01*
X141472474Y-57701268D01*
X141474648Y-57714065D01*
X141476230Y-57728102D01*
X141483533Y-57858143D01*
X141489118Y-57957599D01*
X141487815Y-57984050D01*
X141486309Y-57993724D01*
X141487473Y-58002626D01*
X141487473Y-58002628D01*
X141490436Y-58025283D01*
X141491500Y-58041621D01*
X141491500Y-63950633D01*
X141490000Y-63970018D01*
X141487690Y-63984851D01*
X141487690Y-63984855D01*
X141486309Y-63993724D01*
X141487515Y-64002943D01*
X141488304Y-64008976D01*
X141489047Y-64034302D01*
X141479493Y-64167893D01*
X141476962Y-64203279D01*
X141474404Y-64221064D01*
X141440156Y-64378502D01*
X141433001Y-64411392D01*
X141427937Y-64428641D01*
X141359864Y-64611150D01*
X141352396Y-64627502D01*
X141259048Y-64798458D01*
X141249328Y-64813582D01*
X141132598Y-64969514D01*
X141120825Y-64983100D01*
X140983100Y-65120825D01*
X140969514Y-65132598D01*
X140813582Y-65249328D01*
X140798458Y-65259048D01*
X140627502Y-65352396D01*
X140611150Y-65359864D01*
X140428641Y-65427937D01*
X140411393Y-65433001D01*
X140221064Y-65474404D01*
X140203285Y-65476961D01*
X140041395Y-65488540D01*
X140023435Y-65487793D01*
X140015155Y-65487692D01*
X140006276Y-65486309D01*
X139974714Y-65490436D01*
X139958379Y-65491500D01*
X137585329Y-65491500D01*
X137517208Y-65471498D01*
X137470715Y-65417842D01*
X137460611Y-65347568D01*
X137490105Y-65282988D01*
X137538947Y-65248348D01*
X137563470Y-65238639D01*
X137574699Y-65234794D01*
X137609540Y-65224672D01*
X137609541Y-65224672D01*
X137617150Y-65222461D01*
X137623969Y-65218428D01*
X137623974Y-65218426D01*
X137634585Y-65212150D01*
X137652333Y-65203455D01*
X137671174Y-65195995D01*
X137706944Y-65170007D01*
X137716864Y-65163491D01*
X137748092Y-65145023D01*
X137748095Y-65145021D01*
X137754919Y-65140985D01*
X137769240Y-65126664D01*
X137784274Y-65113823D01*
X137794251Y-65106574D01*
X137800664Y-65101915D01*
X137828855Y-65067838D01*
X137836845Y-65059059D01*
X138500499Y-64395405D01*
X138562811Y-64361379D01*
X138589594Y-64358500D01*
X139898134Y-64358500D01*
X139960316Y-64351745D01*
X140096705Y-64300615D01*
X140213261Y-64213261D01*
X140300615Y-64096705D01*
X140351745Y-63960316D01*
X140358500Y-63898134D01*
X140358500Y-62101866D01*
X140351745Y-62039684D01*
X140300615Y-61903295D01*
X140213261Y-61786739D01*
X140096705Y-61699385D01*
X140084132Y-61694672D01*
X139978203Y-61654960D01*
X139921439Y-61612318D01*
X139896739Y-61545756D01*
X139911947Y-61476408D01*
X139933493Y-61447727D01*
X140034435Y-61347137D01*
X140038096Y-61343489D01*
X140062520Y-61309500D01*
X140165435Y-61166277D01*
X140168453Y-61162077D01*
X140184252Y-61130111D01*
X140265136Y-60966453D01*
X140265137Y-60966451D01*
X140267430Y-60961811D01*
X140320055Y-60788601D01*
X140330865Y-60753023D01*
X140330865Y-60753021D01*
X140332370Y-60748069D01*
X140361529Y-60526590D01*
X140361760Y-60517144D01*
X140363074Y-60463365D01*
X140363074Y-60463361D01*
X140363156Y-60460000D01*
X140344852Y-60237361D01*
X140290431Y-60020702D01*
X140201354Y-59815840D01*
X140161906Y-59754862D01*
X140082822Y-59632617D01*
X140082820Y-59632614D01*
X140080014Y-59628277D01*
X139929670Y-59463051D01*
X139925619Y-59459852D01*
X139925615Y-59459848D01*
X139758414Y-59327800D01*
X139758410Y-59327798D01*
X139754359Y-59324598D01*
X139558789Y-59216638D01*
X139553920Y-59214914D01*
X139553916Y-59214912D01*
X139353087Y-59143795D01*
X139353083Y-59143794D01*
X139348212Y-59142069D01*
X139343119Y-59141162D01*
X139343116Y-59141161D01*
X139133373Y-59103800D01*
X139133367Y-59103799D01*
X139128284Y-59102894D01*
X139054452Y-59101992D01*
X138910081Y-59100228D01*
X138910079Y-59100228D01*
X138904911Y-59100165D01*
X138684091Y-59133955D01*
X138471756Y-59203357D01*
X138273607Y-59306507D01*
X138269474Y-59309610D01*
X138269471Y-59309612D01*
X138220068Y-59346705D01*
X138094965Y-59440635D01*
X138076605Y-59459848D01*
X137989866Y-59550615D01*
X137940629Y-59602138D01*
X137833201Y-59759621D01*
X137778293Y-59804621D01*
X137707768Y-59812792D01*
X137644021Y-59781538D01*
X137623324Y-59757054D01*
X137542822Y-59632617D01*
X137542820Y-59632614D01*
X137540014Y-59628277D01*
X137389670Y-59463051D01*
X137385619Y-59459852D01*
X137385615Y-59459848D01*
X137218414Y-59327800D01*
X137218410Y-59327798D01*
X137214359Y-59324598D01*
X137018789Y-59216638D01*
X137013920Y-59214914D01*
X137013916Y-59214912D01*
X136813087Y-59143795D01*
X136813083Y-59143794D01*
X136808212Y-59142069D01*
X136803119Y-59141162D01*
X136803116Y-59141161D01*
X136593373Y-59103800D01*
X136593367Y-59103799D01*
X136588284Y-59102894D01*
X136514452Y-59101992D01*
X136370081Y-59100228D01*
X136370079Y-59100228D01*
X136364911Y-59100165D01*
X136144091Y-59133955D01*
X135931756Y-59203357D01*
X135733607Y-59306507D01*
X135729474Y-59309610D01*
X135729471Y-59309612D01*
X135680068Y-59346705D01*
X135554965Y-59440635D01*
X135536605Y-59459848D01*
X135449866Y-59550615D01*
X135400629Y-59602138D01*
X135293201Y-59759621D01*
X135238293Y-59804621D01*
X135167768Y-59812792D01*
X135104021Y-59781538D01*
X135083324Y-59757054D01*
X135002822Y-59632617D01*
X135002820Y-59632614D01*
X135000014Y-59628277D01*
X134849670Y-59463051D01*
X134845619Y-59459852D01*
X134845615Y-59459848D01*
X134678414Y-59327800D01*
X134678410Y-59327798D01*
X134674359Y-59324598D01*
X134478789Y-59216638D01*
X134473920Y-59214914D01*
X134473916Y-59214912D01*
X134273087Y-59143795D01*
X134273083Y-59143794D01*
X134268212Y-59142069D01*
X134263119Y-59141162D01*
X134263116Y-59141161D01*
X134053373Y-59103800D01*
X134053367Y-59103799D01*
X134048284Y-59102894D01*
X133974452Y-59101992D01*
X133830081Y-59100228D01*
X133830079Y-59100228D01*
X133824911Y-59100165D01*
X133604091Y-59133955D01*
X133391756Y-59203357D01*
X133193607Y-59306507D01*
X133189474Y-59309610D01*
X133189471Y-59309612D01*
X133140068Y-59346705D01*
X133014965Y-59440635D01*
X132996605Y-59459848D01*
X132909866Y-59550615D01*
X132860629Y-59602138D01*
X132753201Y-59759621D01*
X132698293Y-59804621D01*
X132627768Y-59812792D01*
X132564021Y-59781538D01*
X132543324Y-59757054D01*
X132462822Y-59632617D01*
X132462820Y-59632614D01*
X132460014Y-59628277D01*
X132309670Y-59463051D01*
X132305619Y-59459852D01*
X132305615Y-59459848D01*
X132138414Y-59327800D01*
X132138410Y-59327798D01*
X132134359Y-59324598D01*
X131938789Y-59216638D01*
X131933920Y-59214914D01*
X131933916Y-59214912D01*
X131733087Y-59143795D01*
X131733083Y-59143794D01*
X131728212Y-59142069D01*
X131723119Y-59141162D01*
X131723116Y-59141161D01*
X131513373Y-59103800D01*
X131513367Y-59103799D01*
X131508284Y-59102894D01*
X131434452Y-59101992D01*
X131290081Y-59100228D01*
X131290079Y-59100228D01*
X131284911Y-59100165D01*
X131064091Y-59133955D01*
X130851756Y-59203357D01*
X130653607Y-59306507D01*
X130649474Y-59309610D01*
X130649471Y-59309612D01*
X130600068Y-59346705D01*
X130474965Y-59440635D01*
X130456605Y-59459848D01*
X130369866Y-59550615D01*
X130320629Y-59602138D01*
X130213201Y-59759621D01*
X130158293Y-59804621D01*
X130087768Y-59812792D01*
X130024021Y-59781538D01*
X130003324Y-59757054D01*
X129922822Y-59632617D01*
X129922820Y-59632614D01*
X129920014Y-59628277D01*
X129769670Y-59463051D01*
X129765619Y-59459852D01*
X129765615Y-59459848D01*
X129598414Y-59327800D01*
X129598410Y-59327798D01*
X129594359Y-59324598D01*
X129398789Y-59216638D01*
X129393920Y-59214914D01*
X129393916Y-59214912D01*
X129193087Y-59143795D01*
X129193083Y-59143794D01*
X129188212Y-59142069D01*
X129183119Y-59141162D01*
X129183116Y-59141161D01*
X128973373Y-59103800D01*
X128973367Y-59103799D01*
X128968284Y-59102894D01*
X128894452Y-59101992D01*
X128750081Y-59100228D01*
X128750079Y-59100228D01*
X128744911Y-59100165D01*
X128524091Y-59133955D01*
X128311756Y-59203357D01*
X128113607Y-59306507D01*
X128109474Y-59309610D01*
X128109471Y-59309612D01*
X128060068Y-59346705D01*
X127934965Y-59440635D01*
X127916605Y-59459848D01*
X127829866Y-59550615D01*
X127780629Y-59602138D01*
X127673201Y-59759621D01*
X127618293Y-59804621D01*
X127547768Y-59812792D01*
X127484021Y-59781538D01*
X127463324Y-59757054D01*
X127382822Y-59632617D01*
X127382820Y-59632614D01*
X127380014Y-59628277D01*
X127229670Y-59463051D01*
X127225619Y-59459852D01*
X127225615Y-59459848D01*
X127058414Y-59327800D01*
X127058410Y-59327798D01*
X127054359Y-59324598D01*
X126858789Y-59216638D01*
X126853920Y-59214914D01*
X126853916Y-59214912D01*
X126653087Y-59143795D01*
X126653083Y-59143794D01*
X126648212Y-59142069D01*
X126643119Y-59141162D01*
X126643116Y-59141161D01*
X126433373Y-59103800D01*
X126433367Y-59103799D01*
X126428284Y-59102894D01*
X126354452Y-59101992D01*
X126210081Y-59100228D01*
X126210079Y-59100228D01*
X126204911Y-59100165D01*
X125984091Y-59133955D01*
X125771756Y-59203357D01*
X125573607Y-59306507D01*
X125569474Y-59309610D01*
X125569471Y-59309612D01*
X125520068Y-59346705D01*
X125394965Y-59440635D01*
X125376605Y-59459848D01*
X125289866Y-59550615D01*
X125240629Y-59602138D01*
X125133201Y-59759621D01*
X125078293Y-59804621D01*
X125007768Y-59812792D01*
X124944021Y-59781538D01*
X124923324Y-59757054D01*
X124842822Y-59632617D01*
X124842820Y-59632614D01*
X124840014Y-59628277D01*
X124689670Y-59463051D01*
X124685619Y-59459852D01*
X124685615Y-59459848D01*
X124518414Y-59327800D01*
X124518410Y-59327798D01*
X124514359Y-59324598D01*
X124318789Y-59216638D01*
X124313920Y-59214914D01*
X124313916Y-59214912D01*
X124113087Y-59143795D01*
X124113083Y-59143794D01*
X124108212Y-59142069D01*
X124103119Y-59141162D01*
X124103116Y-59141161D01*
X123893373Y-59103800D01*
X123893367Y-59103799D01*
X123888284Y-59102894D01*
X123814452Y-59101992D01*
X123670081Y-59100228D01*
X123670079Y-59100228D01*
X123664911Y-59100165D01*
X123444091Y-59133955D01*
X123231756Y-59203357D01*
X123033607Y-59306507D01*
X123029474Y-59309610D01*
X123029471Y-59309612D01*
X122980068Y-59346705D01*
X122854965Y-59440635D01*
X122836605Y-59459848D01*
X122749866Y-59550615D01*
X122700629Y-59602138D01*
X122574743Y-59786680D01*
X122480688Y-59989305D01*
X122420989Y-60204570D01*
X122397251Y-60426695D01*
X122397548Y-60431848D01*
X122397548Y-60431851D01*
X122406895Y-60593958D01*
X122410110Y-60649715D01*
X122411247Y-60654761D01*
X122411248Y-60654767D01*
X122454751Y-60847799D01*
X122450215Y-60918650D01*
X122408093Y-60975802D01*
X122341760Y-61001108D01*
X122331834Y-61001500D01*
X116854138Y-61001500D01*
X116786017Y-60981498D01*
X116739524Y-60927842D01*
X116729420Y-60857568D01*
X116745684Y-60811362D01*
X116755109Y-60795425D01*
X116759145Y-60788601D01*
X116805562Y-60628831D01*
X116807837Y-60599935D01*
X116808307Y-60593958D01*
X116808307Y-60593950D01*
X116808500Y-60591502D01*
X116808500Y-58808498D01*
X116805562Y-58771169D01*
X116808080Y-58770971D01*
X116814327Y-58711555D01*
X116858745Y-58656169D01*
X116930848Y-58633500D01*
X117054501Y-58633500D01*
X117122622Y-58653502D01*
X117161644Y-58693195D01*
X117167395Y-58702488D01*
X117167399Y-58702493D01*
X117171248Y-58708713D01*
X117292298Y-58829552D01*
X117298528Y-58833392D01*
X117298529Y-58833393D01*
X117430020Y-58914445D01*
X117437899Y-58919302D01*
X117600243Y-58973149D01*
X117607080Y-58973849D01*
X117607082Y-58973850D01*
X117648401Y-58978083D01*
X117701268Y-58983500D01*
X118248732Y-58983500D01*
X118251978Y-58983163D01*
X118251982Y-58983163D01*
X118286083Y-58979625D01*
X118351019Y-58972887D01*
X118398164Y-58957158D01*
X118506324Y-58921073D01*
X118506326Y-58921072D01*
X118513268Y-58918756D01*
X118658713Y-58828752D01*
X118663886Y-58823570D01*
X118669623Y-58819023D01*
X118671055Y-58820830D01*
X118723575Y-58792098D01*
X118794395Y-58797108D01*
X118830853Y-58820499D01*
X118831683Y-58819448D01*
X118848840Y-58832998D01*
X118981880Y-58915004D01*
X118995061Y-58921151D01*
X119143814Y-58970491D01*
X119157190Y-58973358D01*
X119248097Y-58982672D01*
X119253126Y-58982929D01*
X119268124Y-58978525D01*
X119269329Y-58977135D01*
X119271000Y-58969452D01*
X119271000Y-58964885D01*
X119779000Y-58964885D01*
X119783475Y-58980124D01*
X119784865Y-58981329D01*
X119792548Y-58983000D01*
X119795438Y-58983000D01*
X119801953Y-58982663D01*
X119894057Y-58973106D01*
X119907456Y-58970212D01*
X120056107Y-58920619D01*
X120069286Y-58914445D01*
X120202173Y-58832212D01*
X120213574Y-58823176D01*
X120323986Y-58712571D01*
X120332998Y-58701160D01*
X120415004Y-58568120D01*
X120421151Y-58554939D01*
X120470491Y-58406186D01*
X120473358Y-58392810D01*
X120482672Y-58301903D01*
X120483000Y-58295487D01*
X120483000Y-58272115D01*
X120478525Y-58256876D01*
X120477135Y-58255671D01*
X120469452Y-58254000D01*
X119797115Y-58254000D01*
X119781876Y-58258475D01*
X119780671Y-58259865D01*
X119779000Y-58267548D01*
X119779000Y-58964885D01*
X119271000Y-58964885D01*
X119271000Y-57727885D01*
X119779000Y-57727885D01*
X119783475Y-57743124D01*
X119784865Y-57744329D01*
X119792548Y-57746000D01*
X120464885Y-57746000D01*
X120469418Y-57744669D01*
X128232001Y-57744669D01*
X128232371Y-57751490D01*
X128237895Y-57802352D01*
X128241521Y-57817604D01*
X128286676Y-57938054D01*
X128295214Y-57953649D01*
X128371715Y-58055724D01*
X128384276Y-58068285D01*
X128486351Y-58144786D01*
X128501946Y-58153324D01*
X128622394Y-58198478D01*
X128637649Y-58202105D01*
X128688514Y-58207631D01*
X128695328Y-58208000D01*
X129467885Y-58208000D01*
X129483124Y-58203525D01*
X129484329Y-58202135D01*
X129486000Y-58194452D01*
X129486000Y-58189884D01*
X129994000Y-58189884D01*
X129998475Y-58205123D01*
X129999865Y-58206328D01*
X130007548Y-58207999D01*
X130784669Y-58207999D01*
X130791490Y-58207629D01*
X130842352Y-58202105D01*
X130857604Y-58198479D01*
X130978054Y-58153324D01*
X130993649Y-58144786D01*
X131095724Y-58068285D01*
X131108285Y-58055724D01*
X131184786Y-57953649D01*
X131193324Y-57938054D01*
X131238478Y-57817606D01*
X131242105Y-57802351D01*
X131247631Y-57751486D01*
X131248000Y-57744672D01*
X131248000Y-57222115D01*
X131243525Y-57206876D01*
X131242135Y-57205671D01*
X131234452Y-57204000D01*
X130012115Y-57204000D01*
X129996876Y-57208475D01*
X129995671Y-57209865D01*
X129994000Y-57217548D01*
X129994000Y-58189884D01*
X129486000Y-58189884D01*
X129486000Y-57222115D01*
X129481525Y-57206876D01*
X129480135Y-57205671D01*
X129472452Y-57204000D01*
X128250116Y-57204000D01*
X128234877Y-57208475D01*
X128233672Y-57209865D01*
X128232001Y-57217548D01*
X128232001Y-57744669D01*
X120469418Y-57744669D01*
X120480124Y-57741525D01*
X120481329Y-57740135D01*
X120483000Y-57732452D01*
X120483000Y-57704562D01*
X120482663Y-57698047D01*
X120473106Y-57605943D01*
X120470212Y-57592544D01*
X120420619Y-57443893D01*
X120414445Y-57430714D01*
X120332212Y-57297827D01*
X120323176Y-57286426D01*
X120250828Y-57214205D01*
X120216748Y-57151922D01*
X120221751Y-57081102D01*
X120250672Y-57036013D01*
X120323986Y-56962571D01*
X120332998Y-56951160D01*
X120415004Y-56818120D01*
X120421151Y-56804939D01*
X120470491Y-56656186D01*
X120473358Y-56642810D01*
X120482672Y-56551903D01*
X120483000Y-56545487D01*
X120483000Y-56522115D01*
X120478525Y-56506876D01*
X120477135Y-56505671D01*
X120469452Y-56504000D01*
X119797115Y-56504000D01*
X119781876Y-56508475D01*
X119780671Y-56509865D01*
X119779000Y-56517548D01*
X119779000Y-57727885D01*
X119271000Y-57727885D01*
X119271000Y-55977885D01*
X119779000Y-55977885D01*
X119783475Y-55993124D01*
X119784865Y-55994329D01*
X119792548Y-55996000D01*
X120464885Y-55996000D01*
X120480124Y-55991525D01*
X120481329Y-55990135D01*
X120483000Y-55982452D01*
X120483000Y-55954562D01*
X120482663Y-55948047D01*
X120473106Y-55855943D01*
X120470212Y-55842544D01*
X120420619Y-55693893D01*
X120414445Y-55680714D01*
X120332212Y-55547827D01*
X120323176Y-55536426D01*
X120212571Y-55426014D01*
X120201160Y-55417002D01*
X120068120Y-55334996D01*
X120054939Y-55328849D01*
X119906186Y-55279509D01*
X119892810Y-55276642D01*
X119801903Y-55267328D01*
X119796874Y-55267071D01*
X119781876Y-55271475D01*
X119780671Y-55272865D01*
X119779000Y-55280548D01*
X119779000Y-55977885D01*
X119271000Y-55977885D01*
X119271000Y-55285115D01*
X119266525Y-55269876D01*
X119265135Y-55268671D01*
X119257452Y-55267000D01*
X119254562Y-55267000D01*
X119248047Y-55267337D01*
X119155943Y-55276894D01*
X119142541Y-55279789D01*
X119060347Y-55307210D01*
X118989398Y-55309794D01*
X118928314Y-55273610D01*
X118896490Y-55210146D01*
X118895162Y-55174516D01*
X118912814Y-55006565D01*
X118913504Y-55000000D01*
X118905601Y-54924804D01*
X118894232Y-54816635D01*
X118894232Y-54816633D01*
X118893542Y-54810072D01*
X118868358Y-54732564D01*
X118866330Y-54661597D01*
X118902993Y-54600799D01*
X118966705Y-54569473D01*
X119037239Y-54577566D01*
X119054307Y-54586368D01*
X119181880Y-54665004D01*
X119195061Y-54671151D01*
X119343814Y-54720491D01*
X119357190Y-54723358D01*
X119448097Y-54732672D01*
X119454513Y-54733000D01*
X119477885Y-54733000D01*
X119493124Y-54728525D01*
X119494329Y-54727135D01*
X119496000Y-54719452D01*
X119496000Y-54714885D01*
X120004000Y-54714885D01*
X120008475Y-54730124D01*
X120009865Y-54731329D01*
X120017548Y-54733000D01*
X120045438Y-54733000D01*
X120051953Y-54732663D01*
X120144057Y-54723106D01*
X120157456Y-54720212D01*
X120306107Y-54670619D01*
X120319286Y-54664445D01*
X120452173Y-54582212D01*
X120463574Y-54573176D01*
X120573986Y-54462571D01*
X120582998Y-54451160D01*
X120665004Y-54318120D01*
X120671151Y-54304939D01*
X120720491Y-54156186D01*
X120723358Y-54142810D01*
X120732672Y-54051903D01*
X120732929Y-54046874D01*
X120728525Y-54031876D01*
X120727135Y-54030671D01*
X120719452Y-54029000D01*
X120022115Y-54029000D01*
X120006876Y-54033475D01*
X120005671Y-54034865D01*
X120004000Y-54042548D01*
X120004000Y-54714885D01*
X119496000Y-54714885D01*
X119496000Y-54047115D01*
X119491525Y-54031876D01*
X119490135Y-54030671D01*
X119482452Y-54029000D01*
X117872000Y-54029000D01*
X117803879Y-54008998D01*
X117757386Y-53955342D01*
X117746000Y-53903000D01*
X117746000Y-53647000D01*
X117766002Y-53578879D01*
X117819658Y-53532386D01*
X117872000Y-53521000D01*
X120714885Y-53521000D01*
X120730124Y-53516525D01*
X120731329Y-53515135D01*
X120733000Y-53507452D01*
X120733000Y-53504562D01*
X120732663Y-53498047D01*
X120723106Y-53405943D01*
X120720212Y-53392544D01*
X120670619Y-53243893D01*
X120664445Y-53230714D01*
X120634709Y-53182661D01*
X120615871Y-53114209D01*
X120637032Y-53046439D01*
X120691473Y-53000868D01*
X120761909Y-52991964D01*
X120806323Y-53010435D01*
X120807189Y-53008936D01*
X120812907Y-53012237D01*
X120818248Y-53016118D01*
X120824276Y-53018802D01*
X120824278Y-53018803D01*
X120886350Y-53046439D01*
X120992712Y-53093794D01*
X121086112Y-53113647D01*
X121173056Y-53132128D01*
X121173061Y-53132128D01*
X121179513Y-53133500D01*
X121370487Y-53133500D01*
X121376939Y-53132128D01*
X121376944Y-53132128D01*
X121463887Y-53113647D01*
X121557288Y-53093794D01*
X121703376Y-53028752D01*
X121725726Y-53018801D01*
X121731752Y-53016118D01*
X121735852Y-53013139D01*
X121804296Y-52996536D01*
X121871388Y-53019758D01*
X121887394Y-53033298D01*
X121894595Y-53040499D01*
X121928621Y-53102811D01*
X121931500Y-53129594D01*
X121931500Y-56598134D01*
X121938255Y-56660316D01*
X121989385Y-56796705D01*
X122076739Y-56913261D01*
X122193295Y-57000615D01*
X122329684Y-57051745D01*
X122391866Y-57058500D01*
X124488134Y-57058500D01*
X124550316Y-57051745D01*
X124686705Y-57000615D01*
X124803261Y-56913261D01*
X124890615Y-56796705D01*
X124941745Y-56660316D01*
X124948500Y-56598134D01*
X124948500Y-55448134D01*
X128231500Y-55448134D01*
X128238255Y-55510316D01*
X128289385Y-55646705D01*
X128330197Y-55701160D01*
X128347953Y-55724852D01*
X128372801Y-55791358D01*
X128357748Y-55860741D01*
X128347953Y-55875982D01*
X128295214Y-55946352D01*
X128286676Y-55961946D01*
X128241522Y-56082394D01*
X128237895Y-56097649D01*
X128232369Y-56148514D01*
X128232000Y-56155328D01*
X128232000Y-56677885D01*
X128236475Y-56693124D01*
X128237865Y-56694329D01*
X128245548Y-56696000D01*
X131229884Y-56696000D01*
X131245123Y-56691525D01*
X131246328Y-56690135D01*
X131247999Y-56682452D01*
X131247999Y-56155331D01*
X131247629Y-56148510D01*
X131242105Y-56097648D01*
X131238479Y-56082396D01*
X131193324Y-55961946D01*
X131184786Y-55946352D01*
X131132047Y-55875982D01*
X131107199Y-55809476D01*
X131122252Y-55740093D01*
X131132040Y-55724861D01*
X131143977Y-55708933D01*
X131200835Y-55666420D01*
X131244802Y-55658500D01*
X131345487Y-55658500D01*
X131351939Y-55657128D01*
X131351944Y-55657128D01*
X131440534Y-55638297D01*
X131532288Y-55618794D01*
X131538315Y-55616111D01*
X131538323Y-55616108D01*
X131568124Y-55602839D01*
X131638491Y-55593404D01*
X131702788Y-55623510D01*
X131726518Y-55651641D01*
X131757791Y-55702176D01*
X131766824Y-55713574D01*
X131877429Y-55823986D01*
X131888840Y-55832998D01*
X132021880Y-55915004D01*
X132035061Y-55921151D01*
X132183814Y-55970491D01*
X132197190Y-55973358D01*
X132288097Y-55982672D01*
X132294513Y-55983000D01*
X132317885Y-55983000D01*
X132333124Y-55978525D01*
X132334329Y-55977135D01*
X132336000Y-55969452D01*
X132336000Y-55964885D01*
X132844000Y-55964885D01*
X132848475Y-55980124D01*
X132849865Y-55981329D01*
X132857548Y-55983000D01*
X132885438Y-55983000D01*
X132891953Y-55982663D01*
X132984057Y-55973106D01*
X132997456Y-55970212D01*
X133146107Y-55920619D01*
X133159286Y-55914445D01*
X133292173Y-55832212D01*
X133303574Y-55823176D01*
X133413986Y-55712571D01*
X133422998Y-55701160D01*
X133505004Y-55568120D01*
X133511151Y-55554939D01*
X133560491Y-55406186D01*
X133563358Y-55392810D01*
X133572672Y-55301903D01*
X133572929Y-55296874D01*
X133568525Y-55281876D01*
X133567135Y-55280671D01*
X133559452Y-55279000D01*
X132862115Y-55279000D01*
X132846876Y-55283475D01*
X132845671Y-55284865D01*
X132844000Y-55292548D01*
X132844000Y-55964885D01*
X132336000Y-55964885D01*
X132336000Y-54897000D01*
X132356002Y-54828879D01*
X132409658Y-54782386D01*
X132462000Y-54771000D01*
X133554885Y-54771000D01*
X133570124Y-54766525D01*
X133571329Y-54765135D01*
X133573000Y-54757452D01*
X133573000Y-54754562D01*
X133572663Y-54748047D01*
X133563106Y-54655943D01*
X133560212Y-54642544D01*
X133515992Y-54509999D01*
X133513408Y-54439049D01*
X133549592Y-54377965D01*
X133613056Y-54346141D01*
X133686763Y-54355016D01*
X133711673Y-54366106D01*
X133711679Y-54366108D01*
X133717712Y-54368794D01*
X133796599Y-54385562D01*
X133898056Y-54407128D01*
X133898061Y-54407128D01*
X133904513Y-54408500D01*
X134095487Y-54408500D01*
X134101939Y-54407128D01*
X134101944Y-54407128D01*
X134203401Y-54385562D01*
X134282288Y-54368794D01*
X134288319Y-54366109D01*
X134450722Y-54293803D01*
X134450724Y-54293802D01*
X134456752Y-54291118D01*
X134611253Y-54178866D01*
X134616666Y-54172854D01*
X134734621Y-54041852D01*
X134734622Y-54041851D01*
X134739040Y-54036944D01*
X134834527Y-53871556D01*
X134893542Y-53689928D01*
X134896509Y-53661705D01*
X134912814Y-53506565D01*
X134913504Y-53500000D01*
X134903296Y-53402874D01*
X134894232Y-53316635D01*
X134894232Y-53316633D01*
X134893542Y-53310072D01*
X134834527Y-53128444D01*
X134826309Y-53114209D01*
X134779594Y-53033298D01*
X134739040Y-52963056D01*
X134690110Y-52908713D01*
X134615675Y-52826045D01*
X134615674Y-52826044D01*
X134611253Y-52821134D01*
X134456752Y-52708882D01*
X134450724Y-52706198D01*
X134450722Y-52706197D01*
X134288319Y-52633891D01*
X134288318Y-52633891D01*
X134282288Y-52631206D01*
X134188887Y-52611353D01*
X134101944Y-52592872D01*
X134101939Y-52592872D01*
X134095487Y-52591500D01*
X133904513Y-52591500D01*
X133898061Y-52592872D01*
X133898056Y-52592872D01*
X133811112Y-52611353D01*
X133717712Y-52631206D01*
X133711682Y-52633891D01*
X133711681Y-52633891D01*
X133549278Y-52706197D01*
X133549276Y-52706198D01*
X133543248Y-52708882D01*
X133537907Y-52712762D01*
X133537906Y-52712763D01*
X133510402Y-52732746D01*
X133443534Y-52756605D01*
X133374383Y-52740524D01*
X133347323Y-52719983D01*
X133340091Y-52712763D01*
X133297702Y-52670448D01*
X133291471Y-52666607D01*
X133158331Y-52584538D01*
X133158329Y-52584537D01*
X133152101Y-52580698D01*
X132989757Y-52526851D01*
X132982920Y-52526151D01*
X132982918Y-52526150D01*
X132941599Y-52521917D01*
X132888732Y-52516500D01*
X132579595Y-52516500D01*
X132511474Y-52496498D01*
X132490500Y-52479595D01*
X131968652Y-51957747D01*
X131961112Y-51949461D01*
X131957000Y-51942982D01*
X131907348Y-51896356D01*
X131904507Y-51893602D01*
X131884770Y-51873865D01*
X131881573Y-51871385D01*
X131872551Y-51863680D01*
X131858242Y-51850243D01*
X131840321Y-51833414D01*
X131833375Y-51829595D01*
X131833372Y-51829593D01*
X131822566Y-51823652D01*
X131806047Y-51812801D01*
X131805583Y-51812441D01*
X131790041Y-51800386D01*
X131782772Y-51797241D01*
X131782768Y-51797238D01*
X131749463Y-51782826D01*
X131738813Y-51777609D01*
X131700060Y-51756305D01*
X131680437Y-51751267D01*
X131661734Y-51744863D01*
X131650420Y-51739967D01*
X131650419Y-51739967D01*
X131643145Y-51736819D01*
X131635322Y-51735580D01*
X131635312Y-51735577D01*
X131599476Y-51729901D01*
X131587856Y-51727495D01*
X131552711Y-51718472D01*
X131552710Y-51718472D01*
X131545030Y-51716500D01*
X131524776Y-51716500D01*
X131505065Y-51714949D01*
X131498070Y-51713841D01*
X131485057Y-51711780D01*
X131477165Y-51712526D01*
X131441039Y-51715941D01*
X131429181Y-51716500D01*
X131374500Y-51716500D01*
X131306379Y-51696498D01*
X131259886Y-51642842D01*
X131248500Y-51590500D01*
X131248500Y-51551866D01*
X131241745Y-51489684D01*
X131190615Y-51353295D01*
X131103261Y-51236739D01*
X130986705Y-51149385D01*
X130850316Y-51098255D01*
X130788134Y-51091500D01*
X128691866Y-51091500D01*
X128629684Y-51098255D01*
X128493295Y-51149385D01*
X128376739Y-51236739D01*
X128289385Y-51353295D01*
X128238255Y-51489684D01*
X128231500Y-51551866D01*
X128231500Y-53148134D01*
X128238255Y-53210316D01*
X128289385Y-53346705D01*
X128294770Y-53353890D01*
X128294771Y-53353892D01*
X128347640Y-53424435D01*
X128372488Y-53490942D01*
X128357435Y-53560324D01*
X128347640Y-53575565D01*
X128294771Y-53646108D01*
X128289385Y-53653295D01*
X128238255Y-53789684D01*
X128231500Y-53851866D01*
X128231500Y-55448134D01*
X124948500Y-55448134D01*
X124948500Y-52701866D01*
X124941745Y-52639684D01*
X124890615Y-52503295D01*
X124803261Y-52386739D01*
X124686705Y-52299385D01*
X124550316Y-52248255D01*
X124488134Y-52241500D01*
X122939595Y-52241500D01*
X122871474Y-52221498D01*
X122850500Y-52204595D01*
X122478652Y-51832747D01*
X122471112Y-51824461D01*
X122467000Y-51817982D01*
X122417348Y-51771356D01*
X122414507Y-51768602D01*
X122394770Y-51748865D01*
X122391573Y-51746385D01*
X122382551Y-51738680D01*
X122379247Y-51735577D01*
X122350321Y-51708414D01*
X122343375Y-51704595D01*
X122343372Y-51704593D01*
X122332566Y-51698652D01*
X122316047Y-51687801D01*
X122308141Y-51681669D01*
X122300041Y-51675386D01*
X122292772Y-51672241D01*
X122292768Y-51672238D01*
X122259463Y-51657826D01*
X122248813Y-51652609D01*
X122210060Y-51631305D01*
X122190437Y-51626267D01*
X122171734Y-51619863D01*
X122160420Y-51614967D01*
X122160419Y-51614967D01*
X122153145Y-51611819D01*
X122145322Y-51610580D01*
X122145312Y-51610577D01*
X122109476Y-51604901D01*
X122097856Y-51602495D01*
X122062711Y-51593472D01*
X122062710Y-51593472D01*
X122055030Y-51591500D01*
X122034776Y-51591500D01*
X122015065Y-51589949D01*
X122006599Y-51588608D01*
X121995057Y-51586780D01*
X121987165Y-51587526D01*
X121979242Y-51587277D01*
X121979322Y-51584736D01*
X121921869Y-51573604D01*
X121895408Y-51555306D01*
X121890673Y-51551043D01*
X121886253Y-51546134D01*
X121731752Y-51433882D01*
X121725724Y-51431198D01*
X121725722Y-51431197D01*
X121563319Y-51358891D01*
X121563318Y-51358891D01*
X121557288Y-51356206D01*
X121456454Y-51334773D01*
X121376944Y-51317872D01*
X121376939Y-51317872D01*
X121370487Y-51316500D01*
X121179513Y-51316500D01*
X121173061Y-51317872D01*
X121173056Y-51317872D01*
X121093546Y-51334773D01*
X120992712Y-51356206D01*
X120986682Y-51358891D01*
X120986681Y-51358891D01*
X120824278Y-51431197D01*
X120824276Y-51431198D01*
X120818248Y-51433882D01*
X120799523Y-51447487D01*
X120732658Y-51471346D01*
X120663506Y-51455268D01*
X120614024Y-51404355D01*
X120599923Y-51334773D01*
X120605628Y-51306616D01*
X120641502Y-51196206D01*
X120643542Y-51189928D01*
X120648135Y-51146233D01*
X120662814Y-51006565D01*
X120663504Y-51000000D01*
X120651983Y-50890387D01*
X120644232Y-50816635D01*
X120644232Y-50816633D01*
X120643542Y-50810072D01*
X120599146Y-50673436D01*
X120597118Y-50602469D01*
X120633781Y-50541671D01*
X120697493Y-50510345D01*
X120718979Y-50508500D01*
X133950633Y-50508500D01*
X133970018Y-50510000D01*
G37*
%TD.AperFunction*%
%TA.AperFunction,Conductor*%
G36*
X122473021Y-62288502D02*
G01*
X122519514Y-62342158D01*
X122529618Y-62412432D01*
X122519188Y-62447550D01*
X122483339Y-62524782D01*
X122479775Y-62534470D01*
X122424389Y-62734183D01*
X122425912Y-62742607D01*
X122438292Y-62746000D01*
X123888000Y-62746000D01*
X123956121Y-62766002D01*
X124002614Y-62819658D01*
X124014000Y-62872000D01*
X124014000Y-63128000D01*
X123993998Y-63196121D01*
X123940342Y-63242614D01*
X123888000Y-63254000D01*
X122443225Y-63254000D01*
X122429694Y-63257973D01*
X122428257Y-63267966D01*
X122458565Y-63402446D01*
X122461645Y-63412275D01*
X122541770Y-63609603D01*
X122546413Y-63618794D01*
X122657691Y-63800383D01*
X122659255Y-63802520D01*
X122659620Y-63803531D01*
X122660392Y-63804791D01*
X122660132Y-63804950D01*
X122683351Y-63869302D01*
X122667517Y-63938511D01*
X122616779Y-63988172D01*
X122557583Y-64002943D01*
X119511037Y-64002943D01*
X119442916Y-63982941D01*
X119421942Y-63966038D01*
X118955405Y-63499501D01*
X118921379Y-63437189D01*
X118918500Y-63410406D01*
X118918500Y-62394500D01*
X118938502Y-62326379D01*
X118992158Y-62279886D01*
X119044500Y-62268500D01*
X122404900Y-62268500D01*
X122473021Y-62288502D01*
G37*
%TD.AperFunction*%
%TA.AperFunction,Conductor*%
G36*
X117002201Y-54222869D02*
G01*
X117059037Y-54265416D01*
X117077691Y-54301044D01*
X117079379Y-54306103D01*
X117085555Y-54319286D01*
X117167786Y-54452170D01*
X117172140Y-54457663D01*
X117198778Y-54523473D01*
X117182513Y-54598930D01*
X117165473Y-54628444D01*
X117106458Y-54810072D01*
X117105768Y-54816633D01*
X117105768Y-54816635D01*
X117094399Y-54924804D01*
X117086496Y-55000000D01*
X117106458Y-55189928D01*
X117165473Y-55371556D01*
X117182244Y-55400603D01*
X117198981Y-55469596D01*
X117172575Y-55540167D01*
X117170448Y-55542298D01*
X117166606Y-55548531D01*
X117086288Y-55678831D01*
X117080698Y-55687899D01*
X117026851Y-55850243D01*
X117016500Y-55951268D01*
X117016500Y-56548732D01*
X117027113Y-56651019D01*
X117029295Y-56657559D01*
X117078116Y-56803891D01*
X117081244Y-56813268D01*
X117171248Y-56958713D01*
X117176430Y-56963886D01*
X117176434Y-56963891D01*
X117248466Y-57035797D01*
X117282546Y-57098079D01*
X117277543Y-57168899D01*
X117248623Y-57213987D01*
X117170448Y-57292298D01*
X117166606Y-57298530D01*
X117166605Y-57298532D01*
X117161621Y-57306617D01*
X117108848Y-57354110D01*
X117054362Y-57366500D01*
X116132017Y-57366500D01*
X116120834Y-57365973D01*
X116113341Y-57364298D01*
X116105415Y-57364547D01*
X116105414Y-57364547D01*
X116045251Y-57366438D01*
X116041293Y-57366500D01*
X116013393Y-57366500D01*
X116009403Y-57367004D01*
X115997569Y-57367936D01*
X115953360Y-57369326D01*
X115945744Y-57371539D01*
X115945742Y-57371539D01*
X115933901Y-57374979D01*
X115914542Y-57378988D01*
X115913232Y-57379154D01*
X115894452Y-57381526D01*
X115887086Y-57384442D01*
X115887080Y-57384444D01*
X115853347Y-57397800D01*
X115842117Y-57401645D01*
X115807266Y-57411770D01*
X115799656Y-57413981D01*
X115792833Y-57418016D01*
X115782215Y-57424295D01*
X115764462Y-57432992D01*
X115756817Y-57436019D01*
X115745632Y-57440448D01*
X115721273Y-57458146D01*
X115709861Y-57466437D01*
X115699944Y-57472951D01*
X115661888Y-57495458D01*
X115661153Y-57494215D01*
X115603080Y-57517012D01*
X115533459Y-57503108D01*
X115490966Y-57466392D01*
X115489040Y-57463056D01*
X115403226Y-57367750D01*
X115365675Y-57326045D01*
X115365674Y-57326044D01*
X115361253Y-57321134D01*
X115218680Y-57217548D01*
X115212094Y-57212763D01*
X115212093Y-57212762D01*
X115206752Y-57208882D01*
X115200724Y-57206198D01*
X115200722Y-57206197D01*
X115038319Y-57133891D01*
X115038318Y-57133891D01*
X115032288Y-57131206D01*
X114938888Y-57111353D01*
X114851944Y-57092872D01*
X114851939Y-57092872D01*
X114845487Y-57091500D01*
X114654513Y-57091500D01*
X114648061Y-57092872D01*
X114648056Y-57092872D01*
X114561112Y-57111353D01*
X114467712Y-57131206D01*
X114461682Y-57133891D01*
X114461681Y-57133891D01*
X114299278Y-57206197D01*
X114299276Y-57206198D01*
X114293248Y-57208882D01*
X114287907Y-57212762D01*
X114287906Y-57212763D01*
X114281320Y-57217548D01*
X114138747Y-57321134D01*
X114134326Y-57326044D01*
X114134325Y-57326045D01*
X114027120Y-57445109D01*
X114010960Y-57463056D01*
X113973085Y-57528658D01*
X113932484Y-57598981D01*
X113915473Y-57628444D01*
X113856458Y-57810072D01*
X113855768Y-57816633D01*
X113855768Y-57816635D01*
X113847508Y-57895226D01*
X113836496Y-58000000D01*
X113840987Y-58042723D01*
X113845527Y-58085922D01*
X113832755Y-58155761D01*
X113784253Y-58207607D01*
X113720576Y-58225092D01*
X113717294Y-58225101D01*
X113714000Y-58232370D01*
X113714000Y-61161878D01*
X113717973Y-61175409D01*
X113725871Y-61176544D01*
X113865790Y-61135893D01*
X113880221Y-61129648D01*
X114009676Y-61053090D01*
X114017364Y-61047126D01*
X114083449Y-61021179D01*
X114153072Y-61035080D01*
X114169158Y-61045418D01*
X114173193Y-61049453D01*
X114316399Y-61134145D01*
X114324010Y-61136356D01*
X114324012Y-61136357D01*
X114376231Y-61151528D01*
X114476169Y-61180562D01*
X114482574Y-61181066D01*
X114482579Y-61181067D01*
X114511042Y-61183307D01*
X114511050Y-61183307D01*
X114513498Y-61183500D01*
X114946502Y-61183500D01*
X114948950Y-61183307D01*
X114948958Y-61183307D01*
X114977421Y-61181067D01*
X114977426Y-61181066D01*
X114983831Y-61180562D01*
X115083769Y-61151528D01*
X115135988Y-61136357D01*
X115135990Y-61136356D01*
X115143601Y-61134145D01*
X115176363Y-61114769D01*
X115245178Y-61097311D01*
X115312509Y-61119828D01*
X115356978Y-61175173D01*
X115366500Y-61223224D01*
X115366500Y-61421233D01*
X115365973Y-61432416D01*
X115364298Y-61439909D01*
X115364547Y-61447835D01*
X115364547Y-61447836D01*
X115366438Y-61507986D01*
X115366500Y-61511945D01*
X115366500Y-61531337D01*
X115346498Y-61599458D01*
X115292842Y-61645951D01*
X115218404Y-61655384D01*
X115153373Y-61643800D01*
X115153367Y-61643799D01*
X115148284Y-61642894D01*
X115074452Y-61641992D01*
X114930081Y-61640228D01*
X114930079Y-61640228D01*
X114924911Y-61640165D01*
X114704091Y-61673955D01*
X114491756Y-61743357D01*
X114421800Y-61779774D01*
X114394626Y-61793920D01*
X114293607Y-61846507D01*
X114289474Y-61849610D01*
X114289471Y-61849612D01*
X114119100Y-61977530D01*
X114114965Y-61980635D01*
X113960629Y-62142138D01*
X113853204Y-62299618D01*
X113852898Y-62300066D01*
X113797987Y-62345069D01*
X113727462Y-62353240D01*
X113663715Y-62321986D01*
X113643018Y-62297502D01*
X113562426Y-62172926D01*
X113556136Y-62164757D01*
X113412806Y-62007240D01*
X113405273Y-62000215D01*
X113238139Y-61868222D01*
X113229552Y-61862517D01*
X113043117Y-61759599D01*
X113033705Y-61755369D01*
X112832959Y-61684280D01*
X112822988Y-61681646D01*
X112751837Y-61668972D01*
X112738540Y-61670432D01*
X112734000Y-61684989D01*
X112734000Y-63128000D01*
X112713998Y-63196121D01*
X112660342Y-63242614D01*
X112608000Y-63254000D01*
X112352000Y-63254000D01*
X112283879Y-63233998D01*
X112237386Y-63180342D01*
X112226000Y-63128000D01*
X112226000Y-61683102D01*
X112222082Y-61669758D01*
X112207806Y-61667771D01*
X112169324Y-61673660D01*
X112159284Y-61676052D01*
X112048644Y-61712214D01*
X111977680Y-61714365D01*
X111916819Y-61677808D01*
X111885383Y-61614151D01*
X111883500Y-61592449D01*
X111883500Y-61309500D01*
X111903502Y-61241379D01*
X111957158Y-61194886D01*
X112009500Y-61183500D01*
X112406502Y-61183500D01*
X112408950Y-61183307D01*
X112408958Y-61183307D01*
X112437421Y-61181067D01*
X112437426Y-61181066D01*
X112443831Y-61180562D01*
X112543769Y-61151528D01*
X112595988Y-61136357D01*
X112595990Y-61136356D01*
X112603601Y-61134145D01*
X112746807Y-61049453D01*
X112749747Y-61046513D01*
X112814271Y-61021179D01*
X112883894Y-61035080D01*
X112902640Y-61047129D01*
X112910323Y-61053089D01*
X113039779Y-61129648D01*
X113054210Y-61135893D01*
X113188605Y-61174939D01*
X113202706Y-61174899D01*
X113206000Y-61167630D01*
X113206000Y-58238122D01*
X113202027Y-58224591D01*
X113194129Y-58223456D01*
X113054210Y-58264107D01*
X113039779Y-58270352D01*
X112910323Y-58346911D01*
X112902640Y-58352871D01*
X112836556Y-58378820D01*
X112766933Y-58364922D01*
X112750840Y-58354580D01*
X112746807Y-58350547D01*
X112744276Y-58349050D01*
X112704010Y-58293293D01*
X112700160Y-58222401D01*
X112733708Y-58162196D01*
X114625499Y-56270405D01*
X114687811Y-56236379D01*
X114714594Y-56233500D01*
X114946502Y-56233500D01*
X114948950Y-56233307D01*
X114948958Y-56233307D01*
X114977421Y-56231067D01*
X114977426Y-56231066D01*
X114983831Y-56230562D01*
X115135017Y-56186639D01*
X115135988Y-56186357D01*
X115135990Y-56186356D01*
X115143601Y-56184145D01*
X115286807Y-56099453D01*
X115289489Y-56096771D01*
X115353861Y-56071498D01*
X115423484Y-56085400D01*
X115439312Y-56095572D01*
X115443193Y-56099453D01*
X115586399Y-56184145D01*
X115594010Y-56186356D01*
X115594012Y-56186357D01*
X115594983Y-56186639D01*
X115746169Y-56230562D01*
X115752574Y-56231066D01*
X115752579Y-56231067D01*
X115781042Y-56233307D01*
X115781050Y-56233307D01*
X115783498Y-56233500D01*
X116216502Y-56233500D01*
X116218950Y-56233307D01*
X116218958Y-56233307D01*
X116247421Y-56231067D01*
X116247426Y-56231066D01*
X116253831Y-56230562D01*
X116405017Y-56186639D01*
X116405988Y-56186357D01*
X116405990Y-56186356D01*
X116413601Y-56184145D01*
X116473850Y-56148514D01*
X116549980Y-56103491D01*
X116549983Y-56103489D01*
X116556807Y-56099453D01*
X116674453Y-55981807D01*
X116678489Y-55974983D01*
X116678491Y-55974980D01*
X116755108Y-55845427D01*
X116759145Y-55838601D01*
X116763627Y-55823176D01*
X116787764Y-55740093D01*
X116805562Y-55678831D01*
X116806135Y-55671562D01*
X116808307Y-55643958D01*
X116808307Y-55643950D01*
X116808500Y-55641502D01*
X116808500Y-54364594D01*
X116828502Y-54296473D01*
X116845405Y-54275499D01*
X116869074Y-54251830D01*
X116931386Y-54217804D01*
X117002201Y-54222869D01*
G37*
%TD.AperFunction*%
%TA.AperFunction,Conductor*%
G36*
X117099142Y-50528502D02*
G01*
X117145635Y-50582158D01*
X117155739Y-50652432D01*
X117150854Y-50673436D01*
X117106458Y-50810072D01*
X117105768Y-50816633D01*
X117105768Y-50816635D01*
X117098017Y-50890387D01*
X117086496Y-51000000D01*
X117087186Y-51006565D01*
X117101866Y-51146233D01*
X117106458Y-51189928D01*
X117165473Y-51371556D01*
X117182244Y-51400603D01*
X117198981Y-51469596D01*
X117172575Y-51540167D01*
X117170448Y-51542298D01*
X117151151Y-51573604D01*
X117090352Y-51672238D01*
X117080698Y-51687899D01*
X117026851Y-51850243D01*
X117026151Y-51857080D01*
X117026150Y-51857082D01*
X117022408Y-51893602D01*
X117016500Y-51951268D01*
X117016500Y-52260405D01*
X116996498Y-52328526D01*
X116979595Y-52349501D01*
X116099499Y-53229596D01*
X116037187Y-53263621D01*
X116010404Y-53266500D01*
X115783498Y-53266500D01*
X115781050Y-53266693D01*
X115781042Y-53266693D01*
X115752579Y-53268933D01*
X115752574Y-53268934D01*
X115746169Y-53269438D01*
X115681858Y-53288122D01*
X115594012Y-53313643D01*
X115594010Y-53313644D01*
X115586399Y-53315855D01*
X115443193Y-53400547D01*
X115440511Y-53403229D01*
X115376139Y-53428502D01*
X115306516Y-53414600D01*
X115290688Y-53404428D01*
X115286807Y-53400547D01*
X115143601Y-53315855D01*
X115135990Y-53313644D01*
X115135988Y-53313643D01*
X115048142Y-53288122D01*
X114983831Y-53269438D01*
X114977426Y-53268934D01*
X114977421Y-53268933D01*
X114948958Y-53266693D01*
X114948950Y-53266693D01*
X114946502Y-53266500D01*
X114513498Y-53266500D01*
X114511050Y-53266693D01*
X114511042Y-53266693D01*
X114482579Y-53268933D01*
X114482574Y-53268934D01*
X114476169Y-53269438D01*
X114411858Y-53288122D01*
X114324012Y-53313643D01*
X114324010Y-53313644D01*
X114316399Y-53315855D01*
X114173193Y-53400547D01*
X114170511Y-53403229D01*
X114106139Y-53428502D01*
X114036516Y-53414600D01*
X114020688Y-53404428D01*
X114016807Y-53400547D01*
X113873601Y-53315855D01*
X113865990Y-53313644D01*
X113865988Y-53313643D01*
X113778142Y-53288122D01*
X113713831Y-53269438D01*
X113707426Y-53268934D01*
X113707421Y-53268933D01*
X113678958Y-53266693D01*
X113678950Y-53266693D01*
X113676502Y-53266500D01*
X113243498Y-53266500D01*
X113241050Y-53266693D01*
X113241042Y-53266693D01*
X113212579Y-53268933D01*
X113212574Y-53268934D01*
X113206169Y-53269438D01*
X113141858Y-53288122D01*
X113054012Y-53313643D01*
X113054010Y-53313644D01*
X113046399Y-53315855D01*
X112903193Y-53400547D01*
X112900253Y-53403487D01*
X112835729Y-53428821D01*
X112766106Y-53414920D01*
X112747360Y-53402871D01*
X112739677Y-53396911D01*
X112610221Y-53320352D01*
X112595790Y-53314107D01*
X112461395Y-53275061D01*
X112447294Y-53275101D01*
X112444000Y-53282370D01*
X112444000Y-54878000D01*
X112423998Y-54946121D01*
X112370342Y-54992614D01*
X112318000Y-55004000D01*
X111400116Y-55004000D01*
X111367457Y-55013589D01*
X111337039Y-55033138D01*
X111266043Y-55033138D01*
X111206317Y-54994755D01*
X111181308Y-54949924D01*
X111175472Y-54931301D01*
X111086639Y-54784619D01*
X110965381Y-54663361D01*
X110818699Y-54574528D01*
X110811452Y-54572257D01*
X110811450Y-54572256D01*
X110745164Y-54551483D01*
X110655062Y-54523247D01*
X110581635Y-54516500D01*
X110578737Y-54516500D01*
X110249140Y-54516501D01*
X109918366Y-54516501D01*
X109915508Y-54516764D01*
X109915499Y-54516764D01*
X109879996Y-54520026D01*
X109844938Y-54523247D01*
X109838560Y-54525246D01*
X109838559Y-54525246D01*
X109688550Y-54572256D01*
X109688548Y-54572257D01*
X109681301Y-54574528D01*
X109534619Y-54663361D01*
X109413361Y-54784619D01*
X109324528Y-54931301D01*
X109319884Y-54946121D01*
X109306703Y-54988180D01*
X109267245Y-55047202D01*
X109202141Y-55075522D01*
X109186469Y-55076500D01*
X108686805Y-55076500D01*
X108618684Y-55056498D01*
X108581013Y-55018940D01*
X108492822Y-54882617D01*
X108492820Y-54882614D01*
X108490014Y-54878277D01*
X108339670Y-54713051D01*
X108335619Y-54709852D01*
X108335615Y-54709848D01*
X108168414Y-54577800D01*
X108168410Y-54577798D01*
X108164359Y-54574598D01*
X107989163Y-54477885D01*
X111382000Y-54477885D01*
X111386475Y-54493124D01*
X111387865Y-54494329D01*
X111395548Y-54496000D01*
X111917885Y-54496000D01*
X111933124Y-54491525D01*
X111934329Y-54490135D01*
X111936000Y-54482452D01*
X111936000Y-53288122D01*
X111932027Y-53274591D01*
X111924129Y-53273456D01*
X111784210Y-53314107D01*
X111769779Y-53320352D01*
X111640322Y-53396911D01*
X111627896Y-53406551D01*
X111521551Y-53512896D01*
X111511911Y-53525322D01*
X111435352Y-53654779D01*
X111429107Y-53669210D01*
X111386731Y-53815065D01*
X111384430Y-53827667D01*
X111382193Y-53856084D01*
X111382000Y-53861014D01*
X111382000Y-54477885D01*
X107989163Y-54477885D01*
X107968789Y-54466638D01*
X107963920Y-54464914D01*
X107963916Y-54464912D01*
X107763087Y-54393795D01*
X107763083Y-54393794D01*
X107758212Y-54392069D01*
X107753119Y-54391162D01*
X107753116Y-54391161D01*
X107543373Y-54353800D01*
X107543367Y-54353799D01*
X107538284Y-54352894D01*
X107464452Y-54351992D01*
X107320081Y-54350228D01*
X107320079Y-54350228D01*
X107314911Y-54350165D01*
X107094091Y-54383955D01*
X106881756Y-54453357D01*
X106683607Y-54556507D01*
X106679474Y-54559610D01*
X106679471Y-54559612D01*
X106530915Y-54671151D01*
X106504965Y-54690635D01*
X106350629Y-54852138D01*
X106224743Y-55036680D01*
X106130688Y-55239305D01*
X106070989Y-55454570D01*
X106047251Y-55676695D01*
X106047548Y-55681848D01*
X106047548Y-55681851D01*
X106057279Y-55850615D01*
X106060110Y-55899715D01*
X106061247Y-55904761D01*
X106061248Y-55904767D01*
X106081161Y-55993124D01*
X106109222Y-56117639D01*
X106111164Y-56122421D01*
X106111165Y-56122425D01*
X106131756Y-56173134D01*
X106168846Y-56264475D01*
X106170316Y-56268096D01*
X106177412Y-56338737D01*
X106145190Y-56402001D01*
X106083880Y-56437801D01*
X106053573Y-56441500D01*
X104114595Y-56441500D01*
X104046474Y-56421498D01*
X104025500Y-56404595D01*
X103395405Y-55774500D01*
X103361379Y-55712188D01*
X103358500Y-55685405D01*
X103358500Y-54376866D01*
X103351745Y-54314684D01*
X103300615Y-54178295D01*
X103213261Y-54061739D01*
X103096705Y-53974385D01*
X103045908Y-53955342D01*
X102978203Y-53929960D01*
X102921439Y-53887318D01*
X102896739Y-53820756D01*
X102911947Y-53751408D01*
X102933493Y-53722727D01*
X103034435Y-53622137D01*
X103038096Y-53618489D01*
X103097594Y-53535689D01*
X103165435Y-53441277D01*
X103168453Y-53437077D01*
X103172534Y-53428821D01*
X103265136Y-53241453D01*
X103265137Y-53241451D01*
X103267430Y-53236811D01*
X103330445Y-53029404D01*
X103330865Y-53028023D01*
X103330865Y-53028021D01*
X103332370Y-53023069D01*
X103361529Y-52801590D01*
X103363156Y-52735000D01*
X103344852Y-52512361D01*
X103290431Y-52295702D01*
X103201354Y-52090840D01*
X103135482Y-51989017D01*
X103082822Y-51907617D01*
X103082820Y-51907614D01*
X103080014Y-51903277D01*
X102929670Y-51738051D01*
X102925619Y-51734852D01*
X102925615Y-51734848D01*
X102758414Y-51602800D01*
X102758410Y-51602798D01*
X102754359Y-51599598D01*
X102739690Y-51591500D01*
X102661851Y-51548531D01*
X102558789Y-51491638D01*
X102553920Y-51489914D01*
X102553916Y-51489912D01*
X102353087Y-51418795D01*
X102353083Y-51418794D01*
X102348212Y-51417069D01*
X102343119Y-51416162D01*
X102343116Y-51416161D01*
X102133373Y-51378800D01*
X102133367Y-51378799D01*
X102128284Y-51377894D01*
X102054452Y-51376992D01*
X101910081Y-51375228D01*
X101910079Y-51375228D01*
X101904911Y-51375165D01*
X101684091Y-51408955D01*
X101471756Y-51478357D01*
X101441443Y-51494137D01*
X101323939Y-51555306D01*
X101273607Y-51581507D01*
X101269474Y-51584610D01*
X101269471Y-51584612D01*
X101099100Y-51712530D01*
X101094965Y-51715635D01*
X100940629Y-51877138D01*
X100814743Y-52061680D01*
X100812567Y-52066369D01*
X100812563Y-52066375D01*
X100748788Y-52203768D01*
X100701964Y-52257135D01*
X100633720Y-52276716D01*
X100565725Y-52256292D01*
X100519565Y-52202350D01*
X100508500Y-52150718D01*
X100508500Y-52053250D01*
X100510246Y-52032345D01*
X100512770Y-52017344D01*
X100512770Y-52017341D01*
X100513576Y-52012552D01*
X100513729Y-52000000D01*
X100513040Y-51995186D01*
X100513039Y-51995176D01*
X100512157Y-51989017D01*
X100511206Y-51962172D01*
X100518250Y-51863680D01*
X100523039Y-51796718D01*
X100525596Y-51778934D01*
X100566999Y-51588607D01*
X100572063Y-51571359D01*
X100640136Y-51388850D01*
X100647604Y-51372498D01*
X100740952Y-51201542D01*
X100750672Y-51186418D01*
X100867402Y-51030486D01*
X100879175Y-51016900D01*
X101016900Y-50879175D01*
X101030486Y-50867402D01*
X101186418Y-50750672D01*
X101201542Y-50740952D01*
X101372498Y-50647604D01*
X101388850Y-50640136D01*
X101571359Y-50572063D01*
X101588608Y-50566999D01*
X101778936Y-50525596D01*
X101796715Y-50523039D01*
X101958605Y-50511460D01*
X101976565Y-50512207D01*
X101984845Y-50512308D01*
X101993724Y-50513691D01*
X102025286Y-50509564D01*
X102041621Y-50508500D01*
X117031021Y-50508500D01*
X117099142Y-50528502D01*
G37*
%TD.AperFunction*%
%TD*%
M02*
