%TF.GenerationSoftware,KiCad,Pcbnew,(6.0.7)*%
%TF.CreationDate,2023-01-15T17:04:05+01:00*%
%TF.ProjectId,I_CAN_has_carrot,495f4341-4e5f-4686-9173-5f636172726f,rev?*%
%TF.SameCoordinates,Original*%
%TF.FileFunction,Copper,L3,Inr*%
%TF.FilePolarity,Positive*%
%FSLAX46Y46*%
G04 Gerber Fmt 4.6, Leading zero omitted, Abs format (unit mm)*
G04 Created by KiCad (PCBNEW (6.0.7)) date 2023-01-15 17:04:05*
%MOMM*%
%LPD*%
G01*
G04 APERTURE LIST*
%TA.AperFunction,ComponentPad*%
%ADD10R,1.700000X1.700000*%
%TD*%
%TA.AperFunction,ComponentPad*%
%ADD11O,1.700000X1.700000*%
%TD*%
%TA.AperFunction,ViaPad*%
%ADD12C,0.800000*%
%TD*%
G04 APERTURE END LIST*
D10*
%TO.N,/CANTX*%
%TO.C,J4*%
X117560000Y-63000000D03*
D11*
%TO.N,/CANRX*%
X115020000Y-63000000D03*
%TO.N,GND*%
X112480000Y-63000000D03*
%TO.N,+5V*%
X109940000Y-63000000D03*
X107400000Y-63000000D03*
%TD*%
D10*
%TO.N,/CANTX*%
%TO.C,J2*%
X139000000Y-63000000D03*
D11*
%TO.N,/CANRX*%
X139000000Y-60460000D03*
%TO.N,unconnected-(J2-Pad3)*%
X136460000Y-63000000D03*
%TO.N,unconnected-(J2-Pad4)*%
X136460000Y-60460000D03*
%TO.N,unconnected-(J2-Pad5)*%
X133920000Y-63000000D03*
%TO.N,unconnected-(J2-Pad6)*%
X133920000Y-60460000D03*
%TO.N,unconnected-(J2-Pad7)*%
X131380000Y-63000000D03*
%TO.N,unconnected-(J2-Pad8)*%
X131380000Y-60460000D03*
%TO.N,unconnected-(J2-Pad9)*%
X128840000Y-63000000D03*
%TO.N,unconnected-(J2-Pad10)*%
X128840000Y-60460000D03*
%TO.N,unconnected-(J2-Pad11)*%
X126300000Y-63000000D03*
%TO.N,unconnected-(J2-Pad12)*%
X126300000Y-60460000D03*
%TO.N,GND*%
X123760000Y-63000000D03*
%TO.N,+5V*%
X123760000Y-60460000D03*
%TD*%
D10*
%TO.N,/CANL*%
%TO.C,J1*%
X107410000Y-58250000D03*
D11*
%TO.N,Net-(J1-Pad2)*%
X107410000Y-55710000D03*
%TD*%
D10*
%TO.N,/CANH*%
%TO.C,J3*%
X102000000Y-63000000D03*
D11*
%TO.N,/CANL*%
X102000000Y-60460000D03*
%TD*%
D10*
%TO.N,/CANH*%
%TO.C,J5*%
X102000000Y-55275000D03*
D11*
%TO.N,/CANL*%
X102000000Y-52735000D03*
%TD*%
D12*
%TO.N,+5V*%
X118000000Y-55000000D03*
X114750000Y-58000000D03*
X134000000Y-53500000D03*
%TO.N,GND*%
X120750000Y-57000000D03*
X131500000Y-57000000D03*
X132750000Y-56250000D03*
X119500000Y-55000000D03*
X112250000Y-52500000D03*
%TO.N,+3.3V*%
X131250000Y-54750000D03*
X121275000Y-52225000D03*
X118000000Y-51000000D03*
X123500000Y-53750000D03*
X119750000Y-51000000D03*
X123500000Y-55500000D03*
%TD*%
%TA.AperFunction,Conductor*%
%TO.N,+5V*%
G36*
X117099142Y-50528502D02*
G01*
X117145635Y-50582158D01*
X117155739Y-50652432D01*
X117150854Y-50673436D01*
X117106458Y-50810072D01*
X117105768Y-50816633D01*
X117105768Y-50816635D01*
X117098017Y-50890387D01*
X117086496Y-51000000D01*
X117106458Y-51189928D01*
X117165473Y-51371556D01*
X117168776Y-51377278D01*
X117168777Y-51377279D01*
X117198075Y-51428025D01*
X117260960Y-51536944D01*
X117265378Y-51541851D01*
X117265379Y-51541852D01*
X117317374Y-51599598D01*
X117388747Y-51678866D01*
X117435402Y-51712763D01*
X117526469Y-51778927D01*
X117543248Y-51791118D01*
X117549276Y-51793802D01*
X117549278Y-51793803D01*
X117711681Y-51866109D01*
X117717712Y-51868794D01*
X117811112Y-51888647D01*
X117898056Y-51907128D01*
X117898061Y-51907128D01*
X117904513Y-51908500D01*
X118095487Y-51908500D01*
X118101939Y-51907128D01*
X118101944Y-51907128D01*
X118188888Y-51888647D01*
X118282288Y-51868794D01*
X118288319Y-51866109D01*
X118450722Y-51793803D01*
X118450724Y-51793802D01*
X118456752Y-51791118D01*
X118473532Y-51778927D01*
X118564598Y-51712763D01*
X118611253Y-51678866D01*
X118682626Y-51599598D01*
X118734621Y-51541852D01*
X118734622Y-51541851D01*
X118739040Y-51536944D01*
X118765881Y-51490454D01*
X118817263Y-51441461D01*
X118886977Y-51428025D01*
X118952888Y-51454411D01*
X118984119Y-51490454D01*
X119010960Y-51536944D01*
X119015378Y-51541851D01*
X119015379Y-51541852D01*
X119067374Y-51599598D01*
X119138747Y-51678866D01*
X119185402Y-51712763D01*
X119276469Y-51778927D01*
X119293248Y-51791118D01*
X119299276Y-51793802D01*
X119299278Y-51793803D01*
X119461681Y-51866109D01*
X119467712Y-51868794D01*
X119561112Y-51888647D01*
X119648056Y-51907128D01*
X119648061Y-51907128D01*
X119654513Y-51908500D01*
X119845487Y-51908500D01*
X119851939Y-51907128D01*
X119851944Y-51907128D01*
X119938888Y-51888647D01*
X120032288Y-51868794D01*
X120038319Y-51866109D01*
X120200722Y-51793803D01*
X120200724Y-51793802D01*
X120206752Y-51791118D01*
X120225477Y-51777513D01*
X120292342Y-51753654D01*
X120361494Y-51769732D01*
X120410976Y-51820645D01*
X120425077Y-51890227D01*
X120419372Y-51918384D01*
X120400766Y-51975648D01*
X120381458Y-52035072D01*
X120380768Y-52041633D01*
X120380768Y-52041635D01*
X120375097Y-52095590D01*
X120361496Y-52225000D01*
X120362186Y-52231565D01*
X120366932Y-52276716D01*
X120381458Y-52414928D01*
X120440473Y-52596556D01*
X120535960Y-52761944D01*
X120540378Y-52766851D01*
X120540379Y-52766852D01*
X120643344Y-52881206D01*
X120663747Y-52903866D01*
X120818248Y-53016118D01*
X120824276Y-53018802D01*
X120824278Y-53018803D01*
X120986681Y-53091109D01*
X120992712Y-53093794D01*
X121086112Y-53113647D01*
X121173056Y-53132128D01*
X121173061Y-53132128D01*
X121179513Y-53133500D01*
X121370487Y-53133500D01*
X121376939Y-53132128D01*
X121376944Y-53132128D01*
X121463887Y-53113647D01*
X121557288Y-53093794D01*
X121563319Y-53091109D01*
X121725722Y-53018803D01*
X121725724Y-53018802D01*
X121731752Y-53016118D01*
X121886253Y-52903866D01*
X121906656Y-52881206D01*
X122009621Y-52766852D01*
X122009622Y-52766851D01*
X122014040Y-52761944D01*
X122109527Y-52596556D01*
X122168542Y-52414928D01*
X122183069Y-52276716D01*
X122187814Y-52231565D01*
X122188504Y-52225000D01*
X122174903Y-52095590D01*
X122169232Y-52041635D01*
X122169232Y-52041633D01*
X122168542Y-52035072D01*
X122109527Y-51853444D01*
X122090591Y-51820645D01*
X122071302Y-51787237D01*
X122014040Y-51688056D01*
X122001344Y-51673955D01*
X121890675Y-51551045D01*
X121890674Y-51551044D01*
X121886253Y-51546134D01*
X121731752Y-51433882D01*
X121725724Y-51431198D01*
X121725722Y-51431197D01*
X121563319Y-51358891D01*
X121563318Y-51358891D01*
X121557288Y-51356206D01*
X121456454Y-51334773D01*
X121376944Y-51317872D01*
X121376939Y-51317872D01*
X121370487Y-51316500D01*
X121179513Y-51316500D01*
X121173061Y-51317872D01*
X121173056Y-51317872D01*
X121093546Y-51334773D01*
X120992712Y-51356206D01*
X120986682Y-51358891D01*
X120986681Y-51358891D01*
X120824278Y-51431197D01*
X120824276Y-51431198D01*
X120818248Y-51433882D01*
X120799523Y-51447487D01*
X120732658Y-51471346D01*
X120663506Y-51455268D01*
X120614024Y-51404355D01*
X120599923Y-51334773D01*
X120605628Y-51306616D01*
X120641502Y-51196206D01*
X120643542Y-51189928D01*
X120663504Y-51000000D01*
X120651983Y-50890387D01*
X120644232Y-50816635D01*
X120644232Y-50816633D01*
X120643542Y-50810072D01*
X120599146Y-50673436D01*
X120597118Y-50602469D01*
X120633781Y-50541671D01*
X120697493Y-50510345D01*
X120718979Y-50508500D01*
X133950633Y-50508500D01*
X133970018Y-50510000D01*
X133984851Y-50512310D01*
X133984855Y-50512310D01*
X133993724Y-50513691D01*
X134011720Y-50511338D01*
X134035116Y-50510472D01*
X134271898Y-50523769D01*
X134285930Y-50525350D01*
X134416685Y-50547567D01*
X134547435Y-50569782D01*
X134561210Y-50572926D01*
X134639356Y-50595439D01*
X134816100Y-50646359D01*
X134829421Y-50651020D01*
X135074488Y-50752530D01*
X135087211Y-50758657D01*
X135168880Y-50803794D01*
X135319362Y-50886963D01*
X135331325Y-50894480D01*
X135547655Y-51047974D01*
X135558702Y-51056784D01*
X135730081Y-51209937D01*
X135747862Y-51229558D01*
X135748350Y-51230226D01*
X135748353Y-51230229D01*
X135753648Y-51237477D01*
X135760765Y-51242948D01*
X135760769Y-51242952D01*
X135778894Y-51256885D01*
X135791198Y-51267685D01*
X140726848Y-56203336D01*
X140739491Y-56218098D01*
X140753648Y-56237477D01*
X140760765Y-56242948D01*
X140760767Y-56242950D01*
X140768039Y-56248540D01*
X140785193Y-56264471D01*
X140943222Y-56441305D01*
X140952020Y-56452337D01*
X141105525Y-56668682D01*
X141113032Y-56680631D01*
X141237015Y-56904960D01*
X141241340Y-56912785D01*
X141247469Y-56925512D01*
X141348979Y-57170579D01*
X141353640Y-57183900D01*
X141355377Y-57189928D01*
X141427073Y-57438790D01*
X141430217Y-57452565D01*
X141474648Y-57714065D01*
X141476230Y-57728102D01*
X141486361Y-57908500D01*
X141489118Y-57957599D01*
X141487815Y-57984050D01*
X141486309Y-57993724D01*
X141487473Y-58002626D01*
X141487473Y-58002628D01*
X141490436Y-58025283D01*
X141491500Y-58041621D01*
X141491500Y-63950633D01*
X141490000Y-63970018D01*
X141487690Y-63984851D01*
X141487690Y-63984855D01*
X141486309Y-63993724D01*
X141488304Y-64008976D01*
X141489047Y-64034302D01*
X141479493Y-64167892D01*
X141476962Y-64203279D01*
X141474404Y-64221064D01*
X141433001Y-64411392D01*
X141427937Y-64428641D01*
X141359864Y-64611150D01*
X141352396Y-64627502D01*
X141259048Y-64798458D01*
X141249328Y-64813582D01*
X141132598Y-64969514D01*
X141120825Y-64983100D01*
X140983100Y-65120825D01*
X140969514Y-65132598D01*
X140813582Y-65249328D01*
X140798458Y-65259048D01*
X140627502Y-65352396D01*
X140611150Y-65359864D01*
X140428641Y-65427937D01*
X140411393Y-65433001D01*
X140221064Y-65474404D01*
X140203285Y-65476961D01*
X140041395Y-65488540D01*
X140023435Y-65487793D01*
X140015155Y-65487692D01*
X140006276Y-65486309D01*
X139974714Y-65490436D01*
X139958379Y-65491500D01*
X102049367Y-65491500D01*
X102029982Y-65490000D01*
X102015149Y-65487690D01*
X102015145Y-65487690D01*
X102006276Y-65486309D01*
X101991019Y-65488304D01*
X101965698Y-65489047D01*
X101796715Y-65476961D01*
X101778936Y-65474404D01*
X101588607Y-65433001D01*
X101571359Y-65427937D01*
X101388850Y-65359864D01*
X101372498Y-65352396D01*
X101201542Y-65259048D01*
X101186418Y-65249328D01*
X101030486Y-65132598D01*
X101016900Y-65120825D01*
X100879175Y-64983100D01*
X100867402Y-64969514D01*
X100750672Y-64813582D01*
X100740952Y-64798458D01*
X100647604Y-64627502D01*
X100640136Y-64611150D01*
X100572063Y-64428641D01*
X100566999Y-64411392D01*
X100539361Y-64284343D01*
X100544425Y-64213529D01*
X100586972Y-64156693D01*
X100653492Y-64131882D01*
X100722866Y-64146973D01*
X100763307Y-64181996D01*
X100786739Y-64213261D01*
X100903295Y-64300615D01*
X101039684Y-64351745D01*
X101101866Y-64358500D01*
X102898134Y-64358500D01*
X102960316Y-64351745D01*
X103096705Y-64300615D01*
X103213261Y-64213261D01*
X103300615Y-64096705D01*
X103351745Y-63960316D01*
X103358500Y-63898134D01*
X103358500Y-63267966D01*
X106068257Y-63267966D01*
X106098565Y-63402446D01*
X106101645Y-63412275D01*
X106181770Y-63609603D01*
X106186413Y-63618794D01*
X106297694Y-63800388D01*
X106303777Y-63808699D01*
X106443213Y-63969667D01*
X106450580Y-63976883D01*
X106614434Y-64112916D01*
X106622881Y-64118831D01*
X106806756Y-64226279D01*
X106816042Y-64230729D01*
X107015001Y-64306703D01*
X107024899Y-64309579D01*
X107128250Y-64330606D01*
X107142299Y-64329410D01*
X107146000Y-64319065D01*
X107146000Y-64318517D01*
X107654000Y-64318517D01*
X107658064Y-64332359D01*
X107671478Y-64334393D01*
X107678184Y-64333534D01*
X107688262Y-64331392D01*
X107892255Y-64270191D01*
X107901842Y-64266433D01*
X108093095Y-64172739D01*
X108101945Y-64167464D01*
X108275328Y-64043792D01*
X108283200Y-64037139D01*
X108434052Y-63886812D01*
X108440730Y-63878965D01*
X108568022Y-63701819D01*
X108569147Y-63702627D01*
X108616669Y-63658876D01*
X108686607Y-63646661D01*
X108752046Y-63674197D01*
X108779870Y-63706028D01*
X108837690Y-63800383D01*
X108843777Y-63808699D01*
X108983213Y-63969667D01*
X108990580Y-63976883D01*
X109154434Y-64112916D01*
X109162881Y-64118831D01*
X109346756Y-64226279D01*
X109356042Y-64230729D01*
X109555001Y-64306703D01*
X109564899Y-64309579D01*
X109668250Y-64330606D01*
X109682299Y-64329410D01*
X109686000Y-64319065D01*
X109686000Y-64318517D01*
X110194000Y-64318517D01*
X110198064Y-64332359D01*
X110211478Y-64334393D01*
X110218184Y-64333534D01*
X110228262Y-64331392D01*
X110432255Y-64270191D01*
X110441842Y-64266433D01*
X110633095Y-64172739D01*
X110641945Y-64167464D01*
X110815328Y-64043792D01*
X110823200Y-64037139D01*
X110974052Y-63886812D01*
X110980730Y-63878965D01*
X111108022Y-63701819D01*
X111109279Y-63702722D01*
X111156373Y-63659362D01*
X111226311Y-63647145D01*
X111291751Y-63674678D01*
X111319579Y-63706511D01*
X111379987Y-63805088D01*
X111526250Y-63973938D01*
X111698126Y-64116632D01*
X111891000Y-64229338D01*
X112099692Y-64309030D01*
X112104760Y-64310061D01*
X112104763Y-64310062D01*
X112199862Y-64329410D01*
X112318597Y-64353567D01*
X112323772Y-64353757D01*
X112323774Y-64353757D01*
X112536673Y-64361564D01*
X112536677Y-64361564D01*
X112541837Y-64361753D01*
X112546957Y-64361097D01*
X112546959Y-64361097D01*
X112758288Y-64334025D01*
X112758289Y-64334025D01*
X112763416Y-64333368D01*
X112768366Y-64331883D01*
X112972429Y-64270661D01*
X112972434Y-64270659D01*
X112977384Y-64269174D01*
X113177994Y-64170896D01*
X113359860Y-64041173D01*
X113518096Y-63883489D01*
X113577594Y-63800689D01*
X113648453Y-63702077D01*
X113649776Y-63703028D01*
X113696645Y-63659857D01*
X113766580Y-63647625D01*
X113832026Y-63675144D01*
X113859875Y-63706994D01*
X113919987Y-63805088D01*
X114066250Y-63973938D01*
X114238126Y-64116632D01*
X114431000Y-64229338D01*
X114639692Y-64309030D01*
X114644760Y-64310061D01*
X114644763Y-64310062D01*
X114739862Y-64329410D01*
X114858597Y-64353567D01*
X114863772Y-64353757D01*
X114863774Y-64353757D01*
X115076673Y-64361564D01*
X115076677Y-64361564D01*
X115081837Y-64361753D01*
X115086957Y-64361097D01*
X115086959Y-64361097D01*
X115298288Y-64334025D01*
X115298289Y-64334025D01*
X115303416Y-64333368D01*
X115308366Y-64331883D01*
X115512429Y-64270661D01*
X115512434Y-64270659D01*
X115517384Y-64269174D01*
X115717994Y-64170896D01*
X115899860Y-64041173D01*
X116008091Y-63933319D01*
X116070462Y-63899404D01*
X116141268Y-63904592D01*
X116198030Y-63947238D01*
X116215012Y-63978341D01*
X116235992Y-64034305D01*
X116259385Y-64096705D01*
X116346739Y-64213261D01*
X116463295Y-64300615D01*
X116599684Y-64351745D01*
X116661866Y-64358500D01*
X118458134Y-64358500D01*
X118520316Y-64351745D01*
X118656705Y-64300615D01*
X118773261Y-64213261D01*
X118860615Y-64096705D01*
X118911745Y-63960316D01*
X118918500Y-63898134D01*
X118918500Y-62966695D01*
X122397251Y-62966695D01*
X122410110Y-63189715D01*
X122411247Y-63194761D01*
X122411248Y-63194767D01*
X122425493Y-63257973D01*
X122459222Y-63407639D01*
X122543266Y-63614616D01*
X122580685Y-63675678D01*
X122657291Y-63800688D01*
X122659987Y-63805088D01*
X122806250Y-63973938D01*
X122978126Y-64116632D01*
X123171000Y-64229338D01*
X123379692Y-64309030D01*
X123384760Y-64310061D01*
X123384763Y-64310062D01*
X123479862Y-64329410D01*
X123598597Y-64353567D01*
X123603772Y-64353757D01*
X123603774Y-64353757D01*
X123816673Y-64361564D01*
X123816677Y-64361564D01*
X123821837Y-64361753D01*
X123826957Y-64361097D01*
X123826959Y-64361097D01*
X124038288Y-64334025D01*
X124038289Y-64334025D01*
X124043416Y-64333368D01*
X124048366Y-64331883D01*
X124252429Y-64270661D01*
X124252434Y-64270659D01*
X124257384Y-64269174D01*
X124457994Y-64170896D01*
X124639860Y-64041173D01*
X124798096Y-63883489D01*
X124857594Y-63800689D01*
X124928453Y-63702077D01*
X124929776Y-63703028D01*
X124976645Y-63659857D01*
X125046580Y-63647625D01*
X125112026Y-63675144D01*
X125139875Y-63706994D01*
X125199987Y-63805088D01*
X125346250Y-63973938D01*
X125518126Y-64116632D01*
X125711000Y-64229338D01*
X125919692Y-64309030D01*
X125924760Y-64310061D01*
X125924763Y-64310062D01*
X126019862Y-64329410D01*
X126138597Y-64353567D01*
X126143772Y-64353757D01*
X126143774Y-64353757D01*
X126356673Y-64361564D01*
X126356677Y-64361564D01*
X126361837Y-64361753D01*
X126366957Y-64361097D01*
X126366959Y-64361097D01*
X126578288Y-64334025D01*
X126578289Y-64334025D01*
X126583416Y-64333368D01*
X126588366Y-64331883D01*
X126792429Y-64270661D01*
X126792434Y-64270659D01*
X126797384Y-64269174D01*
X126997994Y-64170896D01*
X127179860Y-64041173D01*
X127338096Y-63883489D01*
X127397594Y-63800689D01*
X127468453Y-63702077D01*
X127469776Y-63703028D01*
X127516645Y-63659857D01*
X127586580Y-63647625D01*
X127652026Y-63675144D01*
X127679875Y-63706994D01*
X127739987Y-63805088D01*
X127886250Y-63973938D01*
X128058126Y-64116632D01*
X128251000Y-64229338D01*
X128459692Y-64309030D01*
X128464760Y-64310061D01*
X128464763Y-64310062D01*
X128559862Y-64329410D01*
X128678597Y-64353567D01*
X128683772Y-64353757D01*
X128683774Y-64353757D01*
X128896673Y-64361564D01*
X128896677Y-64361564D01*
X128901837Y-64361753D01*
X128906957Y-64361097D01*
X128906959Y-64361097D01*
X129118288Y-64334025D01*
X129118289Y-64334025D01*
X129123416Y-64333368D01*
X129128366Y-64331883D01*
X129332429Y-64270661D01*
X129332434Y-64270659D01*
X129337384Y-64269174D01*
X129537994Y-64170896D01*
X129719860Y-64041173D01*
X129878096Y-63883489D01*
X129937594Y-63800689D01*
X130008453Y-63702077D01*
X130009776Y-63703028D01*
X130056645Y-63659857D01*
X130126580Y-63647625D01*
X130192026Y-63675144D01*
X130219875Y-63706994D01*
X130279987Y-63805088D01*
X130426250Y-63973938D01*
X130598126Y-64116632D01*
X130791000Y-64229338D01*
X130999692Y-64309030D01*
X131004760Y-64310061D01*
X131004763Y-64310062D01*
X131099862Y-64329410D01*
X131218597Y-64353567D01*
X131223772Y-64353757D01*
X131223774Y-64353757D01*
X131436673Y-64361564D01*
X131436677Y-64361564D01*
X131441837Y-64361753D01*
X131446957Y-64361097D01*
X131446959Y-64361097D01*
X131658288Y-64334025D01*
X131658289Y-64334025D01*
X131663416Y-64333368D01*
X131668366Y-64331883D01*
X131872429Y-64270661D01*
X131872434Y-64270659D01*
X131877384Y-64269174D01*
X132077994Y-64170896D01*
X132259860Y-64041173D01*
X132418096Y-63883489D01*
X132477594Y-63800689D01*
X132548453Y-63702077D01*
X132549776Y-63703028D01*
X132596645Y-63659857D01*
X132666580Y-63647625D01*
X132732026Y-63675144D01*
X132759875Y-63706994D01*
X132819987Y-63805088D01*
X132966250Y-63973938D01*
X133138126Y-64116632D01*
X133331000Y-64229338D01*
X133539692Y-64309030D01*
X133544760Y-64310061D01*
X133544763Y-64310062D01*
X133639862Y-64329410D01*
X133758597Y-64353567D01*
X133763772Y-64353757D01*
X133763774Y-64353757D01*
X133976673Y-64361564D01*
X133976677Y-64361564D01*
X133981837Y-64361753D01*
X133986957Y-64361097D01*
X133986959Y-64361097D01*
X134198288Y-64334025D01*
X134198289Y-64334025D01*
X134203416Y-64333368D01*
X134208366Y-64331883D01*
X134412429Y-64270661D01*
X134412434Y-64270659D01*
X134417384Y-64269174D01*
X134617994Y-64170896D01*
X134799860Y-64041173D01*
X134958096Y-63883489D01*
X135017594Y-63800689D01*
X135088453Y-63702077D01*
X135089776Y-63703028D01*
X135136645Y-63659857D01*
X135206580Y-63647625D01*
X135272026Y-63675144D01*
X135299875Y-63706994D01*
X135359987Y-63805088D01*
X135506250Y-63973938D01*
X135678126Y-64116632D01*
X135871000Y-64229338D01*
X136079692Y-64309030D01*
X136084760Y-64310061D01*
X136084763Y-64310062D01*
X136179862Y-64329410D01*
X136298597Y-64353567D01*
X136303772Y-64353757D01*
X136303774Y-64353757D01*
X136516673Y-64361564D01*
X136516677Y-64361564D01*
X136521837Y-64361753D01*
X136526957Y-64361097D01*
X136526959Y-64361097D01*
X136738288Y-64334025D01*
X136738289Y-64334025D01*
X136743416Y-64333368D01*
X136748366Y-64331883D01*
X136952429Y-64270661D01*
X136952434Y-64270659D01*
X136957384Y-64269174D01*
X137157994Y-64170896D01*
X137339860Y-64041173D01*
X137448091Y-63933319D01*
X137510462Y-63899404D01*
X137581268Y-63904592D01*
X137638030Y-63947238D01*
X137655012Y-63978341D01*
X137675992Y-64034305D01*
X137699385Y-64096705D01*
X137786739Y-64213261D01*
X137903295Y-64300615D01*
X138039684Y-64351745D01*
X138101866Y-64358500D01*
X139898134Y-64358500D01*
X139960316Y-64351745D01*
X140096705Y-64300615D01*
X140213261Y-64213261D01*
X140300615Y-64096705D01*
X140351745Y-63960316D01*
X140358500Y-63898134D01*
X140358500Y-62101866D01*
X140351745Y-62039684D01*
X140300615Y-61903295D01*
X140213261Y-61786739D01*
X140096705Y-61699385D01*
X140058304Y-61684989D01*
X139978203Y-61654960D01*
X139921439Y-61612318D01*
X139896739Y-61545756D01*
X139911947Y-61476408D01*
X139933493Y-61447727D01*
X140034435Y-61347137D01*
X140038096Y-61343489D01*
X140097594Y-61260689D01*
X140165435Y-61166277D01*
X140168453Y-61162077D01*
X140181995Y-61134678D01*
X140265136Y-60966453D01*
X140265137Y-60966451D01*
X140267430Y-60961811D01*
X140332370Y-60748069D01*
X140361529Y-60526590D01*
X140363156Y-60460000D01*
X140344852Y-60237361D01*
X140290431Y-60020702D01*
X140201354Y-59815840D01*
X140080014Y-59628277D01*
X139929670Y-59463051D01*
X139925619Y-59459852D01*
X139925615Y-59459848D01*
X139758414Y-59327800D01*
X139758410Y-59327798D01*
X139754359Y-59324598D01*
X139718028Y-59304542D01*
X139702136Y-59295769D01*
X139558789Y-59216638D01*
X139553920Y-59214914D01*
X139553916Y-59214912D01*
X139353087Y-59143795D01*
X139353083Y-59143794D01*
X139348212Y-59142069D01*
X139343119Y-59141162D01*
X139343116Y-59141161D01*
X139133373Y-59103800D01*
X139133367Y-59103799D01*
X139128284Y-59102894D01*
X139054452Y-59101992D01*
X138910081Y-59100228D01*
X138910079Y-59100228D01*
X138904911Y-59100165D01*
X138684091Y-59133955D01*
X138471756Y-59203357D01*
X138273607Y-59306507D01*
X138269474Y-59309610D01*
X138269471Y-59309612D01*
X138220068Y-59346705D01*
X138094965Y-59440635D01*
X138076605Y-59459848D01*
X137989866Y-59550615D01*
X137940629Y-59602138D01*
X137833201Y-59759621D01*
X137778293Y-59804621D01*
X137707768Y-59812792D01*
X137644021Y-59781538D01*
X137623324Y-59757054D01*
X137542822Y-59632617D01*
X137542820Y-59632614D01*
X137540014Y-59628277D01*
X137389670Y-59463051D01*
X137385619Y-59459852D01*
X137385615Y-59459848D01*
X137218414Y-59327800D01*
X137218410Y-59327798D01*
X137214359Y-59324598D01*
X137178028Y-59304542D01*
X137162136Y-59295769D01*
X137018789Y-59216638D01*
X137013920Y-59214914D01*
X137013916Y-59214912D01*
X136813087Y-59143795D01*
X136813083Y-59143794D01*
X136808212Y-59142069D01*
X136803119Y-59141162D01*
X136803116Y-59141161D01*
X136593373Y-59103800D01*
X136593367Y-59103799D01*
X136588284Y-59102894D01*
X136514452Y-59101992D01*
X136370081Y-59100228D01*
X136370079Y-59100228D01*
X136364911Y-59100165D01*
X136144091Y-59133955D01*
X135931756Y-59203357D01*
X135733607Y-59306507D01*
X135729474Y-59309610D01*
X135729471Y-59309612D01*
X135680068Y-59346705D01*
X135554965Y-59440635D01*
X135536605Y-59459848D01*
X135449866Y-59550615D01*
X135400629Y-59602138D01*
X135293201Y-59759621D01*
X135238293Y-59804621D01*
X135167768Y-59812792D01*
X135104021Y-59781538D01*
X135083324Y-59757054D01*
X135002822Y-59632617D01*
X135002820Y-59632614D01*
X135000014Y-59628277D01*
X134849670Y-59463051D01*
X134845619Y-59459852D01*
X134845615Y-59459848D01*
X134678414Y-59327800D01*
X134678410Y-59327798D01*
X134674359Y-59324598D01*
X134638028Y-59304542D01*
X134622136Y-59295769D01*
X134478789Y-59216638D01*
X134473920Y-59214914D01*
X134473916Y-59214912D01*
X134273087Y-59143795D01*
X134273083Y-59143794D01*
X134268212Y-59142069D01*
X134263119Y-59141162D01*
X134263116Y-59141161D01*
X134053373Y-59103800D01*
X134053367Y-59103799D01*
X134048284Y-59102894D01*
X133974452Y-59101992D01*
X133830081Y-59100228D01*
X133830079Y-59100228D01*
X133824911Y-59100165D01*
X133604091Y-59133955D01*
X133391756Y-59203357D01*
X133193607Y-59306507D01*
X133189474Y-59309610D01*
X133189471Y-59309612D01*
X133140068Y-59346705D01*
X133014965Y-59440635D01*
X132996605Y-59459848D01*
X132909866Y-59550615D01*
X132860629Y-59602138D01*
X132753201Y-59759621D01*
X132698293Y-59804621D01*
X132627768Y-59812792D01*
X132564021Y-59781538D01*
X132543324Y-59757054D01*
X132462822Y-59632617D01*
X132462820Y-59632614D01*
X132460014Y-59628277D01*
X132309670Y-59463051D01*
X132305619Y-59459852D01*
X132305615Y-59459848D01*
X132138414Y-59327800D01*
X132138410Y-59327798D01*
X132134359Y-59324598D01*
X132098028Y-59304542D01*
X132082136Y-59295769D01*
X131938789Y-59216638D01*
X131933920Y-59214914D01*
X131933916Y-59214912D01*
X131733087Y-59143795D01*
X131733083Y-59143794D01*
X131728212Y-59142069D01*
X131723119Y-59141162D01*
X131723116Y-59141161D01*
X131513373Y-59103800D01*
X131513367Y-59103799D01*
X131508284Y-59102894D01*
X131434452Y-59101992D01*
X131290081Y-59100228D01*
X131290079Y-59100228D01*
X131284911Y-59100165D01*
X131064091Y-59133955D01*
X130851756Y-59203357D01*
X130653607Y-59306507D01*
X130649474Y-59309610D01*
X130649471Y-59309612D01*
X130600068Y-59346705D01*
X130474965Y-59440635D01*
X130456605Y-59459848D01*
X130369866Y-59550615D01*
X130320629Y-59602138D01*
X130213201Y-59759621D01*
X130158293Y-59804621D01*
X130087768Y-59812792D01*
X130024021Y-59781538D01*
X130003324Y-59757054D01*
X129922822Y-59632617D01*
X129922820Y-59632614D01*
X129920014Y-59628277D01*
X129769670Y-59463051D01*
X129765619Y-59459852D01*
X129765615Y-59459848D01*
X129598414Y-59327800D01*
X129598410Y-59327798D01*
X129594359Y-59324598D01*
X129558028Y-59304542D01*
X129542136Y-59295769D01*
X129398789Y-59216638D01*
X129393920Y-59214914D01*
X129393916Y-59214912D01*
X129193087Y-59143795D01*
X129193083Y-59143794D01*
X129188212Y-59142069D01*
X129183119Y-59141162D01*
X129183116Y-59141161D01*
X128973373Y-59103800D01*
X128973367Y-59103799D01*
X128968284Y-59102894D01*
X128894452Y-59101992D01*
X128750081Y-59100228D01*
X128750079Y-59100228D01*
X128744911Y-59100165D01*
X128524091Y-59133955D01*
X128311756Y-59203357D01*
X128113607Y-59306507D01*
X128109474Y-59309610D01*
X128109471Y-59309612D01*
X128060068Y-59346705D01*
X127934965Y-59440635D01*
X127916605Y-59459848D01*
X127829866Y-59550615D01*
X127780629Y-59602138D01*
X127673201Y-59759621D01*
X127618293Y-59804621D01*
X127547768Y-59812792D01*
X127484021Y-59781538D01*
X127463324Y-59757054D01*
X127382822Y-59632617D01*
X127382820Y-59632614D01*
X127380014Y-59628277D01*
X127229670Y-59463051D01*
X127225619Y-59459852D01*
X127225615Y-59459848D01*
X127058414Y-59327800D01*
X127058410Y-59327798D01*
X127054359Y-59324598D01*
X127018028Y-59304542D01*
X127002136Y-59295769D01*
X126858789Y-59216638D01*
X126853920Y-59214914D01*
X126853916Y-59214912D01*
X126653087Y-59143795D01*
X126653083Y-59143794D01*
X126648212Y-59142069D01*
X126643119Y-59141162D01*
X126643116Y-59141161D01*
X126433373Y-59103800D01*
X126433367Y-59103799D01*
X126428284Y-59102894D01*
X126354452Y-59101992D01*
X126210081Y-59100228D01*
X126210079Y-59100228D01*
X126204911Y-59100165D01*
X125984091Y-59133955D01*
X125771756Y-59203357D01*
X125573607Y-59306507D01*
X125569474Y-59309610D01*
X125569471Y-59309612D01*
X125520068Y-59346705D01*
X125394965Y-59440635D01*
X125376605Y-59459848D01*
X125289866Y-59550615D01*
X125240629Y-59602138D01*
X125237720Y-59606403D01*
X125237714Y-59606411D01*
X125236541Y-59608131D01*
X125133204Y-59759618D01*
X125132898Y-59760066D01*
X125077987Y-59805069D01*
X125007462Y-59813240D01*
X124943715Y-59781986D01*
X124923018Y-59757502D01*
X124842426Y-59632926D01*
X124836136Y-59624757D01*
X124692806Y-59467240D01*
X124685273Y-59460215D01*
X124518139Y-59328222D01*
X124509552Y-59322517D01*
X124323117Y-59219599D01*
X124313705Y-59215369D01*
X124112959Y-59144280D01*
X124102988Y-59141646D01*
X124031837Y-59128972D01*
X124018540Y-59130432D01*
X124014000Y-59144989D01*
X124014000Y-60588000D01*
X123993998Y-60656121D01*
X123940342Y-60702614D01*
X123888000Y-60714000D01*
X122443225Y-60714000D01*
X122429694Y-60717973D01*
X122428257Y-60727966D01*
X122458565Y-60862446D01*
X122461645Y-60872275D01*
X122541770Y-61069603D01*
X122546413Y-61078794D01*
X122657694Y-61260388D01*
X122663777Y-61268699D01*
X122803213Y-61429667D01*
X122810580Y-61436883D01*
X122974434Y-61572916D01*
X122982881Y-61578831D01*
X123051969Y-61619203D01*
X123100693Y-61670842D01*
X123113764Y-61740625D01*
X123087033Y-61806396D01*
X123046584Y-61839752D01*
X123033607Y-61846507D01*
X123029474Y-61849610D01*
X123029471Y-61849612D01*
X122859100Y-61977530D01*
X122854965Y-61980635D01*
X122829541Y-62007240D01*
X122761280Y-62078671D01*
X122700629Y-62142138D01*
X122697720Y-62146403D01*
X122697714Y-62146411D01*
X122685404Y-62164457D01*
X122574743Y-62326680D01*
X122480688Y-62529305D01*
X122420989Y-62744570D01*
X122397251Y-62966695D01*
X118918500Y-62966695D01*
X118918500Y-62101866D01*
X118911745Y-62039684D01*
X118860615Y-61903295D01*
X118773261Y-61786739D01*
X118656705Y-61699385D01*
X118520316Y-61648255D01*
X118458134Y-61641500D01*
X116661866Y-61641500D01*
X116599684Y-61648255D01*
X116463295Y-61699385D01*
X116346739Y-61786739D01*
X116259385Y-61903295D01*
X116256233Y-61911703D01*
X116214919Y-62021907D01*
X116172277Y-62078671D01*
X116105716Y-62103371D01*
X116036367Y-62088163D01*
X116003743Y-62062476D01*
X115953151Y-62006875D01*
X115953142Y-62006866D01*
X115949670Y-62003051D01*
X115945619Y-61999852D01*
X115945615Y-61999848D01*
X115778414Y-61867800D01*
X115778410Y-61867798D01*
X115774359Y-61864598D01*
X115757587Y-61855339D01*
X115669094Y-61806489D01*
X115578789Y-61756638D01*
X115573920Y-61754914D01*
X115573916Y-61754912D01*
X115373087Y-61683795D01*
X115373083Y-61683794D01*
X115368212Y-61682069D01*
X115363119Y-61681162D01*
X115363116Y-61681161D01*
X115153373Y-61643800D01*
X115153367Y-61643799D01*
X115148284Y-61642894D01*
X115074452Y-61641992D01*
X114930081Y-61640228D01*
X114930079Y-61640228D01*
X114924911Y-61640165D01*
X114704091Y-61673955D01*
X114491756Y-61743357D01*
X114421800Y-61779774D01*
X114303170Y-61841529D01*
X114293607Y-61846507D01*
X114289474Y-61849610D01*
X114289471Y-61849612D01*
X114119100Y-61977530D01*
X114114965Y-61980635D01*
X114089541Y-62007240D01*
X114021280Y-62078671D01*
X113960629Y-62142138D01*
X113853201Y-62299621D01*
X113798293Y-62344621D01*
X113727768Y-62352792D01*
X113664021Y-62321538D01*
X113643324Y-62297054D01*
X113562822Y-62172617D01*
X113562820Y-62172614D01*
X113560014Y-62168277D01*
X113409670Y-62003051D01*
X113405619Y-61999852D01*
X113405615Y-61999848D01*
X113238414Y-61867800D01*
X113238410Y-61867798D01*
X113234359Y-61864598D01*
X113217587Y-61855339D01*
X113129094Y-61806489D01*
X113038789Y-61756638D01*
X113033920Y-61754914D01*
X113033916Y-61754912D01*
X112833087Y-61683795D01*
X112833083Y-61683794D01*
X112828212Y-61682069D01*
X112823119Y-61681162D01*
X112823116Y-61681161D01*
X112613373Y-61643800D01*
X112613367Y-61643799D01*
X112608284Y-61642894D01*
X112534452Y-61641992D01*
X112390081Y-61640228D01*
X112390079Y-61640228D01*
X112384911Y-61640165D01*
X112164091Y-61673955D01*
X111951756Y-61743357D01*
X111881800Y-61779774D01*
X111763170Y-61841529D01*
X111753607Y-61846507D01*
X111749474Y-61849610D01*
X111749471Y-61849612D01*
X111579100Y-61977530D01*
X111574965Y-61980635D01*
X111549541Y-62007240D01*
X111481280Y-62078671D01*
X111420629Y-62142138D01*
X111417720Y-62146403D01*
X111417714Y-62146411D01*
X111405404Y-62164457D01*
X111313204Y-62299618D01*
X111312898Y-62300066D01*
X111257987Y-62345069D01*
X111187462Y-62353240D01*
X111123715Y-62321986D01*
X111103018Y-62297502D01*
X111022426Y-62172926D01*
X111016136Y-62164757D01*
X110872806Y-62007240D01*
X110865273Y-62000215D01*
X110698139Y-61868222D01*
X110689552Y-61862517D01*
X110503117Y-61759599D01*
X110493705Y-61755369D01*
X110292959Y-61684280D01*
X110282988Y-61681646D01*
X110211837Y-61668972D01*
X110198540Y-61670432D01*
X110194000Y-61684989D01*
X110194000Y-64318517D01*
X109686000Y-64318517D01*
X109686000Y-63272115D01*
X109681525Y-63256876D01*
X109680135Y-63255671D01*
X109672452Y-63254000D01*
X107672115Y-63254000D01*
X107656876Y-63258475D01*
X107655671Y-63259865D01*
X107654000Y-63267548D01*
X107654000Y-64318517D01*
X107146000Y-64318517D01*
X107146000Y-63272115D01*
X107141525Y-63256876D01*
X107140135Y-63255671D01*
X107132452Y-63254000D01*
X106083225Y-63254000D01*
X106069694Y-63257973D01*
X106068257Y-63267966D01*
X103358500Y-63267966D01*
X103358500Y-62734183D01*
X106064389Y-62734183D01*
X106065912Y-62742607D01*
X106078292Y-62746000D01*
X107127885Y-62746000D01*
X107143124Y-62741525D01*
X107144329Y-62740135D01*
X107146000Y-62732452D01*
X107146000Y-62727885D01*
X107654000Y-62727885D01*
X107658475Y-62743124D01*
X107659865Y-62744329D01*
X107667548Y-62746000D01*
X109667885Y-62746000D01*
X109683124Y-62741525D01*
X109684329Y-62740135D01*
X109686000Y-62732452D01*
X109686000Y-61683102D01*
X109682082Y-61669758D01*
X109667806Y-61667771D01*
X109629324Y-61673660D01*
X109619288Y-61676051D01*
X109416868Y-61742212D01*
X109407359Y-61746209D01*
X109218463Y-61844542D01*
X109209738Y-61850036D01*
X109039433Y-61977905D01*
X109031726Y-61984748D01*
X108884590Y-62138717D01*
X108878104Y-62146727D01*
X108773193Y-62300521D01*
X108718282Y-62345524D01*
X108647757Y-62353695D01*
X108584010Y-62322441D01*
X108563313Y-62297957D01*
X108482427Y-62172926D01*
X108476136Y-62164757D01*
X108332806Y-62007240D01*
X108325273Y-62000215D01*
X108158139Y-61868222D01*
X108149552Y-61862517D01*
X107963117Y-61759599D01*
X107953705Y-61755369D01*
X107752959Y-61684280D01*
X107742988Y-61681646D01*
X107671837Y-61668972D01*
X107658540Y-61670432D01*
X107654000Y-61684989D01*
X107654000Y-62727885D01*
X107146000Y-62727885D01*
X107146000Y-61683102D01*
X107142082Y-61669758D01*
X107127806Y-61667771D01*
X107089324Y-61673660D01*
X107079288Y-61676051D01*
X106876868Y-61742212D01*
X106867359Y-61746209D01*
X106678463Y-61844542D01*
X106669738Y-61850036D01*
X106499433Y-61977905D01*
X106491726Y-61984748D01*
X106344590Y-62138717D01*
X106338104Y-62146727D01*
X106218098Y-62322649D01*
X106213000Y-62331623D01*
X106123338Y-62524783D01*
X106119775Y-62534470D01*
X106064389Y-62734183D01*
X103358500Y-62734183D01*
X103358500Y-62101866D01*
X103351745Y-62039684D01*
X103300615Y-61903295D01*
X103213261Y-61786739D01*
X103096705Y-61699385D01*
X103058304Y-61684989D01*
X102978203Y-61654960D01*
X102921439Y-61612318D01*
X102896739Y-61545756D01*
X102911947Y-61476408D01*
X102933493Y-61447727D01*
X103034435Y-61347137D01*
X103038096Y-61343489D01*
X103097594Y-61260689D01*
X103165435Y-61166277D01*
X103168453Y-61162077D01*
X103181995Y-61134678D01*
X103265136Y-60966453D01*
X103265137Y-60966451D01*
X103267430Y-60961811D01*
X103332370Y-60748069D01*
X103361529Y-60526590D01*
X103363156Y-60460000D01*
X103344852Y-60237361D01*
X103334006Y-60194183D01*
X122424389Y-60194183D01*
X122425912Y-60202607D01*
X122438292Y-60206000D01*
X123487885Y-60206000D01*
X123503124Y-60201525D01*
X123504329Y-60200135D01*
X123506000Y-60192452D01*
X123506000Y-59143102D01*
X123502082Y-59129758D01*
X123487806Y-59127771D01*
X123449324Y-59133660D01*
X123439288Y-59136051D01*
X123236868Y-59202212D01*
X123227359Y-59206209D01*
X123038463Y-59304542D01*
X123029738Y-59310036D01*
X122859433Y-59437905D01*
X122851726Y-59444748D01*
X122704590Y-59598717D01*
X122698104Y-59606727D01*
X122578098Y-59782649D01*
X122573000Y-59791623D01*
X122483338Y-59984783D01*
X122479775Y-59994470D01*
X122424389Y-60194183D01*
X103334006Y-60194183D01*
X103290431Y-60020702D01*
X103201354Y-59815840D01*
X103080014Y-59628277D01*
X102929670Y-59463051D01*
X102925619Y-59459852D01*
X102925615Y-59459848D01*
X102758414Y-59327800D01*
X102758410Y-59327798D01*
X102754359Y-59324598D01*
X102718028Y-59304542D01*
X102702136Y-59295769D01*
X102558789Y-59216638D01*
X102553920Y-59214914D01*
X102553916Y-59214912D01*
X102353087Y-59143795D01*
X102353083Y-59143794D01*
X102348212Y-59142069D01*
X102343119Y-59141162D01*
X102343116Y-59141161D01*
X102133373Y-59103800D01*
X102133367Y-59103799D01*
X102128284Y-59102894D01*
X102054452Y-59101992D01*
X101910081Y-59100228D01*
X101910079Y-59100228D01*
X101904911Y-59100165D01*
X101684091Y-59133955D01*
X101471756Y-59203357D01*
X101273607Y-59306507D01*
X101269474Y-59309610D01*
X101269471Y-59309612D01*
X101220068Y-59346705D01*
X101094965Y-59440635D01*
X101076605Y-59459848D01*
X100989866Y-59550615D01*
X100940629Y-59602138D01*
X100937720Y-59606403D01*
X100937714Y-59606411D01*
X100936541Y-59608131D01*
X100814743Y-59786680D01*
X100812567Y-59791369D01*
X100812563Y-59791375D01*
X100748788Y-59928768D01*
X100701964Y-59982135D01*
X100633720Y-60001716D01*
X100565725Y-59981292D01*
X100519565Y-59927350D01*
X100508500Y-59875718D01*
X100508500Y-56495226D01*
X100528502Y-56427105D01*
X100582158Y-56380612D01*
X100652432Y-56370508D01*
X100717012Y-56400002D01*
X100735326Y-56419661D01*
X100764171Y-56458148D01*
X100786739Y-56488261D01*
X100903295Y-56575615D01*
X101039684Y-56626745D01*
X101101866Y-56633500D01*
X102898134Y-56633500D01*
X102960316Y-56626745D01*
X103096705Y-56575615D01*
X103213261Y-56488261D01*
X103300615Y-56371705D01*
X103351745Y-56235316D01*
X103358500Y-56173134D01*
X103358500Y-55676695D01*
X106047251Y-55676695D01*
X106047548Y-55681848D01*
X106047548Y-55681851D01*
X106053011Y-55776590D01*
X106060110Y-55899715D01*
X106061247Y-55904761D01*
X106061248Y-55904767D01*
X106081119Y-55992939D01*
X106109222Y-56117639D01*
X106193266Y-56324616D01*
X106195965Y-56329020D01*
X106297816Y-56495226D01*
X106309987Y-56515088D01*
X106456250Y-56683938D01*
X106460230Y-56687242D01*
X106464981Y-56691187D01*
X106504616Y-56750090D01*
X106506113Y-56821071D01*
X106468997Y-56881593D01*
X106428724Y-56906112D01*
X106313295Y-56949385D01*
X106196739Y-57036739D01*
X106109385Y-57153295D01*
X106058255Y-57289684D01*
X106051500Y-57351866D01*
X106051500Y-59148134D01*
X106058255Y-59210316D01*
X106109385Y-59346705D01*
X106196739Y-59463261D01*
X106313295Y-59550615D01*
X106449684Y-59601745D01*
X106511866Y-59608500D01*
X108308134Y-59608500D01*
X108370316Y-59601745D01*
X108506705Y-59550615D01*
X108623261Y-59463261D01*
X108710615Y-59346705D01*
X108761745Y-59210316D01*
X108768500Y-59148134D01*
X108768500Y-57351866D01*
X108761745Y-57289684D01*
X108710615Y-57153295D01*
X108623261Y-57036739D01*
X108574240Y-57000000D01*
X119836496Y-57000000D01*
X119837186Y-57006565D01*
X119854424Y-57170571D01*
X119856458Y-57189928D01*
X119915473Y-57371556D01*
X120010960Y-57536944D01*
X120138747Y-57678866D01*
X120293248Y-57791118D01*
X120299276Y-57793802D01*
X120299278Y-57793803D01*
X120461681Y-57866109D01*
X120467712Y-57868794D01*
X120561112Y-57888647D01*
X120648056Y-57907128D01*
X120648061Y-57907128D01*
X120654513Y-57908500D01*
X120845487Y-57908500D01*
X120851939Y-57907128D01*
X120851944Y-57907128D01*
X120938888Y-57888647D01*
X121032288Y-57868794D01*
X121038319Y-57866109D01*
X121200722Y-57793803D01*
X121200724Y-57793802D01*
X121206752Y-57791118D01*
X121361253Y-57678866D01*
X121489040Y-57536944D01*
X121584527Y-57371556D01*
X121643542Y-57189928D01*
X121645577Y-57170571D01*
X121662814Y-57006565D01*
X121663504Y-57000000D01*
X130586496Y-57000000D01*
X130587186Y-57006565D01*
X130604424Y-57170571D01*
X130606458Y-57189928D01*
X130665473Y-57371556D01*
X130760960Y-57536944D01*
X130888747Y-57678866D01*
X131043248Y-57791118D01*
X131049276Y-57793802D01*
X131049278Y-57793803D01*
X131211681Y-57866109D01*
X131217712Y-57868794D01*
X131311112Y-57888647D01*
X131398056Y-57907128D01*
X131398061Y-57907128D01*
X131404513Y-57908500D01*
X131595487Y-57908500D01*
X131601939Y-57907128D01*
X131601944Y-57907128D01*
X131688888Y-57888647D01*
X131782288Y-57868794D01*
X131788319Y-57866109D01*
X131950722Y-57793803D01*
X131950724Y-57793802D01*
X131956752Y-57791118D01*
X132111253Y-57678866D01*
X132239040Y-57536944D01*
X132334527Y-57371556D01*
X132384895Y-57216540D01*
X132424969Y-57157935D01*
X132490366Y-57130298D01*
X132530925Y-57132231D01*
X132648047Y-57157127D01*
X132648060Y-57157128D01*
X132654513Y-57158500D01*
X132845487Y-57158500D01*
X132851939Y-57157128D01*
X132851944Y-57157128D01*
X132938888Y-57138647D01*
X133032288Y-57118794D01*
X133038319Y-57116109D01*
X133200722Y-57043803D01*
X133200724Y-57043802D01*
X133206752Y-57041118D01*
X133220186Y-57031358D01*
X133337349Y-56946233D01*
X133361253Y-56928866D01*
X133370155Y-56918979D01*
X133484621Y-56791852D01*
X133484622Y-56791851D01*
X133489040Y-56786944D01*
X133584527Y-56621556D01*
X133643542Y-56439928D01*
X133646990Y-56407128D01*
X133662814Y-56256565D01*
X133663504Y-56250000D01*
X133658900Y-56206197D01*
X133644232Y-56066635D01*
X133644232Y-56066633D01*
X133643542Y-56060072D01*
X133584527Y-55878444D01*
X133577406Y-55866109D01*
X133534109Y-55791118D01*
X133489040Y-55713056D01*
X133483269Y-55706646D01*
X133365675Y-55576045D01*
X133365674Y-55576044D01*
X133361253Y-55571134D01*
X133206752Y-55458882D01*
X133200724Y-55456198D01*
X133200722Y-55456197D01*
X133038319Y-55383891D01*
X133038318Y-55383891D01*
X133032288Y-55381206D01*
X132938888Y-55361353D01*
X132851944Y-55342872D01*
X132851939Y-55342872D01*
X132845487Y-55341500D01*
X132654513Y-55341500D01*
X132648061Y-55342872D01*
X132648056Y-55342872D01*
X132561112Y-55361353D01*
X132467712Y-55381206D01*
X132461682Y-55383891D01*
X132461681Y-55383891D01*
X132299278Y-55456197D01*
X132299276Y-55456198D01*
X132293248Y-55458882D01*
X132138747Y-55571134D01*
X132134326Y-55576044D01*
X132134325Y-55576045D01*
X132016732Y-55706646D01*
X132010960Y-55713056D01*
X131965891Y-55791118D01*
X131922595Y-55866109D01*
X131915473Y-55878444D01*
X131874995Y-56003023D01*
X131865105Y-56033460D01*
X131825031Y-56092065D01*
X131759634Y-56119702D01*
X131719075Y-56117769D01*
X131601953Y-56092873D01*
X131601940Y-56092872D01*
X131595487Y-56091500D01*
X131404513Y-56091500D01*
X131398061Y-56092872D01*
X131398056Y-56092872D01*
X131311112Y-56111353D01*
X131217712Y-56131206D01*
X131211682Y-56133891D01*
X131211681Y-56133891D01*
X131049278Y-56206197D01*
X131049276Y-56206198D01*
X131043248Y-56208882D01*
X131037907Y-56212762D01*
X131037906Y-56212763D01*
X130996681Y-56242715D01*
X130888747Y-56321134D01*
X130884326Y-56326044D01*
X130884325Y-56326045D01*
X130775799Y-56446576D01*
X130760960Y-56463056D01*
X130702686Y-56563990D01*
X130699084Y-56570229D01*
X130665473Y-56628444D01*
X130606458Y-56810072D01*
X130605768Y-56816633D01*
X130605768Y-56816635D01*
X130594324Y-56925516D01*
X130586496Y-57000000D01*
X121663504Y-57000000D01*
X121655676Y-56925516D01*
X121644232Y-56816635D01*
X121644232Y-56816633D01*
X121643542Y-56810072D01*
X121584527Y-56628444D01*
X121550917Y-56570229D01*
X121547314Y-56563990D01*
X121489040Y-56463056D01*
X121474202Y-56446576D01*
X121365675Y-56326045D01*
X121365674Y-56326044D01*
X121361253Y-56321134D01*
X121253319Y-56242715D01*
X121212094Y-56212763D01*
X121212093Y-56212762D01*
X121206752Y-56208882D01*
X121200724Y-56206198D01*
X121200722Y-56206197D01*
X121038319Y-56133891D01*
X121038318Y-56133891D01*
X121032288Y-56131206D01*
X120938888Y-56111353D01*
X120851944Y-56092872D01*
X120851939Y-56092872D01*
X120845487Y-56091500D01*
X120654513Y-56091500D01*
X120648061Y-56092872D01*
X120648056Y-56092872D01*
X120561112Y-56111353D01*
X120467712Y-56131206D01*
X120461682Y-56133891D01*
X120461681Y-56133891D01*
X120299278Y-56206197D01*
X120299276Y-56206198D01*
X120293248Y-56208882D01*
X120287907Y-56212762D01*
X120287906Y-56212763D01*
X120246681Y-56242715D01*
X120138747Y-56321134D01*
X120134326Y-56326044D01*
X120134325Y-56326045D01*
X120025799Y-56446576D01*
X120010960Y-56463056D01*
X119952686Y-56563990D01*
X119949084Y-56570229D01*
X119915473Y-56628444D01*
X119856458Y-56810072D01*
X119855768Y-56816633D01*
X119855768Y-56816635D01*
X119844324Y-56925516D01*
X119836496Y-57000000D01*
X108574240Y-57000000D01*
X108506705Y-56949385D01*
X108438871Y-56923955D01*
X108388203Y-56904960D01*
X108331439Y-56862318D01*
X108306739Y-56795756D01*
X108321947Y-56726408D01*
X108343493Y-56697727D01*
X108361251Y-56680031D01*
X108448096Y-56593489D01*
X108507594Y-56510689D01*
X108575435Y-56416277D01*
X108578453Y-56412077D01*
X108594855Y-56378891D01*
X108675136Y-56216453D01*
X108675137Y-56216451D01*
X108677430Y-56211811D01*
X108725439Y-56053794D01*
X108740865Y-56003023D01*
X108740865Y-56003021D01*
X108742370Y-55998069D01*
X108771529Y-55776590D01*
X108773156Y-55710000D01*
X108754852Y-55487361D01*
X108700431Y-55270702D01*
X108611354Y-55065840D01*
X108568760Y-55000000D01*
X118586496Y-55000000D01*
X118606458Y-55189928D01*
X118665473Y-55371556D01*
X118668776Y-55377278D01*
X118668777Y-55377279D01*
X118695726Y-55423955D01*
X118760960Y-55536944D01*
X118765378Y-55541851D01*
X118765379Y-55541852D01*
X118832240Y-55616109D01*
X118888747Y-55678866D01*
X119043248Y-55791118D01*
X119049276Y-55793802D01*
X119049278Y-55793803D01*
X119209799Y-55865271D01*
X119217712Y-55868794D01*
X119292666Y-55884726D01*
X119398056Y-55907128D01*
X119398061Y-55907128D01*
X119404513Y-55908500D01*
X119595487Y-55908500D01*
X119601939Y-55907128D01*
X119601944Y-55907128D01*
X119707334Y-55884726D01*
X119782288Y-55868794D01*
X119790201Y-55865271D01*
X119950722Y-55793803D01*
X119950724Y-55793802D01*
X119956752Y-55791118D01*
X120111253Y-55678866D01*
X120167760Y-55616109D01*
X120234621Y-55541852D01*
X120234622Y-55541851D01*
X120239040Y-55536944D01*
X120260370Y-55500000D01*
X122586496Y-55500000D01*
X122587186Y-55506565D01*
X122604528Y-55671562D01*
X122606458Y-55689928D01*
X122665473Y-55871556D01*
X122668776Y-55877278D01*
X122668777Y-55877279D01*
X122686803Y-55908500D01*
X122760960Y-56036944D01*
X122765378Y-56041851D01*
X122765379Y-56041852D01*
X122880509Y-56169717D01*
X122888747Y-56178866D01*
X123043248Y-56291118D01*
X123049276Y-56293802D01*
X123049278Y-56293803D01*
X123205365Y-56363297D01*
X123217712Y-56368794D01*
X123311112Y-56388647D01*
X123398056Y-56407128D01*
X123398061Y-56407128D01*
X123404513Y-56408500D01*
X123595487Y-56408500D01*
X123601939Y-56407128D01*
X123601944Y-56407128D01*
X123688888Y-56388647D01*
X123782288Y-56368794D01*
X123794635Y-56363297D01*
X123950722Y-56293803D01*
X123950724Y-56293802D01*
X123956752Y-56291118D01*
X124111253Y-56178866D01*
X124119491Y-56169717D01*
X124234621Y-56041852D01*
X124234622Y-56041851D01*
X124239040Y-56036944D01*
X124313197Y-55908500D01*
X124331223Y-55877279D01*
X124331224Y-55877278D01*
X124334527Y-55871556D01*
X124393542Y-55689928D01*
X124395473Y-55671562D01*
X124412814Y-55506565D01*
X124413504Y-55500000D01*
X124406028Y-55428866D01*
X124394232Y-55316635D01*
X124394232Y-55316633D01*
X124393542Y-55310072D01*
X124334527Y-55128444D01*
X124239040Y-54963056D01*
X124218216Y-54939928D01*
X124115675Y-54826045D01*
X124115674Y-54826044D01*
X124111253Y-54821134D01*
X124013346Y-54750000D01*
X130336496Y-54750000D01*
X130337186Y-54756565D01*
X130344489Y-54826045D01*
X130356458Y-54939928D01*
X130415473Y-55121556D01*
X130510960Y-55286944D01*
X130515378Y-55291851D01*
X130515379Y-55291852D01*
X130537694Y-55316635D01*
X130638747Y-55428866D01*
X130681196Y-55459707D01*
X130757877Y-55515419D01*
X130793248Y-55541118D01*
X130799276Y-55543802D01*
X130799278Y-55543803D01*
X130961681Y-55616109D01*
X130967712Y-55618794D01*
X131061112Y-55638647D01*
X131148056Y-55657128D01*
X131148061Y-55657128D01*
X131154513Y-55658500D01*
X131345487Y-55658500D01*
X131351939Y-55657128D01*
X131351944Y-55657128D01*
X131438887Y-55638647D01*
X131532288Y-55618794D01*
X131538319Y-55616109D01*
X131700722Y-55543803D01*
X131700724Y-55543802D01*
X131706752Y-55541118D01*
X131742124Y-55515419D01*
X131818804Y-55459707D01*
X131861253Y-55428866D01*
X131962306Y-55316635D01*
X131984621Y-55291852D01*
X131984622Y-55291851D01*
X131989040Y-55286944D01*
X132084527Y-55121556D01*
X132143542Y-54939928D01*
X132155512Y-54826045D01*
X132162814Y-54756565D01*
X132163504Y-54750000D01*
X132151389Y-54634729D01*
X132144232Y-54566635D01*
X132144232Y-54566633D01*
X132143542Y-54560072D01*
X132084527Y-54378444D01*
X132068237Y-54350228D01*
X131992341Y-54218774D01*
X131989040Y-54213056D01*
X131957368Y-54177880D01*
X131865675Y-54076045D01*
X131865674Y-54076044D01*
X131861253Y-54071134D01*
X131706752Y-53958882D01*
X131700724Y-53956198D01*
X131700722Y-53956197D01*
X131538319Y-53883891D01*
X131538318Y-53883891D01*
X131532288Y-53881206D01*
X131438887Y-53861353D01*
X131351944Y-53842872D01*
X131351939Y-53842872D01*
X131345487Y-53841500D01*
X131154513Y-53841500D01*
X131148061Y-53842872D01*
X131148056Y-53842872D01*
X131061113Y-53861353D01*
X130967712Y-53881206D01*
X130961682Y-53883891D01*
X130961681Y-53883891D01*
X130799278Y-53956197D01*
X130799276Y-53956198D01*
X130793248Y-53958882D01*
X130638747Y-54071134D01*
X130634326Y-54076044D01*
X130634325Y-54076045D01*
X130542633Y-54177880D01*
X130510960Y-54213056D01*
X130507659Y-54218774D01*
X130431764Y-54350228D01*
X130415473Y-54378444D01*
X130356458Y-54560072D01*
X130355768Y-54566633D01*
X130355768Y-54566635D01*
X130348611Y-54634729D01*
X130336496Y-54750000D01*
X124013346Y-54750000D01*
X123981601Y-54726936D01*
X123938247Y-54670714D01*
X123932172Y-54599977D01*
X123965304Y-54537186D01*
X123981601Y-54523064D01*
X124105909Y-54432749D01*
X124105911Y-54432747D01*
X124111253Y-54428866D01*
X124178843Y-54353800D01*
X124234621Y-54291852D01*
X124234622Y-54291851D01*
X124239040Y-54286944D01*
X124321673Y-54143820D01*
X124331223Y-54127279D01*
X124331224Y-54127278D01*
X124334527Y-54121556D01*
X124393542Y-53939928D01*
X124395295Y-53923255D01*
X124412814Y-53756565D01*
X124413504Y-53750000D01*
X124393542Y-53560072D01*
X124334527Y-53378444D01*
X124327406Y-53366109D01*
X124284109Y-53291118D01*
X124239040Y-53213056D01*
X124211752Y-53182749D01*
X124115675Y-53076045D01*
X124115674Y-53076044D01*
X124111253Y-53071134D01*
X123956752Y-52958882D01*
X123950724Y-52956198D01*
X123950722Y-52956197D01*
X123788319Y-52883891D01*
X123788318Y-52883891D01*
X123782288Y-52881206D01*
X123688887Y-52861353D01*
X123601944Y-52842872D01*
X123601939Y-52842872D01*
X123595487Y-52841500D01*
X123404513Y-52841500D01*
X123398061Y-52842872D01*
X123398056Y-52842872D01*
X123311113Y-52861353D01*
X123217712Y-52881206D01*
X123211682Y-52883891D01*
X123211681Y-52883891D01*
X123049278Y-52956197D01*
X123049276Y-52956198D01*
X123043248Y-52958882D01*
X122888747Y-53071134D01*
X122884326Y-53076044D01*
X122884325Y-53076045D01*
X122788249Y-53182749D01*
X122760960Y-53213056D01*
X122715891Y-53291118D01*
X122672595Y-53366109D01*
X122665473Y-53378444D01*
X122606458Y-53560072D01*
X122586496Y-53750000D01*
X122587186Y-53756565D01*
X122604706Y-53923255D01*
X122606458Y-53939928D01*
X122665473Y-54121556D01*
X122668776Y-54127278D01*
X122668777Y-54127279D01*
X122678327Y-54143820D01*
X122760960Y-54286944D01*
X122765378Y-54291851D01*
X122765379Y-54291852D01*
X122821157Y-54353800D01*
X122888747Y-54428866D01*
X122894089Y-54432747D01*
X122894091Y-54432749D01*
X123018399Y-54523064D01*
X123061753Y-54579286D01*
X123067828Y-54650023D01*
X123034696Y-54712814D01*
X123018400Y-54726936D01*
X122888747Y-54821134D01*
X122884326Y-54826044D01*
X122884325Y-54826045D01*
X122781785Y-54939928D01*
X122760960Y-54963056D01*
X122665473Y-55128444D01*
X122606458Y-55310072D01*
X122605768Y-55316633D01*
X122605768Y-55316635D01*
X122593972Y-55428866D01*
X122586496Y-55500000D01*
X120260370Y-55500000D01*
X120304274Y-55423955D01*
X120331223Y-55377279D01*
X120331224Y-55377278D01*
X120334527Y-55371556D01*
X120393542Y-55189928D01*
X120413504Y-55000000D01*
X120407190Y-54939928D01*
X120394232Y-54816635D01*
X120394232Y-54816633D01*
X120393542Y-54810072D01*
X120334527Y-54628444D01*
X120239040Y-54463056D01*
X120211752Y-54432749D01*
X120115675Y-54326045D01*
X120115674Y-54326044D01*
X120111253Y-54321134D01*
X119956752Y-54208882D01*
X119950724Y-54206198D01*
X119950722Y-54206197D01*
X119788319Y-54133891D01*
X119788318Y-54133891D01*
X119782288Y-54131206D01*
X119688888Y-54111353D01*
X119601944Y-54092872D01*
X119601939Y-54092872D01*
X119595487Y-54091500D01*
X119404513Y-54091500D01*
X119398061Y-54092872D01*
X119398056Y-54092872D01*
X119311113Y-54111353D01*
X119217712Y-54131206D01*
X119211682Y-54133891D01*
X119211681Y-54133891D01*
X119049278Y-54206197D01*
X119049276Y-54206198D01*
X119043248Y-54208882D01*
X118888747Y-54321134D01*
X118884326Y-54326044D01*
X118884325Y-54326045D01*
X118788249Y-54432749D01*
X118760960Y-54463056D01*
X118665473Y-54628444D01*
X118606458Y-54810072D01*
X118605768Y-54816633D01*
X118605768Y-54816635D01*
X118592810Y-54939928D01*
X118586496Y-55000000D01*
X108568760Y-55000000D01*
X108490014Y-54878277D01*
X108339670Y-54713051D01*
X108335619Y-54709852D01*
X108335615Y-54709848D01*
X108168414Y-54577800D01*
X108168410Y-54577798D01*
X108164359Y-54574598D01*
X108126673Y-54553794D01*
X108071005Y-54523064D01*
X107968789Y-54466638D01*
X107963920Y-54464914D01*
X107963916Y-54464912D01*
X107763087Y-54393795D01*
X107763083Y-54393794D01*
X107758212Y-54392069D01*
X107753119Y-54391162D01*
X107753116Y-54391161D01*
X107543373Y-54353800D01*
X107543367Y-54353799D01*
X107538284Y-54352894D01*
X107464452Y-54351992D01*
X107320081Y-54350228D01*
X107320079Y-54350228D01*
X107314911Y-54350165D01*
X107094091Y-54383955D01*
X106881756Y-54453357D01*
X106852140Y-54468774D01*
X106688819Y-54553794D01*
X106683607Y-54556507D01*
X106679474Y-54559610D01*
X106679471Y-54559612D01*
X106559055Y-54650023D01*
X106504965Y-54690635D01*
X106350629Y-54852138D01*
X106224743Y-55036680D01*
X106130688Y-55239305D01*
X106070989Y-55454570D01*
X106047251Y-55676695D01*
X103358500Y-55676695D01*
X103358500Y-54376866D01*
X103351745Y-54314684D01*
X103300615Y-54178295D01*
X103213261Y-54061739D01*
X103096705Y-53974385D01*
X103084132Y-53969672D01*
X102978203Y-53929960D01*
X102921439Y-53887318D01*
X102896739Y-53820756D01*
X102911947Y-53751408D01*
X102933493Y-53722727D01*
X103034435Y-53622137D01*
X103038096Y-53618489D01*
X103097594Y-53535689D01*
X103165435Y-53441277D01*
X103168453Y-53437077D01*
X103201523Y-53370166D01*
X103265136Y-53241453D01*
X103265137Y-53241451D01*
X103267430Y-53236811D01*
X103317767Y-53071134D01*
X103330865Y-53028023D01*
X103330865Y-53028021D01*
X103332370Y-53023069D01*
X103361529Y-52801590D01*
X103362498Y-52761944D01*
X103363074Y-52738365D01*
X103363074Y-52738361D01*
X103363156Y-52735000D01*
X103344852Y-52512361D01*
X103341747Y-52500000D01*
X111336496Y-52500000D01*
X111356458Y-52689928D01*
X111415473Y-52871556D01*
X111418776Y-52877278D01*
X111418777Y-52877279D01*
X111431292Y-52898955D01*
X111510960Y-53036944D01*
X111515378Y-53041851D01*
X111515379Y-53041852D01*
X111559730Y-53091109D01*
X111638747Y-53178866D01*
X111793248Y-53291118D01*
X111799276Y-53293802D01*
X111799278Y-53293803D01*
X111961681Y-53366109D01*
X111967712Y-53368794D01*
X112042680Y-53384729D01*
X112148056Y-53407128D01*
X112148061Y-53407128D01*
X112154513Y-53408500D01*
X112345487Y-53408500D01*
X112351939Y-53407128D01*
X112351944Y-53407128D01*
X112457320Y-53384729D01*
X112532288Y-53368794D01*
X112538319Y-53366109D01*
X112700722Y-53293803D01*
X112700724Y-53293802D01*
X112706752Y-53291118D01*
X112861253Y-53178866D01*
X112940270Y-53091109D01*
X112984621Y-53041852D01*
X112984622Y-53041851D01*
X112989040Y-53036944D01*
X113068708Y-52898955D01*
X113081223Y-52877279D01*
X113081224Y-52877278D01*
X113084527Y-52871556D01*
X113143542Y-52689928D01*
X113163504Y-52500000D01*
X113143542Y-52310072D01*
X113084527Y-52128444D01*
X112989040Y-51963056D01*
X112908315Y-51873401D01*
X112865675Y-51826045D01*
X112865674Y-51826044D01*
X112861253Y-51821134D01*
X112706752Y-51708882D01*
X112700724Y-51706198D01*
X112700722Y-51706197D01*
X112538319Y-51633891D01*
X112538318Y-51633891D01*
X112532288Y-51631206D01*
X112438887Y-51611353D01*
X112351944Y-51592872D01*
X112351939Y-51592872D01*
X112345487Y-51591500D01*
X112154513Y-51591500D01*
X112148061Y-51592872D01*
X112148056Y-51592872D01*
X112061113Y-51611353D01*
X111967712Y-51631206D01*
X111961682Y-51633891D01*
X111961681Y-51633891D01*
X111799278Y-51706197D01*
X111799276Y-51706198D01*
X111793248Y-51708882D01*
X111638747Y-51821134D01*
X111634326Y-51826044D01*
X111634325Y-51826045D01*
X111591686Y-51873401D01*
X111510960Y-51963056D01*
X111415473Y-52128444D01*
X111356458Y-52310072D01*
X111336496Y-52500000D01*
X103341747Y-52500000D01*
X103290431Y-52295702D01*
X103201354Y-52090840D01*
X103135482Y-51989017D01*
X103082822Y-51907617D01*
X103082820Y-51907614D01*
X103080014Y-51903277D01*
X102929670Y-51738051D01*
X102925619Y-51734852D01*
X102925615Y-51734848D01*
X102758414Y-51602800D01*
X102758410Y-51602798D01*
X102754359Y-51599598D01*
X102739690Y-51591500D01*
X102666405Y-51551045D01*
X102558789Y-51491638D01*
X102553920Y-51489914D01*
X102553916Y-51489912D01*
X102353087Y-51418795D01*
X102353083Y-51418794D01*
X102348212Y-51417069D01*
X102343119Y-51416162D01*
X102343116Y-51416161D01*
X102133373Y-51378800D01*
X102133367Y-51378799D01*
X102128284Y-51377894D01*
X102054452Y-51376992D01*
X101910081Y-51375228D01*
X101910079Y-51375228D01*
X101904911Y-51375165D01*
X101684091Y-51408955D01*
X101471756Y-51478357D01*
X101273607Y-51581507D01*
X101269474Y-51584610D01*
X101269471Y-51584612D01*
X101107535Y-51706197D01*
X101094965Y-51715635D01*
X101091393Y-51719373D01*
X100947292Y-51870166D01*
X100940629Y-51877138D01*
X100814743Y-52061680D01*
X100812567Y-52066369D01*
X100812563Y-52066375D01*
X100748788Y-52203768D01*
X100701964Y-52257135D01*
X100633720Y-52276716D01*
X100565725Y-52256292D01*
X100519565Y-52202350D01*
X100508500Y-52150718D01*
X100508500Y-52053250D01*
X100510246Y-52032345D01*
X100512770Y-52017344D01*
X100512770Y-52017341D01*
X100513576Y-52012552D01*
X100513729Y-52000000D01*
X100513040Y-51995186D01*
X100513039Y-51995176D01*
X100512157Y-51989017D01*
X100511206Y-51962172D01*
X100520941Y-51826045D01*
X100523039Y-51796718D01*
X100525596Y-51778934D01*
X100566999Y-51588607D01*
X100572063Y-51571359D01*
X100640136Y-51388850D01*
X100647604Y-51372498D01*
X100740952Y-51201542D01*
X100750672Y-51186418D01*
X100867402Y-51030486D01*
X100879175Y-51016900D01*
X101016900Y-50879175D01*
X101030486Y-50867402D01*
X101186418Y-50750672D01*
X101201542Y-50740952D01*
X101372498Y-50647604D01*
X101388850Y-50640136D01*
X101571359Y-50572063D01*
X101588608Y-50566999D01*
X101778936Y-50525596D01*
X101796715Y-50523039D01*
X101958605Y-50511460D01*
X101976565Y-50512207D01*
X101984845Y-50512308D01*
X101993724Y-50513691D01*
X102025286Y-50509564D01*
X102041621Y-50508500D01*
X117031021Y-50508500D01*
X117099142Y-50528502D01*
G37*
%TD.AperFunction*%
%TD*%
M02*
