M48
; DRILL file {KiCad (6.0.7)} date Sun Jan 15 17:04:05 2023
; FORMAT={-:-/ absolute / inch / decimal}
; #@! TF.CreationDate,2023-01-15T17:04:05+01:00
; #@! TF.GenerationSoftware,Kicad,Pcbnew,(6.0.7)
; #@! TF.FileFunction,Plated,1,4,PTH
FMAT,2
INCH
; #@! TA.AperFunction,Plated,PTH,ViaDrill
T1C0.0157
; #@! TA.AperFunction,Plated,PTH,ComponentDrill
T2C0.0394
%
G90
G05
T1
X4.4193Y-2.0669
X4.5177Y-2.2835
X4.6457Y-2.0079
X4.6457Y-2.1654
X4.7047Y-2.1654
X4.7146Y-2.0079
X4.7539Y-2.2441
X4.7746Y-2.0561
X4.8622Y-2.1161
X4.8622Y-2.185
X5.1673Y-2.1555
X5.1772Y-2.2441
X5.2264Y-2.2146
X5.2756Y-2.1063
T2
X4.0157Y-2.0762
X4.0157Y-2.1762
X4.0157Y-2.3803
X4.0157Y-2.4803
X4.2283Y-2.4803
X4.2287Y-2.1933
X4.2287Y-2.2933
X4.3283Y-2.4803
X4.4283Y-2.4803
X4.5283Y-2.4803
X4.6283Y-2.4803
X4.8724Y-2.3803
X4.8724Y-2.4803
X4.9724Y-2.3803
X4.9724Y-2.4803
X5.0724Y-2.3803
X5.0724Y-2.4803
X5.1724Y-2.3803
X5.1724Y-2.4803
X5.2724Y-2.3803
X5.2724Y-2.4803
X5.3724Y-2.3803
X5.3724Y-2.4803
X5.4724Y-2.3803
X5.4724Y-2.4803
T0
M30
