%TF.GenerationSoftware,KiCad,Pcbnew,(6.0.7)*%
%TF.CreationDate,2023-01-15T17:04:05+01:00*%
%TF.ProjectId,I_CAN_has_carrot,495f4341-4e5f-4686-9173-5f636172726f,rev?*%
%TF.SameCoordinates,Original*%
%TF.FileFunction,Soldermask,Top*%
%TF.FilePolarity,Negative*%
%FSLAX46Y46*%
G04 Gerber Fmt 4.6, Leading zero omitted, Abs format (unit mm)*
G04 Created by KiCad (PCBNEW (6.0.7)) date 2023-01-15 17:04:05*
%MOMM*%
%LPD*%
G01*
G04 APERTURE LIST*
G04 Aperture macros list*
%AMRoundRect*
0 Rectangle with rounded corners*
0 $1 Rounding radius*
0 $2 $3 $4 $5 $6 $7 $8 $9 X,Y pos of 4 corners*
0 Add a 4 corners polygon primitive as box body*
4,1,4,$2,$3,$4,$5,$6,$7,$8,$9,$2,$3,0*
0 Add four circle primitives for the rounded corners*
1,1,$1+$1,$2,$3*
1,1,$1+$1,$4,$5*
1,1,$1+$1,$6,$7*
1,1,$1+$1,$8,$9*
0 Add four rect primitives between the rounded corners*
20,1,$1+$1,$2,$3,$4,$5,0*
20,1,$1+$1,$4,$5,$6,$7,0*
20,1,$1+$1,$6,$7,$8,$9,0*
20,1,$1+$1,$8,$9,$2,$3,0*%
G04 Aperture macros list end*
%ADD10RoundRect,0.200000X0.275000X-0.200000X0.275000X0.200000X-0.275000X0.200000X-0.275000X-0.200000X0*%
%ADD11R,1.700000X1.700000*%
%ADD12O,1.700000X1.700000*%
%ADD13RoundRect,0.225000X-0.225000X-0.250000X0.225000X-0.250000X0.225000X0.250000X-0.225000X0.250000X0*%
%ADD14RoundRect,0.225000X-0.250000X0.225000X-0.250000X-0.225000X0.250000X-0.225000X0.250000X0.225000X0*%
%ADD15R,2.000000X1.500000*%
%ADD16R,2.000000X3.800000*%
%ADD17RoundRect,0.150000X0.150000X-0.825000X0.150000X0.825000X-0.150000X0.825000X-0.150000X-0.825000X0*%
G04 APERTURE END LIST*
D10*
%TO.C,R1*%
X110250000Y-57075000D03*
X110250000Y-55425000D03*
%TD*%
D11*
%TO.C,J4*%
X117560000Y-63000000D03*
D12*
X115020000Y-63000000D03*
X112480000Y-63000000D03*
X109940000Y-63000000D03*
X107400000Y-63000000D03*
%TD*%
D13*
%TO.C,C3*%
X117975000Y-56250000D03*
X119525000Y-56250000D03*
%TD*%
D14*
%TO.C,C5*%
X118000000Y-52225000D03*
X118000000Y-53775000D03*
%TD*%
D15*
%TO.C,U1*%
X129740000Y-56950000D03*
D16*
X123440000Y-54650000D03*
D15*
X129740000Y-54650000D03*
X129740000Y-52350000D03*
%TD*%
D14*
%TO.C,C2*%
X119750000Y-52225000D03*
X119750000Y-53775000D03*
%TD*%
D11*
%TO.C,J2*%
X139000000Y-63000000D03*
D12*
X139000000Y-60460000D03*
X136460000Y-63000000D03*
X136460000Y-60460000D03*
X133920000Y-63000000D03*
X133920000Y-60460000D03*
X131380000Y-63000000D03*
X131380000Y-60460000D03*
X128840000Y-63000000D03*
X128840000Y-60460000D03*
X126300000Y-63000000D03*
X126300000Y-60460000D03*
X123760000Y-63000000D03*
X123760000Y-60460000D03*
%TD*%
D14*
%TO.C,C1*%
X132590000Y-53475000D03*
X132590000Y-55025000D03*
%TD*%
D17*
%TO.C,U2*%
X112190000Y-59700000D03*
X113460000Y-59700000D03*
X114730000Y-59700000D03*
X116000000Y-59700000D03*
X116000000Y-54750000D03*
X114730000Y-54750000D03*
X113460000Y-54750000D03*
X112190000Y-54750000D03*
%TD*%
D11*
%TO.C,J1*%
X107410000Y-58250000D03*
D12*
X107410000Y-55710000D03*
%TD*%
D11*
%TO.C,J3*%
X102000000Y-63000000D03*
D12*
X102000000Y-60460000D03*
%TD*%
D13*
%TO.C,C4*%
X117975000Y-58000000D03*
X119525000Y-58000000D03*
%TD*%
D11*
%TO.C,J5*%
X102000000Y-55275000D03*
D12*
X102000000Y-52735000D03*
%TD*%
M02*
