%TF.GenerationSoftware,KiCad,Pcbnew,(6.0.7)*%
%TF.CreationDate,2023-01-15T17:04:05+01:00*%
%TF.ProjectId,I_CAN_has_carrot,495f4341-4e5f-4686-9173-5f636172726f,rev?*%
%TF.SameCoordinates,Original*%
%TF.FileFunction,Copper,L4,Bot*%
%TF.FilePolarity,Positive*%
%FSLAX46Y46*%
G04 Gerber Fmt 4.6, Leading zero omitted, Abs format (unit mm)*
G04 Created by KiCad (PCBNEW (6.0.7)) date 2023-01-15 17:04:05*
%MOMM*%
%LPD*%
G01*
G04 APERTURE LIST*
%TA.AperFunction,ComponentPad*%
%ADD10R,1.700000X1.700000*%
%TD*%
%TA.AperFunction,ComponentPad*%
%ADD11O,1.700000X1.700000*%
%TD*%
%TA.AperFunction,ViaPad*%
%ADD12C,0.800000*%
%TD*%
%TA.AperFunction,Conductor*%
%ADD13C,0.250000*%
%TD*%
G04 APERTURE END LIST*
D10*
%TO.P,J4,1,Pin_1*%
%TO.N,/CANTX*%
X117560000Y-63000000D03*
D11*
%TO.P,J4,2,Pin_2*%
%TO.N,/CANRX*%
X115020000Y-63000000D03*
%TO.P,J4,3,Pin_3*%
%TO.N,GND*%
X112480000Y-63000000D03*
%TO.P,J4,4,Pin_4*%
%TO.N,+5V*%
X109940000Y-63000000D03*
%TO.P,J4,5,Pin_5*%
X107400000Y-63000000D03*
%TD*%
D10*
%TO.P,J2,1,Pin_1*%
%TO.N,/CANTX*%
X139000000Y-63000000D03*
D11*
%TO.P,J2,2,Pin_2*%
%TO.N,/CANRX*%
X139000000Y-60460000D03*
%TO.P,J2,3,Pin_3*%
%TO.N,unconnected-(J2-Pad3)*%
X136460000Y-63000000D03*
%TO.P,J2,4,Pin_4*%
%TO.N,unconnected-(J2-Pad4)*%
X136460000Y-60460000D03*
%TO.P,J2,5,Pin_5*%
%TO.N,unconnected-(J2-Pad5)*%
X133920000Y-63000000D03*
%TO.P,J2,6,Pin_6*%
%TO.N,unconnected-(J2-Pad6)*%
X133920000Y-60460000D03*
%TO.P,J2,7,Pin_7*%
%TO.N,unconnected-(J2-Pad7)*%
X131380000Y-63000000D03*
%TO.P,J2,8,Pin_8*%
%TO.N,unconnected-(J2-Pad8)*%
X131380000Y-60460000D03*
%TO.P,J2,9,Pin_9*%
%TO.N,unconnected-(J2-Pad9)*%
X128840000Y-63000000D03*
%TO.P,J2,10,Pin_10*%
%TO.N,unconnected-(J2-Pad10)*%
X128840000Y-60460000D03*
%TO.P,J2,11,Pin_11*%
%TO.N,unconnected-(J2-Pad11)*%
X126300000Y-63000000D03*
%TO.P,J2,12,Pin_12*%
%TO.N,unconnected-(J2-Pad12)*%
X126300000Y-60460000D03*
%TO.P,J2,13,Pin_13*%
%TO.N,GND*%
X123760000Y-63000000D03*
%TO.P,J2,14,Pin_14*%
%TO.N,+5V*%
X123760000Y-60460000D03*
%TD*%
D10*
%TO.P,J1,1,Pin_1*%
%TO.N,/CANL*%
X107410000Y-58250000D03*
D11*
%TO.P,J1,2,Pin_2*%
%TO.N,Net-(J1-Pad2)*%
X107410000Y-55710000D03*
%TD*%
D10*
%TO.P,J3,1,Pin_1*%
%TO.N,/CANH*%
X102000000Y-63000000D03*
D11*
%TO.P,J3,2,Pin_2*%
%TO.N,/CANL*%
X102000000Y-60460000D03*
%TD*%
D10*
%TO.P,J5,1,Pin_1*%
%TO.N,/CANH*%
X102000000Y-55275000D03*
D11*
%TO.P,J5,2,Pin_2*%
%TO.N,/CANL*%
X102000000Y-52735000D03*
%TD*%
D12*
%TO.N,+5V*%
X118000000Y-55000000D03*
X114750000Y-58000000D03*
X134000000Y-53500000D03*
%TO.N,GND*%
X120750000Y-57000000D03*
X131500000Y-57000000D03*
X132750000Y-56250000D03*
X119500000Y-55000000D03*
X112250000Y-52500000D03*
%TO.N,+3.3V*%
X131250000Y-54750000D03*
X121275000Y-52225000D03*
X118000000Y-51000000D03*
X123500000Y-53750000D03*
X119750000Y-51000000D03*
X123500000Y-55500000D03*
%TD*%
D13*
%TO.N,/CANL*%
X107410000Y-58145000D02*
X107410000Y-58250000D01*
X102000000Y-52735000D02*
X107410000Y-58145000D01*
%TO.N,/CANH*%
X100825000Y-56450000D02*
X102000000Y-55275000D01*
X102000000Y-63000000D02*
X100825000Y-61825000D01*
X100825000Y-61825000D02*
X100825000Y-56450000D01*
%TD*%
%TA.AperFunction,Conductor*%
%TO.N,GND*%
G36*
X117099142Y-50528502D02*
G01*
X117145635Y-50582158D01*
X117155739Y-50652432D01*
X117150854Y-50673436D01*
X117106458Y-50810072D01*
X117105768Y-50816633D01*
X117105768Y-50816635D01*
X117098017Y-50890387D01*
X117086496Y-51000000D01*
X117106458Y-51189928D01*
X117165473Y-51371556D01*
X117168776Y-51377278D01*
X117168777Y-51377279D01*
X117198075Y-51428025D01*
X117260960Y-51536944D01*
X117265378Y-51541851D01*
X117265379Y-51541852D01*
X117317374Y-51599598D01*
X117388747Y-51678866D01*
X117439355Y-51715635D01*
X117526469Y-51778927D01*
X117543248Y-51791118D01*
X117549276Y-51793802D01*
X117549278Y-51793803D01*
X117711681Y-51866109D01*
X117717712Y-51868794D01*
X117811112Y-51888647D01*
X117898056Y-51907128D01*
X117898061Y-51907128D01*
X117904513Y-51908500D01*
X118095487Y-51908500D01*
X118101939Y-51907128D01*
X118101944Y-51907128D01*
X118188888Y-51888647D01*
X118282288Y-51868794D01*
X118288319Y-51866109D01*
X118450722Y-51793803D01*
X118450724Y-51793802D01*
X118456752Y-51791118D01*
X118473532Y-51778927D01*
X118560645Y-51715635D01*
X118611253Y-51678866D01*
X118682626Y-51599598D01*
X118734621Y-51541852D01*
X118734622Y-51541851D01*
X118739040Y-51536944D01*
X118765881Y-51490454D01*
X118817263Y-51441461D01*
X118886977Y-51428025D01*
X118952888Y-51454411D01*
X118984119Y-51490454D01*
X119010960Y-51536944D01*
X119015378Y-51541851D01*
X119015379Y-51541852D01*
X119067374Y-51599598D01*
X119138747Y-51678866D01*
X119189355Y-51715635D01*
X119276469Y-51778927D01*
X119293248Y-51791118D01*
X119299276Y-51793802D01*
X119299278Y-51793803D01*
X119461681Y-51866109D01*
X119467712Y-51868794D01*
X119561112Y-51888647D01*
X119648056Y-51907128D01*
X119648061Y-51907128D01*
X119654513Y-51908500D01*
X119845487Y-51908500D01*
X119851939Y-51907128D01*
X119851944Y-51907128D01*
X119938888Y-51888647D01*
X120032288Y-51868794D01*
X120038319Y-51866109D01*
X120200722Y-51793803D01*
X120200724Y-51793802D01*
X120206752Y-51791118D01*
X120225477Y-51777513D01*
X120292342Y-51753654D01*
X120361494Y-51769732D01*
X120410976Y-51820645D01*
X120425077Y-51890227D01*
X120419372Y-51918384D01*
X120405145Y-51962172D01*
X120381458Y-52035072D01*
X120380768Y-52041633D01*
X120380768Y-52041635D01*
X120375097Y-52095590D01*
X120361496Y-52225000D01*
X120362186Y-52231565D01*
X120366932Y-52276716D01*
X120381458Y-52414928D01*
X120440473Y-52596556D01*
X120535960Y-52761944D01*
X120540378Y-52766851D01*
X120540379Y-52766852D01*
X120643344Y-52881206D01*
X120663747Y-52903866D01*
X120818248Y-53016118D01*
X120824276Y-53018802D01*
X120824278Y-53018803D01*
X120986681Y-53091109D01*
X120992712Y-53093794D01*
X121086112Y-53113647D01*
X121173056Y-53132128D01*
X121173061Y-53132128D01*
X121179513Y-53133500D01*
X121370487Y-53133500D01*
X121376939Y-53132128D01*
X121376944Y-53132128D01*
X121463887Y-53113647D01*
X121557288Y-53093794D01*
X121563319Y-53091109D01*
X121725722Y-53018803D01*
X121725724Y-53018802D01*
X121731752Y-53016118D01*
X121886253Y-52903866D01*
X121906656Y-52881206D01*
X122009621Y-52766852D01*
X122009622Y-52766851D01*
X122014040Y-52761944D01*
X122109527Y-52596556D01*
X122168542Y-52414928D01*
X122183069Y-52276716D01*
X122187814Y-52231565D01*
X122188504Y-52225000D01*
X122174903Y-52095590D01*
X122169232Y-52041635D01*
X122169232Y-52041633D01*
X122168542Y-52035072D01*
X122109527Y-51853444D01*
X122090591Y-51820645D01*
X122071302Y-51787237D01*
X122014040Y-51688056D01*
X122001344Y-51673955D01*
X121890675Y-51551045D01*
X121890674Y-51551044D01*
X121886253Y-51546134D01*
X121731752Y-51433882D01*
X121725724Y-51431198D01*
X121725722Y-51431197D01*
X121563319Y-51358891D01*
X121563318Y-51358891D01*
X121557288Y-51356206D01*
X121456454Y-51334773D01*
X121376944Y-51317872D01*
X121376939Y-51317872D01*
X121370487Y-51316500D01*
X121179513Y-51316500D01*
X121173061Y-51317872D01*
X121173056Y-51317872D01*
X121093546Y-51334773D01*
X120992712Y-51356206D01*
X120986682Y-51358891D01*
X120986681Y-51358891D01*
X120824278Y-51431197D01*
X120824276Y-51431198D01*
X120818248Y-51433882D01*
X120799523Y-51447487D01*
X120732658Y-51471346D01*
X120663506Y-51455268D01*
X120614024Y-51404355D01*
X120599923Y-51334773D01*
X120605628Y-51306616D01*
X120641502Y-51196206D01*
X120643542Y-51189928D01*
X120663504Y-51000000D01*
X120651983Y-50890387D01*
X120644232Y-50816635D01*
X120644232Y-50816633D01*
X120643542Y-50810072D01*
X120599146Y-50673436D01*
X120597118Y-50602469D01*
X120633781Y-50541671D01*
X120697493Y-50510345D01*
X120718979Y-50508500D01*
X133950633Y-50508500D01*
X133970018Y-50510000D01*
X133984851Y-50512310D01*
X133984855Y-50512310D01*
X133993724Y-50513691D01*
X134011720Y-50511338D01*
X134035116Y-50510472D01*
X134271898Y-50523769D01*
X134285930Y-50525350D01*
X134416685Y-50547567D01*
X134547435Y-50569782D01*
X134561210Y-50572926D01*
X134639356Y-50595439D01*
X134816100Y-50646359D01*
X134829421Y-50651020D01*
X135074488Y-50752530D01*
X135087211Y-50758657D01*
X135168880Y-50803794D01*
X135319362Y-50886963D01*
X135331325Y-50894480D01*
X135547655Y-51047974D01*
X135558702Y-51056784D01*
X135730081Y-51209937D01*
X135747862Y-51229558D01*
X135748350Y-51230226D01*
X135748353Y-51230229D01*
X135753648Y-51237477D01*
X135760765Y-51242948D01*
X135760769Y-51242952D01*
X135778894Y-51256885D01*
X135791198Y-51267685D01*
X140726848Y-56203336D01*
X140739491Y-56218098D01*
X140753648Y-56237477D01*
X140760765Y-56242948D01*
X140760767Y-56242950D01*
X140768039Y-56248540D01*
X140785193Y-56264471D01*
X140943222Y-56441305D01*
X140952020Y-56452337D01*
X141105525Y-56668682D01*
X141113032Y-56680631D01*
X141237015Y-56904960D01*
X141241340Y-56912785D01*
X141247469Y-56925512D01*
X141348979Y-57170579D01*
X141353640Y-57183900D01*
X141361956Y-57212763D01*
X141427073Y-57438790D01*
X141430217Y-57452565D01*
X141469269Y-57682404D01*
X141474648Y-57714065D01*
X141476230Y-57728102D01*
X141481202Y-57816635D01*
X141489118Y-57957599D01*
X141487815Y-57984050D01*
X141486309Y-57993724D01*
X141487473Y-58002626D01*
X141487473Y-58002628D01*
X141490436Y-58025283D01*
X141491500Y-58041621D01*
X141491500Y-63950633D01*
X141490000Y-63970018D01*
X141487690Y-63984851D01*
X141487690Y-63984855D01*
X141486309Y-63993724D01*
X141488304Y-64008976D01*
X141489047Y-64034302D01*
X141479493Y-64167892D01*
X141476962Y-64203279D01*
X141474404Y-64221064D01*
X141433001Y-64411392D01*
X141427937Y-64428641D01*
X141359864Y-64611150D01*
X141352396Y-64627502D01*
X141259048Y-64798458D01*
X141249328Y-64813582D01*
X141132598Y-64969514D01*
X141120825Y-64983100D01*
X140983100Y-65120825D01*
X140969514Y-65132598D01*
X140813582Y-65249328D01*
X140798458Y-65259048D01*
X140627502Y-65352396D01*
X140611150Y-65359864D01*
X140428641Y-65427937D01*
X140411393Y-65433001D01*
X140221064Y-65474404D01*
X140203285Y-65476961D01*
X140041395Y-65488540D01*
X140023435Y-65487793D01*
X140015155Y-65487692D01*
X140006276Y-65486309D01*
X139974714Y-65490436D01*
X139958379Y-65491500D01*
X102049367Y-65491500D01*
X102029982Y-65490000D01*
X102015149Y-65487690D01*
X102015145Y-65487690D01*
X102006276Y-65486309D01*
X101991019Y-65488304D01*
X101965698Y-65489047D01*
X101796715Y-65476961D01*
X101778936Y-65474404D01*
X101588607Y-65433001D01*
X101571359Y-65427937D01*
X101388850Y-65359864D01*
X101372498Y-65352396D01*
X101201542Y-65259048D01*
X101186418Y-65249328D01*
X101030486Y-65132598D01*
X101016900Y-65120825D01*
X100879175Y-64983100D01*
X100867402Y-64969514D01*
X100750672Y-64813582D01*
X100740952Y-64798458D01*
X100647604Y-64627502D01*
X100640136Y-64611150D01*
X100572063Y-64428641D01*
X100566999Y-64411392D01*
X100539361Y-64284343D01*
X100544425Y-64213529D01*
X100586972Y-64156693D01*
X100653492Y-64131882D01*
X100722866Y-64146973D01*
X100763307Y-64181996D01*
X100786739Y-64213261D01*
X100903295Y-64300615D01*
X101039684Y-64351745D01*
X101101866Y-64358500D01*
X102898134Y-64358500D01*
X102960316Y-64351745D01*
X103096705Y-64300615D01*
X103213261Y-64213261D01*
X103300615Y-64096705D01*
X103351745Y-63960316D01*
X103358500Y-63898134D01*
X103358500Y-62966695D01*
X106037251Y-62966695D01*
X106050110Y-63189715D01*
X106051247Y-63194761D01*
X106051248Y-63194767D01*
X106065493Y-63257973D01*
X106099222Y-63407639D01*
X106183266Y-63614616D01*
X106220685Y-63675678D01*
X106297291Y-63800688D01*
X106299987Y-63805088D01*
X106446250Y-63973938D01*
X106618126Y-64116632D01*
X106811000Y-64229338D01*
X107019692Y-64309030D01*
X107024760Y-64310061D01*
X107024763Y-64310062D01*
X107119862Y-64329410D01*
X107238597Y-64353567D01*
X107243772Y-64353757D01*
X107243774Y-64353757D01*
X107456673Y-64361564D01*
X107456677Y-64361564D01*
X107461837Y-64361753D01*
X107466957Y-64361097D01*
X107466959Y-64361097D01*
X107678288Y-64334025D01*
X107678289Y-64334025D01*
X107683416Y-64333368D01*
X107688366Y-64331883D01*
X107892429Y-64270661D01*
X107892434Y-64270659D01*
X107897384Y-64269174D01*
X108097994Y-64170896D01*
X108279860Y-64041173D01*
X108438096Y-63883489D01*
X108497594Y-63800689D01*
X108568453Y-63702077D01*
X108569776Y-63703028D01*
X108616645Y-63659857D01*
X108686580Y-63647625D01*
X108752026Y-63675144D01*
X108779875Y-63706994D01*
X108839987Y-63805088D01*
X108986250Y-63973938D01*
X109158126Y-64116632D01*
X109351000Y-64229338D01*
X109559692Y-64309030D01*
X109564760Y-64310061D01*
X109564763Y-64310062D01*
X109659862Y-64329410D01*
X109778597Y-64353567D01*
X109783772Y-64353757D01*
X109783774Y-64353757D01*
X109996673Y-64361564D01*
X109996677Y-64361564D01*
X110001837Y-64361753D01*
X110006957Y-64361097D01*
X110006959Y-64361097D01*
X110218288Y-64334025D01*
X110218289Y-64334025D01*
X110223416Y-64333368D01*
X110228366Y-64331883D01*
X110432429Y-64270661D01*
X110432434Y-64270659D01*
X110437384Y-64269174D01*
X110637994Y-64170896D01*
X110819860Y-64041173D01*
X110978096Y-63883489D01*
X111037594Y-63800689D01*
X111108453Y-63702077D01*
X111109640Y-63702930D01*
X111156960Y-63659362D01*
X111226897Y-63647145D01*
X111292338Y-63674678D01*
X111320166Y-63706511D01*
X111377694Y-63800388D01*
X111383777Y-63808699D01*
X111523213Y-63969667D01*
X111530580Y-63976883D01*
X111694434Y-64112916D01*
X111702881Y-64118831D01*
X111886756Y-64226279D01*
X111896042Y-64230729D01*
X112095001Y-64306703D01*
X112104899Y-64309579D01*
X112208250Y-64330606D01*
X112222299Y-64329410D01*
X112226000Y-64319065D01*
X112226000Y-64318517D01*
X112734000Y-64318517D01*
X112738064Y-64332359D01*
X112751478Y-64334393D01*
X112758184Y-64333534D01*
X112768262Y-64331392D01*
X112972255Y-64270191D01*
X112981842Y-64266433D01*
X113173095Y-64172739D01*
X113181945Y-64167464D01*
X113355328Y-64043792D01*
X113363200Y-64037139D01*
X113514052Y-63886812D01*
X113520730Y-63878965D01*
X113648022Y-63701819D01*
X113649279Y-63702722D01*
X113696373Y-63659362D01*
X113766311Y-63647145D01*
X113831751Y-63674678D01*
X113859579Y-63706511D01*
X113919987Y-63805088D01*
X114066250Y-63973938D01*
X114238126Y-64116632D01*
X114431000Y-64229338D01*
X114639692Y-64309030D01*
X114644760Y-64310061D01*
X114644763Y-64310062D01*
X114739862Y-64329410D01*
X114858597Y-64353567D01*
X114863772Y-64353757D01*
X114863774Y-64353757D01*
X115076673Y-64361564D01*
X115076677Y-64361564D01*
X115081837Y-64361753D01*
X115086957Y-64361097D01*
X115086959Y-64361097D01*
X115298288Y-64334025D01*
X115298289Y-64334025D01*
X115303416Y-64333368D01*
X115308366Y-64331883D01*
X115512429Y-64270661D01*
X115512434Y-64270659D01*
X115517384Y-64269174D01*
X115717994Y-64170896D01*
X115899860Y-64041173D01*
X116008091Y-63933319D01*
X116070462Y-63899404D01*
X116141268Y-63904592D01*
X116198030Y-63947238D01*
X116215012Y-63978341D01*
X116235992Y-64034305D01*
X116259385Y-64096705D01*
X116346739Y-64213261D01*
X116463295Y-64300615D01*
X116599684Y-64351745D01*
X116661866Y-64358500D01*
X118458134Y-64358500D01*
X118520316Y-64351745D01*
X118656705Y-64300615D01*
X118773261Y-64213261D01*
X118860615Y-64096705D01*
X118911745Y-63960316D01*
X118918500Y-63898134D01*
X118918500Y-63267966D01*
X122428257Y-63267966D01*
X122458565Y-63402446D01*
X122461645Y-63412275D01*
X122541770Y-63609603D01*
X122546413Y-63618794D01*
X122657694Y-63800388D01*
X122663777Y-63808699D01*
X122803213Y-63969667D01*
X122810580Y-63976883D01*
X122974434Y-64112916D01*
X122982881Y-64118831D01*
X123166756Y-64226279D01*
X123176042Y-64230729D01*
X123375001Y-64306703D01*
X123384899Y-64309579D01*
X123488250Y-64330606D01*
X123502299Y-64329410D01*
X123506000Y-64319065D01*
X123506000Y-63272115D01*
X123501525Y-63256876D01*
X123500135Y-63255671D01*
X123492452Y-63254000D01*
X122443225Y-63254000D01*
X122429694Y-63257973D01*
X122428257Y-63267966D01*
X118918500Y-63267966D01*
X118918500Y-62101866D01*
X118911745Y-62039684D01*
X118860615Y-61903295D01*
X118773261Y-61786739D01*
X118656705Y-61699385D01*
X118520316Y-61648255D01*
X118458134Y-61641500D01*
X116661866Y-61641500D01*
X116599684Y-61648255D01*
X116463295Y-61699385D01*
X116346739Y-61786739D01*
X116259385Y-61903295D01*
X116256233Y-61911703D01*
X116214919Y-62021907D01*
X116172277Y-62078671D01*
X116105716Y-62103371D01*
X116036367Y-62088163D01*
X116003743Y-62062476D01*
X115953151Y-62006875D01*
X115953142Y-62006866D01*
X115949670Y-62003051D01*
X115945619Y-61999852D01*
X115945615Y-61999848D01*
X115778414Y-61867800D01*
X115778410Y-61867798D01*
X115774359Y-61864598D01*
X115738028Y-61844542D01*
X115669420Y-61806669D01*
X115578789Y-61756638D01*
X115573920Y-61754914D01*
X115573916Y-61754912D01*
X115373087Y-61683795D01*
X115373083Y-61683794D01*
X115368212Y-61682069D01*
X115363119Y-61681162D01*
X115363116Y-61681161D01*
X115153373Y-61643800D01*
X115153367Y-61643799D01*
X115148284Y-61642894D01*
X115074452Y-61641992D01*
X114930081Y-61640228D01*
X114930079Y-61640228D01*
X114924911Y-61640165D01*
X114704091Y-61673955D01*
X114491756Y-61743357D01*
X114442439Y-61769030D01*
X114305479Y-61840327D01*
X114293607Y-61846507D01*
X114289474Y-61849610D01*
X114289471Y-61849612D01*
X114119100Y-61977530D01*
X114114965Y-61980635D01*
X114089541Y-62007240D01*
X114021280Y-62078671D01*
X113960629Y-62142138D01*
X113957720Y-62146403D01*
X113957714Y-62146411D01*
X113945404Y-62164457D01*
X113853204Y-62299618D01*
X113852898Y-62300066D01*
X113797987Y-62345069D01*
X113727462Y-62353240D01*
X113663715Y-62321986D01*
X113643018Y-62297502D01*
X113562426Y-62172926D01*
X113556136Y-62164757D01*
X113412806Y-62007240D01*
X113405273Y-62000215D01*
X113238139Y-61868222D01*
X113229552Y-61862517D01*
X113043117Y-61759599D01*
X113033705Y-61755369D01*
X112832959Y-61684280D01*
X112822988Y-61681646D01*
X112751837Y-61668972D01*
X112738540Y-61670432D01*
X112734000Y-61684989D01*
X112734000Y-64318517D01*
X112226000Y-64318517D01*
X112226000Y-61683102D01*
X112222082Y-61669758D01*
X112207806Y-61667771D01*
X112169324Y-61673660D01*
X112159288Y-61676051D01*
X111956868Y-61742212D01*
X111947359Y-61746209D01*
X111758463Y-61844542D01*
X111749738Y-61850036D01*
X111579433Y-61977905D01*
X111571726Y-61984748D01*
X111424590Y-62138717D01*
X111418109Y-62146722D01*
X111313498Y-62300074D01*
X111258587Y-62345076D01*
X111188062Y-62353247D01*
X111124315Y-62321993D01*
X111103618Y-62297509D01*
X111022822Y-62172617D01*
X111022820Y-62172614D01*
X111020014Y-62168277D01*
X110869670Y-62003051D01*
X110865619Y-61999852D01*
X110865615Y-61999848D01*
X110698414Y-61867800D01*
X110698410Y-61867798D01*
X110694359Y-61864598D01*
X110658028Y-61844542D01*
X110589420Y-61806669D01*
X110498789Y-61756638D01*
X110493920Y-61754914D01*
X110493916Y-61754912D01*
X110293087Y-61683795D01*
X110293083Y-61683794D01*
X110288212Y-61682069D01*
X110283119Y-61681162D01*
X110283116Y-61681161D01*
X110073373Y-61643800D01*
X110073367Y-61643799D01*
X110068284Y-61642894D01*
X109994452Y-61641992D01*
X109850081Y-61640228D01*
X109850079Y-61640228D01*
X109844911Y-61640165D01*
X109624091Y-61673955D01*
X109411756Y-61743357D01*
X109362439Y-61769030D01*
X109225479Y-61840327D01*
X109213607Y-61846507D01*
X109209474Y-61849610D01*
X109209471Y-61849612D01*
X109039100Y-61977530D01*
X109034965Y-61980635D01*
X109009541Y-62007240D01*
X108941280Y-62078671D01*
X108880629Y-62142138D01*
X108773201Y-62299621D01*
X108718293Y-62344621D01*
X108647768Y-62352792D01*
X108584021Y-62321538D01*
X108563324Y-62297054D01*
X108482822Y-62172617D01*
X108482820Y-62172614D01*
X108480014Y-62168277D01*
X108329670Y-62003051D01*
X108325619Y-61999852D01*
X108325615Y-61999848D01*
X108158414Y-61867800D01*
X108158410Y-61867798D01*
X108154359Y-61864598D01*
X108118028Y-61844542D01*
X108049420Y-61806669D01*
X107958789Y-61756638D01*
X107953920Y-61754914D01*
X107953916Y-61754912D01*
X107753087Y-61683795D01*
X107753083Y-61683794D01*
X107748212Y-61682069D01*
X107743119Y-61681162D01*
X107743116Y-61681161D01*
X107533373Y-61643800D01*
X107533367Y-61643799D01*
X107528284Y-61642894D01*
X107454452Y-61641992D01*
X107310081Y-61640228D01*
X107310079Y-61640228D01*
X107304911Y-61640165D01*
X107084091Y-61673955D01*
X106871756Y-61743357D01*
X106822439Y-61769030D01*
X106685479Y-61840327D01*
X106673607Y-61846507D01*
X106669474Y-61849610D01*
X106669471Y-61849612D01*
X106499100Y-61977530D01*
X106494965Y-61980635D01*
X106469541Y-62007240D01*
X106401280Y-62078671D01*
X106340629Y-62142138D01*
X106337720Y-62146403D01*
X106337714Y-62146411D01*
X106325404Y-62164457D01*
X106214743Y-62326680D01*
X106120688Y-62529305D01*
X106060989Y-62744570D01*
X106037251Y-62966695D01*
X103358500Y-62966695D01*
X103358500Y-62101866D01*
X103351745Y-62039684D01*
X103300615Y-61903295D01*
X103213261Y-61786739D01*
X103096705Y-61699385D01*
X103058304Y-61684989D01*
X102978203Y-61654960D01*
X102921439Y-61612318D01*
X102896739Y-61545756D01*
X102911947Y-61476408D01*
X102933493Y-61447727D01*
X103034435Y-61347137D01*
X103038096Y-61343489D01*
X103097594Y-61260689D01*
X103165435Y-61166277D01*
X103168453Y-61162077D01*
X103189320Y-61119857D01*
X103265136Y-60966453D01*
X103265137Y-60966451D01*
X103267430Y-60961811D01*
X103332370Y-60748069D01*
X103361529Y-60526590D01*
X103363156Y-60460000D01*
X103360418Y-60426695D01*
X122397251Y-60426695D01*
X122397548Y-60431848D01*
X122397548Y-60431851D01*
X122403011Y-60526590D01*
X122410110Y-60649715D01*
X122411247Y-60654761D01*
X122411248Y-60654767D01*
X122431119Y-60742939D01*
X122459222Y-60867639D01*
X122543266Y-61074616D01*
X122594019Y-61157438D01*
X122657291Y-61260688D01*
X122659987Y-61265088D01*
X122806250Y-61433938D01*
X122978126Y-61576632D01*
X123039196Y-61612318D01*
X123051955Y-61619774D01*
X123100679Y-61671412D01*
X123113750Y-61741195D01*
X123087019Y-61806967D01*
X123046562Y-61840327D01*
X123038457Y-61844546D01*
X123029738Y-61850036D01*
X122859433Y-61977905D01*
X122851726Y-61984748D01*
X122704590Y-62138717D01*
X122698104Y-62146727D01*
X122578098Y-62322649D01*
X122573000Y-62331623D01*
X122483338Y-62524783D01*
X122479775Y-62534470D01*
X122424389Y-62734183D01*
X122425912Y-62742607D01*
X122438292Y-62746000D01*
X123888000Y-62746000D01*
X123956121Y-62766002D01*
X124002614Y-62819658D01*
X124014000Y-62872000D01*
X124014000Y-64318517D01*
X124018064Y-64332359D01*
X124031478Y-64334393D01*
X124038184Y-64333534D01*
X124048262Y-64331392D01*
X124252255Y-64270191D01*
X124261842Y-64266433D01*
X124453095Y-64172739D01*
X124461945Y-64167464D01*
X124635328Y-64043792D01*
X124643200Y-64037139D01*
X124794052Y-63886812D01*
X124800730Y-63878965D01*
X124928022Y-63701819D01*
X124929279Y-63702722D01*
X124976373Y-63659362D01*
X125046311Y-63647145D01*
X125111751Y-63674678D01*
X125139579Y-63706511D01*
X125199987Y-63805088D01*
X125346250Y-63973938D01*
X125518126Y-64116632D01*
X125711000Y-64229338D01*
X125919692Y-64309030D01*
X125924760Y-64310061D01*
X125924763Y-64310062D01*
X126019862Y-64329410D01*
X126138597Y-64353567D01*
X126143772Y-64353757D01*
X126143774Y-64353757D01*
X126356673Y-64361564D01*
X126356677Y-64361564D01*
X126361837Y-64361753D01*
X126366957Y-64361097D01*
X126366959Y-64361097D01*
X126578288Y-64334025D01*
X126578289Y-64334025D01*
X126583416Y-64333368D01*
X126588366Y-64331883D01*
X126792429Y-64270661D01*
X126792434Y-64270659D01*
X126797384Y-64269174D01*
X126997994Y-64170896D01*
X127179860Y-64041173D01*
X127338096Y-63883489D01*
X127397594Y-63800689D01*
X127468453Y-63702077D01*
X127469776Y-63703028D01*
X127516645Y-63659857D01*
X127586580Y-63647625D01*
X127652026Y-63675144D01*
X127679875Y-63706994D01*
X127739987Y-63805088D01*
X127886250Y-63973938D01*
X128058126Y-64116632D01*
X128251000Y-64229338D01*
X128459692Y-64309030D01*
X128464760Y-64310061D01*
X128464763Y-64310062D01*
X128559862Y-64329410D01*
X128678597Y-64353567D01*
X128683772Y-64353757D01*
X128683774Y-64353757D01*
X128896673Y-64361564D01*
X128896677Y-64361564D01*
X128901837Y-64361753D01*
X128906957Y-64361097D01*
X128906959Y-64361097D01*
X129118288Y-64334025D01*
X129118289Y-64334025D01*
X129123416Y-64333368D01*
X129128366Y-64331883D01*
X129332429Y-64270661D01*
X129332434Y-64270659D01*
X129337384Y-64269174D01*
X129537994Y-64170896D01*
X129719860Y-64041173D01*
X129878096Y-63883489D01*
X129937594Y-63800689D01*
X130008453Y-63702077D01*
X130009776Y-63703028D01*
X130056645Y-63659857D01*
X130126580Y-63647625D01*
X130192026Y-63675144D01*
X130219875Y-63706994D01*
X130279987Y-63805088D01*
X130426250Y-63973938D01*
X130598126Y-64116632D01*
X130791000Y-64229338D01*
X130999692Y-64309030D01*
X131004760Y-64310061D01*
X131004763Y-64310062D01*
X131099862Y-64329410D01*
X131218597Y-64353567D01*
X131223772Y-64353757D01*
X131223774Y-64353757D01*
X131436673Y-64361564D01*
X131436677Y-64361564D01*
X131441837Y-64361753D01*
X131446957Y-64361097D01*
X131446959Y-64361097D01*
X131658288Y-64334025D01*
X131658289Y-64334025D01*
X131663416Y-64333368D01*
X131668366Y-64331883D01*
X131872429Y-64270661D01*
X131872434Y-64270659D01*
X131877384Y-64269174D01*
X132077994Y-64170896D01*
X132259860Y-64041173D01*
X132418096Y-63883489D01*
X132477594Y-63800689D01*
X132548453Y-63702077D01*
X132549776Y-63703028D01*
X132596645Y-63659857D01*
X132666580Y-63647625D01*
X132732026Y-63675144D01*
X132759875Y-63706994D01*
X132819987Y-63805088D01*
X132966250Y-63973938D01*
X133138126Y-64116632D01*
X133331000Y-64229338D01*
X133539692Y-64309030D01*
X133544760Y-64310061D01*
X133544763Y-64310062D01*
X133639862Y-64329410D01*
X133758597Y-64353567D01*
X133763772Y-64353757D01*
X133763774Y-64353757D01*
X133976673Y-64361564D01*
X133976677Y-64361564D01*
X133981837Y-64361753D01*
X133986957Y-64361097D01*
X133986959Y-64361097D01*
X134198288Y-64334025D01*
X134198289Y-64334025D01*
X134203416Y-64333368D01*
X134208366Y-64331883D01*
X134412429Y-64270661D01*
X134412434Y-64270659D01*
X134417384Y-64269174D01*
X134617994Y-64170896D01*
X134799860Y-64041173D01*
X134958096Y-63883489D01*
X135017594Y-63800689D01*
X135088453Y-63702077D01*
X135089776Y-63703028D01*
X135136645Y-63659857D01*
X135206580Y-63647625D01*
X135272026Y-63675144D01*
X135299875Y-63706994D01*
X135359987Y-63805088D01*
X135506250Y-63973938D01*
X135678126Y-64116632D01*
X135871000Y-64229338D01*
X136079692Y-64309030D01*
X136084760Y-64310061D01*
X136084763Y-64310062D01*
X136179862Y-64329410D01*
X136298597Y-64353567D01*
X136303772Y-64353757D01*
X136303774Y-64353757D01*
X136516673Y-64361564D01*
X136516677Y-64361564D01*
X136521837Y-64361753D01*
X136526957Y-64361097D01*
X136526959Y-64361097D01*
X136738288Y-64334025D01*
X136738289Y-64334025D01*
X136743416Y-64333368D01*
X136748366Y-64331883D01*
X136952429Y-64270661D01*
X136952434Y-64270659D01*
X136957384Y-64269174D01*
X137157994Y-64170896D01*
X137339860Y-64041173D01*
X137448091Y-63933319D01*
X137510462Y-63899404D01*
X137581268Y-63904592D01*
X137638030Y-63947238D01*
X137655012Y-63978341D01*
X137675992Y-64034305D01*
X137699385Y-64096705D01*
X137786739Y-64213261D01*
X137903295Y-64300615D01*
X138039684Y-64351745D01*
X138101866Y-64358500D01*
X139898134Y-64358500D01*
X139960316Y-64351745D01*
X140096705Y-64300615D01*
X140213261Y-64213261D01*
X140300615Y-64096705D01*
X140351745Y-63960316D01*
X140358500Y-63898134D01*
X140358500Y-62101866D01*
X140351745Y-62039684D01*
X140300615Y-61903295D01*
X140213261Y-61786739D01*
X140096705Y-61699385D01*
X140058304Y-61684989D01*
X139978203Y-61654960D01*
X139921439Y-61612318D01*
X139896739Y-61545756D01*
X139911947Y-61476408D01*
X139933493Y-61447727D01*
X140034435Y-61347137D01*
X140038096Y-61343489D01*
X140097594Y-61260689D01*
X140165435Y-61166277D01*
X140168453Y-61162077D01*
X140189320Y-61119857D01*
X140265136Y-60966453D01*
X140265137Y-60966451D01*
X140267430Y-60961811D01*
X140332370Y-60748069D01*
X140361529Y-60526590D01*
X140363156Y-60460000D01*
X140344852Y-60237361D01*
X140290431Y-60020702D01*
X140201354Y-59815840D01*
X140080014Y-59628277D01*
X139929670Y-59463051D01*
X139925619Y-59459852D01*
X139925615Y-59459848D01*
X139758414Y-59327800D01*
X139758410Y-59327798D01*
X139754359Y-59324598D01*
X139558789Y-59216638D01*
X139553920Y-59214914D01*
X139553916Y-59214912D01*
X139353087Y-59143795D01*
X139353083Y-59143794D01*
X139348212Y-59142069D01*
X139343119Y-59141162D01*
X139343116Y-59141161D01*
X139133373Y-59103800D01*
X139133367Y-59103799D01*
X139128284Y-59102894D01*
X139054452Y-59101992D01*
X138910081Y-59100228D01*
X138910079Y-59100228D01*
X138904911Y-59100165D01*
X138684091Y-59133955D01*
X138471756Y-59203357D01*
X138273607Y-59306507D01*
X138269474Y-59309610D01*
X138269471Y-59309612D01*
X138220068Y-59346705D01*
X138094965Y-59440635D01*
X138076605Y-59459848D01*
X137989866Y-59550615D01*
X137940629Y-59602138D01*
X137833201Y-59759621D01*
X137778293Y-59804621D01*
X137707768Y-59812792D01*
X137644021Y-59781538D01*
X137623324Y-59757054D01*
X137542822Y-59632617D01*
X137542820Y-59632614D01*
X137540014Y-59628277D01*
X137389670Y-59463051D01*
X137385619Y-59459852D01*
X137385615Y-59459848D01*
X137218414Y-59327800D01*
X137218410Y-59327798D01*
X137214359Y-59324598D01*
X137018789Y-59216638D01*
X137013920Y-59214914D01*
X137013916Y-59214912D01*
X136813087Y-59143795D01*
X136813083Y-59143794D01*
X136808212Y-59142069D01*
X136803119Y-59141162D01*
X136803116Y-59141161D01*
X136593373Y-59103800D01*
X136593367Y-59103799D01*
X136588284Y-59102894D01*
X136514452Y-59101992D01*
X136370081Y-59100228D01*
X136370079Y-59100228D01*
X136364911Y-59100165D01*
X136144091Y-59133955D01*
X135931756Y-59203357D01*
X135733607Y-59306507D01*
X135729474Y-59309610D01*
X135729471Y-59309612D01*
X135680068Y-59346705D01*
X135554965Y-59440635D01*
X135536605Y-59459848D01*
X135449866Y-59550615D01*
X135400629Y-59602138D01*
X135293201Y-59759621D01*
X135238293Y-59804621D01*
X135167768Y-59812792D01*
X135104021Y-59781538D01*
X135083324Y-59757054D01*
X135002822Y-59632617D01*
X135002820Y-59632614D01*
X135000014Y-59628277D01*
X134849670Y-59463051D01*
X134845619Y-59459852D01*
X134845615Y-59459848D01*
X134678414Y-59327800D01*
X134678410Y-59327798D01*
X134674359Y-59324598D01*
X134478789Y-59216638D01*
X134473920Y-59214914D01*
X134473916Y-59214912D01*
X134273087Y-59143795D01*
X134273083Y-59143794D01*
X134268212Y-59142069D01*
X134263119Y-59141162D01*
X134263116Y-59141161D01*
X134053373Y-59103800D01*
X134053367Y-59103799D01*
X134048284Y-59102894D01*
X133974452Y-59101992D01*
X133830081Y-59100228D01*
X133830079Y-59100228D01*
X133824911Y-59100165D01*
X133604091Y-59133955D01*
X133391756Y-59203357D01*
X133193607Y-59306507D01*
X133189474Y-59309610D01*
X133189471Y-59309612D01*
X133140068Y-59346705D01*
X133014965Y-59440635D01*
X132996605Y-59459848D01*
X132909866Y-59550615D01*
X132860629Y-59602138D01*
X132753201Y-59759621D01*
X132698293Y-59804621D01*
X132627768Y-59812792D01*
X132564021Y-59781538D01*
X132543324Y-59757054D01*
X132462822Y-59632617D01*
X132462820Y-59632614D01*
X132460014Y-59628277D01*
X132309670Y-59463051D01*
X132305619Y-59459852D01*
X132305615Y-59459848D01*
X132138414Y-59327800D01*
X132138410Y-59327798D01*
X132134359Y-59324598D01*
X131938789Y-59216638D01*
X131933920Y-59214914D01*
X131933916Y-59214912D01*
X131733087Y-59143795D01*
X131733083Y-59143794D01*
X131728212Y-59142069D01*
X131723119Y-59141162D01*
X131723116Y-59141161D01*
X131513373Y-59103800D01*
X131513367Y-59103799D01*
X131508284Y-59102894D01*
X131434452Y-59101992D01*
X131290081Y-59100228D01*
X131290079Y-59100228D01*
X131284911Y-59100165D01*
X131064091Y-59133955D01*
X130851756Y-59203357D01*
X130653607Y-59306507D01*
X130649474Y-59309610D01*
X130649471Y-59309612D01*
X130600068Y-59346705D01*
X130474965Y-59440635D01*
X130456605Y-59459848D01*
X130369866Y-59550615D01*
X130320629Y-59602138D01*
X130213201Y-59759621D01*
X130158293Y-59804621D01*
X130087768Y-59812792D01*
X130024021Y-59781538D01*
X130003324Y-59757054D01*
X129922822Y-59632617D01*
X129922820Y-59632614D01*
X129920014Y-59628277D01*
X129769670Y-59463051D01*
X129765619Y-59459852D01*
X129765615Y-59459848D01*
X129598414Y-59327800D01*
X129598410Y-59327798D01*
X129594359Y-59324598D01*
X129398789Y-59216638D01*
X129393920Y-59214914D01*
X129393916Y-59214912D01*
X129193087Y-59143795D01*
X129193083Y-59143794D01*
X129188212Y-59142069D01*
X129183119Y-59141162D01*
X129183116Y-59141161D01*
X128973373Y-59103800D01*
X128973367Y-59103799D01*
X128968284Y-59102894D01*
X128894452Y-59101992D01*
X128750081Y-59100228D01*
X128750079Y-59100228D01*
X128744911Y-59100165D01*
X128524091Y-59133955D01*
X128311756Y-59203357D01*
X128113607Y-59306507D01*
X128109474Y-59309610D01*
X128109471Y-59309612D01*
X128060068Y-59346705D01*
X127934965Y-59440635D01*
X127916605Y-59459848D01*
X127829866Y-59550615D01*
X127780629Y-59602138D01*
X127673201Y-59759621D01*
X127618293Y-59804621D01*
X127547768Y-59812792D01*
X127484021Y-59781538D01*
X127463324Y-59757054D01*
X127382822Y-59632617D01*
X127382820Y-59632614D01*
X127380014Y-59628277D01*
X127229670Y-59463051D01*
X127225619Y-59459852D01*
X127225615Y-59459848D01*
X127058414Y-59327800D01*
X127058410Y-59327798D01*
X127054359Y-59324598D01*
X126858789Y-59216638D01*
X126853920Y-59214914D01*
X126853916Y-59214912D01*
X126653087Y-59143795D01*
X126653083Y-59143794D01*
X126648212Y-59142069D01*
X126643119Y-59141162D01*
X126643116Y-59141161D01*
X126433373Y-59103800D01*
X126433367Y-59103799D01*
X126428284Y-59102894D01*
X126354452Y-59101992D01*
X126210081Y-59100228D01*
X126210079Y-59100228D01*
X126204911Y-59100165D01*
X125984091Y-59133955D01*
X125771756Y-59203357D01*
X125573607Y-59306507D01*
X125569474Y-59309610D01*
X125569471Y-59309612D01*
X125520068Y-59346705D01*
X125394965Y-59440635D01*
X125376605Y-59459848D01*
X125289866Y-59550615D01*
X125240629Y-59602138D01*
X125133201Y-59759621D01*
X125078293Y-59804621D01*
X125007768Y-59812792D01*
X124944021Y-59781538D01*
X124923324Y-59757054D01*
X124842822Y-59632617D01*
X124842820Y-59632614D01*
X124840014Y-59628277D01*
X124689670Y-59463051D01*
X124685619Y-59459852D01*
X124685615Y-59459848D01*
X124518414Y-59327800D01*
X124518410Y-59327798D01*
X124514359Y-59324598D01*
X124318789Y-59216638D01*
X124313920Y-59214914D01*
X124313916Y-59214912D01*
X124113087Y-59143795D01*
X124113083Y-59143794D01*
X124108212Y-59142069D01*
X124103119Y-59141162D01*
X124103116Y-59141161D01*
X123893373Y-59103800D01*
X123893367Y-59103799D01*
X123888284Y-59102894D01*
X123814452Y-59101992D01*
X123670081Y-59100228D01*
X123670079Y-59100228D01*
X123664911Y-59100165D01*
X123444091Y-59133955D01*
X123231756Y-59203357D01*
X123033607Y-59306507D01*
X123029474Y-59309610D01*
X123029471Y-59309612D01*
X122980068Y-59346705D01*
X122854965Y-59440635D01*
X122836605Y-59459848D01*
X122749866Y-59550615D01*
X122700629Y-59602138D01*
X122574743Y-59786680D01*
X122480688Y-59989305D01*
X122420989Y-60204570D01*
X122397251Y-60426695D01*
X103360418Y-60426695D01*
X103344852Y-60237361D01*
X103290431Y-60020702D01*
X103201354Y-59815840D01*
X103080014Y-59628277D01*
X102929670Y-59463051D01*
X102925619Y-59459852D01*
X102925615Y-59459848D01*
X102758414Y-59327800D01*
X102758410Y-59327798D01*
X102754359Y-59324598D01*
X102558789Y-59216638D01*
X102553920Y-59214914D01*
X102553916Y-59214912D01*
X102353087Y-59143795D01*
X102353083Y-59143794D01*
X102348212Y-59142069D01*
X102343119Y-59141162D01*
X102343116Y-59141161D01*
X102133373Y-59103800D01*
X102133367Y-59103799D01*
X102128284Y-59102894D01*
X102054452Y-59101992D01*
X101910081Y-59100228D01*
X101910079Y-59100228D01*
X101904911Y-59100165D01*
X101684091Y-59133955D01*
X101623644Y-59153712D01*
X101552682Y-59155863D01*
X101491820Y-59119307D01*
X101460383Y-59055650D01*
X101458500Y-59033947D01*
X101458500Y-56764594D01*
X101478502Y-56696473D01*
X101495405Y-56675499D01*
X101500499Y-56670405D01*
X101562811Y-56636379D01*
X101589594Y-56633500D01*
X102898134Y-56633500D01*
X102960316Y-56626745D01*
X103096705Y-56575615D01*
X103213261Y-56488261D01*
X103300615Y-56371705D01*
X103351745Y-56235316D01*
X103358500Y-56173134D01*
X103358500Y-55293594D01*
X103378502Y-55225473D01*
X103432158Y-55178980D01*
X103502432Y-55168876D01*
X103567012Y-55198370D01*
X103573595Y-55204499D01*
X106014595Y-57645499D01*
X106048621Y-57707811D01*
X106051500Y-57734594D01*
X106051500Y-59148134D01*
X106058255Y-59210316D01*
X106109385Y-59346705D01*
X106196739Y-59463261D01*
X106313295Y-59550615D01*
X106449684Y-59601745D01*
X106511866Y-59608500D01*
X108308134Y-59608500D01*
X108370316Y-59601745D01*
X108506705Y-59550615D01*
X108623261Y-59463261D01*
X108710615Y-59346705D01*
X108761745Y-59210316D01*
X108768500Y-59148134D01*
X108768500Y-58000000D01*
X113836496Y-58000000D01*
X113856458Y-58189928D01*
X113915473Y-58371556D01*
X114010960Y-58536944D01*
X114138747Y-58678866D01*
X114293248Y-58791118D01*
X114299276Y-58793802D01*
X114299278Y-58793803D01*
X114461681Y-58866109D01*
X114467712Y-58868794D01*
X114561113Y-58888647D01*
X114648056Y-58907128D01*
X114648061Y-58907128D01*
X114654513Y-58908500D01*
X114845487Y-58908500D01*
X114851939Y-58907128D01*
X114851944Y-58907128D01*
X114938887Y-58888647D01*
X115032288Y-58868794D01*
X115038319Y-58866109D01*
X115200722Y-58793803D01*
X115200724Y-58793802D01*
X115206752Y-58791118D01*
X115361253Y-58678866D01*
X115489040Y-58536944D01*
X115584527Y-58371556D01*
X115643542Y-58189928D01*
X115663504Y-58000000D01*
X115643542Y-57810072D01*
X115584527Y-57628444D01*
X115489040Y-57463056D01*
X115361253Y-57321134D01*
X115206752Y-57208882D01*
X115200724Y-57206198D01*
X115200722Y-57206197D01*
X115038319Y-57133891D01*
X115038318Y-57133891D01*
X115032288Y-57131206D01*
X114938888Y-57111353D01*
X114851944Y-57092872D01*
X114851939Y-57092872D01*
X114845487Y-57091500D01*
X114654513Y-57091500D01*
X114648061Y-57092872D01*
X114648056Y-57092872D01*
X114561112Y-57111353D01*
X114467712Y-57131206D01*
X114461682Y-57133891D01*
X114461681Y-57133891D01*
X114299278Y-57206197D01*
X114299276Y-57206198D01*
X114293248Y-57208882D01*
X114138747Y-57321134D01*
X114010960Y-57463056D01*
X113915473Y-57628444D01*
X113856458Y-57810072D01*
X113836496Y-58000000D01*
X108768500Y-58000000D01*
X108768500Y-57351866D01*
X108761745Y-57289684D01*
X108710615Y-57153295D01*
X108623261Y-57036739D01*
X108506705Y-56949385D01*
X108443035Y-56925516D01*
X108388203Y-56904960D01*
X108331439Y-56862318D01*
X108306739Y-56795756D01*
X108321947Y-56726408D01*
X108343493Y-56697727D01*
X108365799Y-56675499D01*
X108448096Y-56593489D01*
X108578453Y-56412077D01*
X108594855Y-56378891D01*
X108675136Y-56216453D01*
X108675137Y-56216451D01*
X108677430Y-56211811D01*
X108709900Y-56104940D01*
X108740865Y-56003023D01*
X108740865Y-56003021D01*
X108742370Y-55998069D01*
X108771529Y-55776590D01*
X108773156Y-55710000D01*
X108754852Y-55487361D01*
X108700431Y-55270702D01*
X108611354Y-55065840D01*
X108568760Y-55000000D01*
X117086496Y-55000000D01*
X117106458Y-55189928D01*
X117165473Y-55371556D01*
X117260960Y-55536944D01*
X117388747Y-55678866D01*
X117543248Y-55791118D01*
X117549276Y-55793802D01*
X117549278Y-55793803D01*
X117709799Y-55865271D01*
X117717712Y-55868794D01*
X117811112Y-55888647D01*
X117898056Y-55907128D01*
X117898061Y-55907128D01*
X117904513Y-55908500D01*
X118095487Y-55908500D01*
X118101939Y-55907128D01*
X118101944Y-55907128D01*
X118188888Y-55888647D01*
X118282288Y-55868794D01*
X118290201Y-55865271D01*
X118450722Y-55793803D01*
X118450724Y-55793802D01*
X118456752Y-55791118D01*
X118611253Y-55678866D01*
X118739040Y-55536944D01*
X118760370Y-55500000D01*
X122586496Y-55500000D01*
X122587186Y-55506565D01*
X122603011Y-55657128D01*
X122606458Y-55689928D01*
X122665473Y-55871556D01*
X122668776Y-55877278D01*
X122668777Y-55877279D01*
X122686803Y-55908500D01*
X122760960Y-56036944D01*
X122888747Y-56178866D01*
X123043248Y-56291118D01*
X123049276Y-56293802D01*
X123049278Y-56293803D01*
X123205365Y-56363297D01*
X123217712Y-56368794D01*
X123311112Y-56388647D01*
X123398056Y-56407128D01*
X123398061Y-56407128D01*
X123404513Y-56408500D01*
X123595487Y-56408500D01*
X123601939Y-56407128D01*
X123601944Y-56407128D01*
X123688888Y-56388647D01*
X123782288Y-56368794D01*
X123794635Y-56363297D01*
X123950722Y-56293803D01*
X123950724Y-56293802D01*
X123956752Y-56291118D01*
X124111253Y-56178866D01*
X124239040Y-56036944D01*
X124313197Y-55908500D01*
X124331223Y-55877279D01*
X124331224Y-55877278D01*
X124334527Y-55871556D01*
X124393542Y-55689928D01*
X124396990Y-55657128D01*
X124412814Y-55506565D01*
X124413504Y-55500000D01*
X124406028Y-55428866D01*
X124394232Y-55316635D01*
X124394232Y-55316633D01*
X124393542Y-55310072D01*
X124334527Y-55128444D01*
X124239040Y-54963056D01*
X124218216Y-54939928D01*
X124115675Y-54826045D01*
X124115674Y-54826044D01*
X124111253Y-54821134D01*
X124013346Y-54750000D01*
X130336496Y-54750000D01*
X130337186Y-54756565D01*
X130344489Y-54826045D01*
X130356458Y-54939928D01*
X130415473Y-55121556D01*
X130510960Y-55286944D01*
X130515378Y-55291851D01*
X130515379Y-55291852D01*
X130537694Y-55316635D01*
X130638747Y-55428866D01*
X130681196Y-55459707D01*
X130757877Y-55515419D01*
X130793248Y-55541118D01*
X130799276Y-55543802D01*
X130799278Y-55543803D01*
X130961681Y-55616109D01*
X130967712Y-55618794D01*
X131061112Y-55638647D01*
X131148056Y-55657128D01*
X131148061Y-55657128D01*
X131154513Y-55658500D01*
X131345487Y-55658500D01*
X131351939Y-55657128D01*
X131351944Y-55657128D01*
X131438887Y-55638647D01*
X131532288Y-55618794D01*
X131538319Y-55616109D01*
X131700722Y-55543803D01*
X131700724Y-55543802D01*
X131706752Y-55541118D01*
X131742124Y-55515419D01*
X131818804Y-55459707D01*
X131861253Y-55428866D01*
X131962306Y-55316635D01*
X131984621Y-55291852D01*
X131984622Y-55291851D01*
X131989040Y-55286944D01*
X132084527Y-55121556D01*
X132143542Y-54939928D01*
X132155512Y-54826045D01*
X132162814Y-54756565D01*
X132163504Y-54750000D01*
X132151389Y-54634729D01*
X132144232Y-54566635D01*
X132144232Y-54566633D01*
X132143542Y-54560072D01*
X132084527Y-54378444D01*
X132077406Y-54366109D01*
X132034109Y-54291118D01*
X131989040Y-54213056D01*
X131961752Y-54182749D01*
X131865675Y-54076045D01*
X131865674Y-54076044D01*
X131861253Y-54071134D01*
X131706752Y-53958882D01*
X131700724Y-53956198D01*
X131700722Y-53956197D01*
X131538319Y-53883891D01*
X131538318Y-53883891D01*
X131532288Y-53881206D01*
X131438887Y-53861353D01*
X131351944Y-53842872D01*
X131351939Y-53842872D01*
X131345487Y-53841500D01*
X131154513Y-53841500D01*
X131148061Y-53842872D01*
X131148056Y-53842872D01*
X131061113Y-53861353D01*
X130967712Y-53881206D01*
X130961682Y-53883891D01*
X130961681Y-53883891D01*
X130799278Y-53956197D01*
X130799276Y-53956198D01*
X130793248Y-53958882D01*
X130638747Y-54071134D01*
X130634326Y-54076044D01*
X130634325Y-54076045D01*
X130538249Y-54182749D01*
X130510960Y-54213056D01*
X130465891Y-54291118D01*
X130422595Y-54366109D01*
X130415473Y-54378444D01*
X130356458Y-54560072D01*
X130355768Y-54566633D01*
X130355768Y-54566635D01*
X130348611Y-54634729D01*
X130336496Y-54750000D01*
X124013346Y-54750000D01*
X123981601Y-54726936D01*
X123938247Y-54670714D01*
X123932172Y-54599977D01*
X123965304Y-54537186D01*
X123981601Y-54523064D01*
X124105909Y-54432749D01*
X124105911Y-54432747D01*
X124111253Y-54428866D01*
X124178843Y-54353800D01*
X124234621Y-54291852D01*
X124234622Y-54291851D01*
X124239040Y-54286944D01*
X124321673Y-54143820D01*
X124331223Y-54127279D01*
X124331224Y-54127278D01*
X124334527Y-54121556D01*
X124393542Y-53939928D01*
X124395295Y-53923255D01*
X124412814Y-53756565D01*
X124413504Y-53750000D01*
X124407190Y-53689928D01*
X124394232Y-53566635D01*
X124394232Y-53566633D01*
X124393542Y-53560072D01*
X124374023Y-53500000D01*
X133086496Y-53500000D01*
X133087186Y-53506565D01*
X133093500Y-53566635D01*
X133106458Y-53689928D01*
X133165473Y-53871556D01*
X133168776Y-53877278D01*
X133168777Y-53877279D01*
X133185702Y-53906593D01*
X133260960Y-54036944D01*
X133265378Y-54041851D01*
X133265379Y-54041852D01*
X133301068Y-54081489D01*
X133388747Y-54178866D01*
X133543248Y-54291118D01*
X133549276Y-54293802D01*
X133549278Y-54293803D01*
X133711681Y-54366109D01*
X133717712Y-54368794D01*
X133792680Y-54384729D01*
X133898056Y-54407128D01*
X133898061Y-54407128D01*
X133904513Y-54408500D01*
X134095487Y-54408500D01*
X134101939Y-54407128D01*
X134101944Y-54407128D01*
X134207320Y-54384729D01*
X134282288Y-54368794D01*
X134288319Y-54366109D01*
X134450722Y-54293803D01*
X134450724Y-54293802D01*
X134456752Y-54291118D01*
X134611253Y-54178866D01*
X134698932Y-54081489D01*
X134734621Y-54041852D01*
X134734622Y-54041851D01*
X134739040Y-54036944D01*
X134814298Y-53906593D01*
X134831223Y-53877279D01*
X134831224Y-53877278D01*
X134834527Y-53871556D01*
X134893542Y-53689928D01*
X134906501Y-53566635D01*
X134912814Y-53506565D01*
X134913504Y-53500000D01*
X134893542Y-53310072D01*
X134834527Y-53128444D01*
X134739040Y-52963056D01*
X134689242Y-52907749D01*
X134615675Y-52826045D01*
X134615674Y-52826044D01*
X134611253Y-52821134D01*
X134456752Y-52708882D01*
X134450724Y-52706198D01*
X134450722Y-52706197D01*
X134288319Y-52633891D01*
X134288318Y-52633891D01*
X134282288Y-52631206D01*
X134188887Y-52611353D01*
X134101944Y-52592872D01*
X134101939Y-52592872D01*
X134095487Y-52591500D01*
X133904513Y-52591500D01*
X133898061Y-52592872D01*
X133898056Y-52592872D01*
X133811112Y-52611353D01*
X133717712Y-52631206D01*
X133711682Y-52633891D01*
X133711681Y-52633891D01*
X133549278Y-52706197D01*
X133549276Y-52706198D01*
X133543248Y-52708882D01*
X133388747Y-52821134D01*
X133384326Y-52826044D01*
X133384325Y-52826045D01*
X133310759Y-52907749D01*
X133260960Y-52963056D01*
X133165473Y-53128444D01*
X133106458Y-53310072D01*
X133086496Y-53500000D01*
X124374023Y-53500000D01*
X124334527Y-53378444D01*
X124239040Y-53213056D01*
X124170456Y-53136885D01*
X124115675Y-53076045D01*
X124115674Y-53076044D01*
X124111253Y-53071134D01*
X123956752Y-52958882D01*
X123950724Y-52956198D01*
X123950722Y-52956197D01*
X123788319Y-52883891D01*
X123788318Y-52883891D01*
X123782288Y-52881206D01*
X123688887Y-52861353D01*
X123601944Y-52842872D01*
X123601939Y-52842872D01*
X123595487Y-52841500D01*
X123404513Y-52841500D01*
X123398061Y-52842872D01*
X123398056Y-52842872D01*
X123311113Y-52861353D01*
X123217712Y-52881206D01*
X123211682Y-52883891D01*
X123211681Y-52883891D01*
X123049278Y-52956197D01*
X123049276Y-52956198D01*
X123043248Y-52958882D01*
X122888747Y-53071134D01*
X122884326Y-53076044D01*
X122884325Y-53076045D01*
X122829545Y-53136885D01*
X122760960Y-53213056D01*
X122665473Y-53378444D01*
X122606458Y-53560072D01*
X122605768Y-53566633D01*
X122605768Y-53566635D01*
X122592810Y-53689928D01*
X122586496Y-53750000D01*
X122587186Y-53756565D01*
X122604706Y-53923255D01*
X122606458Y-53939928D01*
X122665473Y-54121556D01*
X122668776Y-54127278D01*
X122668777Y-54127279D01*
X122678327Y-54143820D01*
X122760960Y-54286944D01*
X122765378Y-54291851D01*
X122765379Y-54291852D01*
X122821157Y-54353800D01*
X122888747Y-54428866D01*
X122894089Y-54432747D01*
X122894091Y-54432749D01*
X123018399Y-54523064D01*
X123061753Y-54579286D01*
X123067828Y-54650023D01*
X123034696Y-54712814D01*
X123018400Y-54726936D01*
X122888747Y-54821134D01*
X122884326Y-54826044D01*
X122884325Y-54826045D01*
X122781785Y-54939928D01*
X122760960Y-54963056D01*
X122665473Y-55128444D01*
X122606458Y-55310072D01*
X122605768Y-55316633D01*
X122605768Y-55316635D01*
X122593972Y-55428866D01*
X122586496Y-55500000D01*
X118760370Y-55500000D01*
X118834527Y-55371556D01*
X118893542Y-55189928D01*
X118913504Y-55000000D01*
X118907190Y-54939928D01*
X118894232Y-54816635D01*
X118894232Y-54816633D01*
X118893542Y-54810072D01*
X118834527Y-54628444D01*
X118739040Y-54463056D01*
X118711752Y-54432749D01*
X118615675Y-54326045D01*
X118615674Y-54326044D01*
X118611253Y-54321134D01*
X118456752Y-54208882D01*
X118450724Y-54206198D01*
X118450722Y-54206197D01*
X118288319Y-54133891D01*
X118288318Y-54133891D01*
X118282288Y-54131206D01*
X118188888Y-54111353D01*
X118101944Y-54092872D01*
X118101939Y-54092872D01*
X118095487Y-54091500D01*
X117904513Y-54091500D01*
X117898061Y-54092872D01*
X117898056Y-54092872D01*
X117811113Y-54111353D01*
X117717712Y-54131206D01*
X117711682Y-54133891D01*
X117711681Y-54133891D01*
X117549278Y-54206197D01*
X117549276Y-54206198D01*
X117543248Y-54208882D01*
X117388747Y-54321134D01*
X117384326Y-54326044D01*
X117384325Y-54326045D01*
X117288249Y-54432749D01*
X117260960Y-54463056D01*
X117165473Y-54628444D01*
X117106458Y-54810072D01*
X117105768Y-54816633D01*
X117105768Y-54816635D01*
X117092810Y-54939928D01*
X117086496Y-55000000D01*
X108568760Y-55000000D01*
X108490014Y-54878277D01*
X108339670Y-54713051D01*
X108335619Y-54709852D01*
X108335615Y-54709848D01*
X108168414Y-54577800D01*
X108168410Y-54577798D01*
X108164359Y-54574598D01*
X108126673Y-54553794D01*
X108071005Y-54523064D01*
X107968789Y-54466638D01*
X107963920Y-54464914D01*
X107963916Y-54464912D01*
X107763087Y-54393795D01*
X107763083Y-54393794D01*
X107758212Y-54392069D01*
X107753119Y-54391162D01*
X107753116Y-54391161D01*
X107543373Y-54353800D01*
X107543367Y-54353799D01*
X107538284Y-54352894D01*
X107464452Y-54351992D01*
X107320081Y-54350228D01*
X107320079Y-54350228D01*
X107314911Y-54350165D01*
X107094091Y-54383955D01*
X106881756Y-54453357D01*
X106852140Y-54468774D01*
X106688819Y-54553794D01*
X106683607Y-54556507D01*
X106679474Y-54559610D01*
X106679471Y-54559612D01*
X106559055Y-54650023D01*
X106504965Y-54690635D01*
X106350629Y-54852138D01*
X106224743Y-55036680D01*
X106185345Y-55121556D01*
X106137109Y-55225473D01*
X106130688Y-55239305D01*
X106070989Y-55454570D01*
X106070440Y-55459707D01*
X106055017Y-55604024D01*
X106027889Y-55669634D01*
X105969597Y-55710162D01*
X105898647Y-55712741D01*
X105840635Y-55679730D01*
X103351218Y-53190313D01*
X103317192Y-53128001D01*
X103319755Y-53064589D01*
X103330865Y-53028022D01*
X103332370Y-53023069D01*
X103361529Y-52801590D01*
X103362498Y-52761944D01*
X103363074Y-52738365D01*
X103363074Y-52738361D01*
X103363156Y-52735000D01*
X103344852Y-52512361D01*
X103290431Y-52295702D01*
X103201354Y-52090840D01*
X103135482Y-51989017D01*
X103082822Y-51907617D01*
X103082820Y-51907614D01*
X103080014Y-51903277D01*
X102929670Y-51738051D01*
X102925619Y-51734852D01*
X102925615Y-51734848D01*
X102758414Y-51602800D01*
X102758410Y-51602798D01*
X102754359Y-51599598D01*
X102558789Y-51491638D01*
X102553920Y-51489914D01*
X102553916Y-51489912D01*
X102353087Y-51418795D01*
X102353083Y-51418794D01*
X102348212Y-51417069D01*
X102343119Y-51416162D01*
X102343116Y-51416161D01*
X102133373Y-51378800D01*
X102133367Y-51378799D01*
X102128284Y-51377894D01*
X102054452Y-51376992D01*
X101910081Y-51375228D01*
X101910079Y-51375228D01*
X101904911Y-51375165D01*
X101684091Y-51408955D01*
X101471756Y-51478357D01*
X101273607Y-51581507D01*
X101269474Y-51584610D01*
X101269471Y-51584612D01*
X101099100Y-51712530D01*
X101094965Y-51715635D01*
X101091393Y-51719373D01*
X100947292Y-51870166D01*
X100940629Y-51877138D01*
X100814743Y-52061680D01*
X100812567Y-52066369D01*
X100812563Y-52066375D01*
X100748788Y-52203768D01*
X100701964Y-52257135D01*
X100633720Y-52276716D01*
X100565725Y-52256292D01*
X100519565Y-52202350D01*
X100508500Y-52150718D01*
X100508500Y-52053250D01*
X100510246Y-52032345D01*
X100512770Y-52017344D01*
X100512770Y-52017341D01*
X100513576Y-52012552D01*
X100513729Y-52000000D01*
X100513040Y-51995186D01*
X100513039Y-51995176D01*
X100512157Y-51989017D01*
X100511206Y-51962172D01*
X100523038Y-51796723D01*
X100525596Y-51778934D01*
X100566999Y-51588607D01*
X100572063Y-51571359D01*
X100640136Y-51388850D01*
X100647604Y-51372498D01*
X100740952Y-51201542D01*
X100750672Y-51186418D01*
X100867402Y-51030486D01*
X100879175Y-51016900D01*
X101016900Y-50879175D01*
X101030486Y-50867402D01*
X101186418Y-50750672D01*
X101201542Y-50740952D01*
X101372498Y-50647604D01*
X101388850Y-50640136D01*
X101571359Y-50572063D01*
X101588608Y-50566999D01*
X101778936Y-50525596D01*
X101796715Y-50523039D01*
X101958605Y-50511460D01*
X101976565Y-50512207D01*
X101984845Y-50512308D01*
X101993724Y-50513691D01*
X102025286Y-50509564D01*
X102041621Y-50508500D01*
X117031021Y-50508500D01*
X117099142Y-50528502D01*
G37*
%TD.AperFunction*%
%TD*%
M02*
